<?xml version="1.0" standalone="no"?>
<!DOCTYPE svg PUBLIC "-//W3C//DTD SVG 1.1//EN" "http://www.w3.org/Graphics/SVG/1.1/DTD/svg11.dtd" >
<svg>
<metadata>
Created by FontForge 20090914 at Wed Jun  5 11:28:09 2013
 By www-data
(c) Copyright 2005, Arphic Technology Co., Ltd.Copyright \(c\) 1997 enStep Incorporated. All Rights Reserved.
</metadata>
<defs>
<font id="ARDELANEY" horiz-adv-x="500" >
  <font-face 
    font-family="AR DELANEY"
    font-weight="5"
    font-stretch="normal"
    units-per-em="1000"
    panose-1="2 0 0 0 0 0 0 0 0 0"
    ascent="800"
    descent="-200"
    x-height="527.001"
    cap-height="671"
    bbox="-13 -189 1033 928"
    underline-thickness="0"
    underline-position="0"
    unicode-range="U+0020-U+2122"
  />
<missing-glyph 
 />
    <glyph glyph-name=".notdef" 
 />
    <glyph glyph-name="space" unicode=" " horiz-adv-x="330" 
 />
    <glyph glyph-name="space" unicode="&#xa0;" horiz-adv-x="330" 
 />
    <glyph glyph-name="exclam" unicode="!" horiz-adv-x="327" 
d="M273 374c0 -41.333 -7.66797 -73.333 -23.001 -96c-18.667 -27.333 -47.667 -41 -87 -41c-38.667 0 -67.334 13.667 -86.001 41c-16 23.333 -24 55.333 -24 96v177c0 39.333 8 71 24 95c18.667 28 47.334 42 86.001 42s67.334 -13.667 86.001 -41
c16 -23.333 24 -55.333 24 -96v-177zM270.999 103c0 -29.333 -10.668 -54.667 -32.001 -76s-46.666 -32 -75.999 -32s-54.5 10.5 -75.5 31.5s-31.5 46.5 -31.5 76.5c0 29.333 10.5 54.5 31.5 75.5s46.167 31.5 75.5 31.5c30 0 55.5 -10.5 76.5 -31.5
s31.5 -46.167 31.5 -75.5zM85.998 369.999c0 -30 4.99902 -53 14.999 -69c12.667 -20.667 33.334 -31 62.001 -31s49.334 10 62.001 30c10 16 15 39 15 69v186c0 30 -5 53 -15 69c-12.667 20 -33.334 30 -62.001 30c-29.333 0 -49.5 -9.33301 -60.5 -28
s-16.5 -43.667 -16.5 -75v-181zM88.9971 102.999c0 -21.333 7.16699 -39.166 21.5 -53.499s31.833 -21.5 52.5 -21.5c21.333 0 39.166 7.16699 53.499 21.5s21.5 32.166 21.5 53.499c0 20.667 -7.16699 38.167 -21.5 52.5s-32.166 21.5 -53.499 21.5
c-20.667 0 -38.167 -7.16699 -52.5 -21.5s-21.5 -31.833 -21.5 -52.5zM206.997 373.999c0 -22.667 -1.99902 -38.667 -5.99902 -48c-6.66699 -15.333 -19.334 -23 -38.001 -23s-30.5 6.33301 -35.5 19s-7.5 30 -7.5 52v177c0 23.333 1.66699 39 5 47
c6 15.333 18.667 23 38 23s32 -7.33301 38 -22c4 -9.33301 6 -25.333 6 -48v-177zM203.998 102.999c0 -11.333 -4 -21 -12 -29s-17.667 -12 -29 -12s-21 4 -29 12s-12 17.667 -12 29s4 21 12 29s17.667 12 29 12s21 -4 29 -12s12 -17.667 12 -29z" />
    <glyph glyph-name="quotedbl" unicode="&#x22;" horiz-adv-x="515" 
d="M143 682c26.667 0 49.667 -8.99902 69 -26.999s29 -40 29 -66c0 -23.333 -11.667 -59.833 -35 -109.5s-44 -74.5 -62 -74.5c-18.667 0 -39.667 24.5 -63 73.5s-35 85.833 -35 110.5c0 27.333 9.33301 49.666 28 66.999s41.667 26 69 26zM371 682.001
c26.667 0 49.667 -9.00098 69 -27.001s29 -40 29 -66c0 -23.333 -11.667 -59.833 -35 -109.5s-44 -74.5 -62 -74.5c-18.667 0 -39.667 24.5 -63 73.5s-35 85.833 -35 110.5c0 26.667 9.5 48.834 28.5 66.501s41.833 26.5 68.5 26.5zM208 589
c0 18 -6.33301 32.332 -19 42.999s-28 16 -46 16c-17.333 0 -32.333 -5.33301 -45 -16s-19 -25 -19 -43c0 -16.667 8.5 -43.667 25.5 -81s30.167 -58.666 39.5 -63.999c8 5.33301 20.667 26.833 38 64.5s26 64.5 26 80.5zM436 588.999c0 18 -6.33301 32.333 -19 43
s-28 16 -46 16c-16.667 0 -31.5 -5.5 -44.5 -16.5s-19.5 -25.167 -19.5 -42.5c0 -16.667 8.66699 -43.5 26 -80.5s30.333 -58.5 39 -64.5c8 5.33301 20.667 26.833 38 64.5s26 64.5 26 80.5zM143 614.999c9.33301 0 16.833 -2.5 22.5 -7.5s8.5 -12.167 8.5 -21.5
c0 -8.66699 -4 -22.5 -12 -41.5s-14 -28.5 -18 -28.5s-10.333 9.66699 -19 29s-13 33.333 -13 42c0 8 3 14.667 9 20s13.333 8 22 8zM371 614.999c9.33301 0 16.833 -2.5 22.5 -7.5s8.5 -12.167 8.5 -21.5c0 -8.66699 -4 -22.5 -12 -41.5s-14 -28.5 -18 -28.5
s-10.333 9.66699 -19 29s-13 33.333 -13 42c0 8 3 14.667 9 20s13.333 8 22 8z" />
    <glyph glyph-name="numbersign" unicode="#" horiz-adv-x="663" 
d="M532 306l-4.00195 -2c0.666992 0.666992 1.33398 1 2.00098 1s1.33398 0.333008 2.00098 1zM559.998 444c-1.33301 -0.666992 -2.33301 -1 -3 -1s-1.33398 -0.333008 -2.00098 -1c0.666992 0 2.33398 0.666992 5.00098 2zM60.998 439c0 16.667 2.49902 30.333 7.49902 41
s12.333 19 22 25s21.167 10 34.5 12s28 3 44 3h46l4 16.5l4 17.5c1.33301 6 3 11.833 5 17.5s3.66699 11.167 5 16.5c10.667 40.667 25.834 67.834 45.501 81.501s42.167 17.5 67.5 11.5c24 -8.66699 41 -22.667 51 -42c11.333 21.333 25.166 34.833 41.499 40.5
s34.166 6.16699 53.499 1.5c21.333 -6.66699 36.833 -17.5 46.5 -32.5s14.5 -32.5 14.5 -52.5c0 -18 -2.33301 -35.333 -7 -52l-4 -12c-1.33301 -4 -2.66602 -8.33301 -3.99902 -13c36 -1.33301 61 -9.16602 75 -23.499s21 -33.166 21 -56.499
c0 -16.667 -4.5 -31.334 -13.5 -44.001s-21.833 -22 -38.5 -28h1c-2.66699 -1.33301 -4.66699 -2 -6 -2c20 -14 30 -35.333 30 -64c0 -16.667 -4.83301 -31.5 -14.5 -44.5s-22.5 -22.5 -38.5 -28.5c-8 -3.33301 -16.333 -5.5 -25 -6.5s-18.667 -1.5 -30 -1.5h-40l-10.5 -43
c-3.66699 -14.667 -7.5 -29 -11.5 -43c-5.33301 -22 -12 -39.833 -20 -53.5s-16.833 -24 -26.5 -31s-20 -11.167 -31 -12.5s-22.5 0 -34.5 4h1c-26.667 7.33301 -44.667 22 -54 44c-11.333 -22.667 -25.333 -37.167 -42 -43.5s-34 -6.5 -52 -0.5h1
c-37.333 10.667 -57.666 35.667 -60.999 75c-0.666992 9.33301 -0.5 19.5 0.5 30.5s3.16699 22.167 6.5 33.5v-1l6.5 22.5c1.66699 5.66699 3.16699 11.5 4.5 17.5v1c-40 0.666992 -67 8 -81 22s-21 33.667 -21 59c0 22 4.5 38.833 13.5 50.5s22.167 20.167 39.5 25.5
c-9.33301 7.33301 -16 16.166 -20 26.499s-6 22.166 -6 35.499zM113.997 438.999c0 11.333 5.00098 18.8311 15.001 22.498s23.333 5.5 40 5.5h87l28 108c6 24.667 12.833 40.667 20.5 48s16.5 9.33301 26.5 6c13.333 -3.33301 20.666 -11.166 21.999 -23.499
s-0.333984 -28.166 -5.00098 -47.499l-25 -91h80l28 108c5.33301 24.667 12 40.667 20 48s17.333 9.33301 28 6c12.667 -3.33301 19.667 -11.166 21 -23.499s-0.666992 -28.166 -6 -47.499l-25 -91h57c20.667 0 35 -2.5 43 -7.5s12 -11.833 12 -20.5
c0 -11.333 -6 -19 -18 -23c-8 -3.33301 -20.333 -5 -37 -5h-70l-23 -82h66c20.667 0 35 -2.66699 43 -8s12 -12 12 -20c0 -11.333 -6 -19 -18 -23c-8 -3.33301 -20.333 -5 -37 -5h-80l-33 -126c-6 -24 -13.167 -39.833 -21.5 -47.5s-16.5 -9.83398 -24.5 -6.50098
c-14.667 3.33301 -22.334 12.333 -23.001 27c-1.33301 10 0.666992 24.667 6 44l28 109h-79l-33 -126c-5.33301 -24 -12.166 -39.833 -20.499 -47.5s-17.166 -9.83398 -26.499 -6.50098c-13.333 3.33301 -20.333 12.333 -21 27c-2.66699 10 -1 24.667 5 44l28 109h-62
c-21.333 0 -35.833 2.33301 -43.5 7s-11.5 11.667 -11.5 21c0 11.333 5 18.833 15 22.5s23.333 5.5 40 5.5h78l21 82h-72c-21.333 0 -35.833 2.5 -43.5 7.5s-11.5 11.833 -11.5 20.5zM285.998 328.997h80l21 82h-79zM88.998 438.997
c0 -17.333 5.50684 -30.499 16.5068 -39.499s32.167 -13.5 63.5 -13.5h40l-5.5 -19l-3.5 -12h-58c-24.667 0 -44.334 -3.66699 -59.001 -11s-22 -21.666 -22 -42.999c0 -17.333 5.66699 -30.5 17 -39.5s32.666 -13.5 63.999 -13.5h29
c-2 -9.33301 -3.83301 -16.833 -5.5 -22.5s-3 -11.167 -4 -16.5s-2.33301 -10.833 -4 -16.5s-3.5 -12.834 -5.5 -21.501v1c-7.33301 -21.333 -9.33301 -39.333 -6 -54c2 -25.333 15.667 -42 41 -50l-2 1c16.667 -5.33301 32 -3 46 7s25 31.667 33 65v-1l28 108h25
c-2 -9.33301 -3.83301 -16.833 -5.5 -22.5s-3 -11.167 -4 -16.5s-2.33301 -10.833 -4 -16.5s-3.5 -12.834 -5.5 -21.501v1c-6 -22 -7.66699 -40 -5 -54c2 -26 15.333 -42.667 40 -50l-2 1c16.667 -5.33301 32.167 -3 46.5 7s25.166 31.667 32.499 65v-1l28 108h61
c10 0 18.667 0.333008 26 1s13.666 2.33398 18.999 5.00098c23.333 8.66699 35 24.334 35 47.001c0 16 -5.66699 29 -17 39s-32.333 15 -63 15h-32c1.33301 8.66699 2.66602 14.834 3.99902 18.501s2.66602 7.83398 3.99902 12.501h51c19.333 0 34.666 2 45.999 6
c23.333 9.33301 35 25 35 47c0 16.667 -6 29.834 -18 39.501s-33 14.5 -63 14.5h-23c2 7.33301 3.5 13.166 4.5 17.499s2 8.33301 3 12s2.16699 7.66699 3.5 12s3 10.166 5 17.499v-1c4.66699 14.667 7 29.667 7 45c0 14 -3.33301 26.167 -10 36.5s-17 17.5 -31 21.5
c-17.333 4 -33 1.16699 -47 -8.5s-24.667 -31.167 -32 -64.5c-4 -14 -7.83301 -28.5 -11.5 -43.5s-7.5 -29.833 -11.5 -44.5h-27c2 7.33301 3.5 13.166 4.5 17.499s2 8.33301 3 12s2.16699 7.66699 3.5 12s3 10.166 5 17.499v-1c4.66699 14.667 7 29.667 7 45
c0 14 -3.33301 26.167 -10 36.5s-16.667 17.5 -30 21.5c-17.333 4 -33 1.16699 -47 -8.5s-25 -31.167 -33 -64.5c-3.33301 -14 -7 -28.5 -11 -43.5l-12 -44.5h-67c-24.667 0 -44.167 -3.33301 -58.5 -10s-21.5 -21.334 -21.5 -44.001zM328.005 385.998l27 -0.000976562
c-2 -9.33301 -3.5 -15.666 -4.5 -18.999l-3.5 -12h-28z" />
    <glyph glyph-name="dollar" unicode="$" horiz-adv-x="552" 
d="M273 733c21.333 0 40.3359 -5.66504 57.0029 -16.998s28.667 -27.333 36 -48c38 -12 68.333 -27.333 91 -46c29.333 -24.667 44 -54.334 44 -89.001c0 -28 -9.33301 -52 -28 -72s-42.334 -30 -71.001 -30c-16.667 0 -33.667 4.33301 -51 13l-82 40l-15 -11l6 -11l174 -83
c58 -37.333 87 -92.666 87 -165.999c0 -46.667 -13.667 -89.334 -41 -128.001s-63.333 -66.667 -108 -84c0 -28.667 -9.33301 -52.667 -28 -72s-42.334 -29 -71.001 -29s-52.5 9.16699 -71.5 27.5s-28.5 41.833 -28.5 70.5c-42 14 -75.667 33 -101 57
c-31.333 29.333 -47 63.666 -47 102.999c0 28 9.66699 51.333 29 70s43 28 71 28c19.333 0 38.666 -6.33301 57.999 -19c54 -36 83.667 -54.667 89 -56l20 6l8 14l-7 14l-169 81c-54.667 36 -82 90.333 -82 163c0 45.333 12.167 86.666 36.5 123.999s57.5 64.333 99.5 81
c6.66699 20.667 18.667 37.334 36 50.001s37 19 59 19zM76.0029 459.002c0 -57.333 22.001 -102.332 66.001 -134.999c18.667 -14 60 -34 124 -60c45.333 -18.667 68 -38.667 68 -60c0 -16 -6.16699 -28.5 -18.5 -37.5s-26.5 -13.5 -42.5 -13.5
c-21.333 0 -42 7.33301 -62 22c-44.667 32.667 -72.334 49 -83.001 49c-18.667 0 -35 -6.33301 -49 -19s-21 -28.667 -21 -48c0 -33.333 17 -63 51 -89c28 -22 60.667 -36.667 98 -44c0 -26.667 4 -47.334 12 -62.001c10.667 -19.333 28.667 -29 54 -29
c26 0 44.333 9.33301 55 28l12 66l110 69c24.667 27.333 37 66.333 37 117c0 58 -23 103.667 -69 137c-18 12.667 -60.667 33 -128 61c-46 18.667 -69 39 -69 61c0 12.667 4.66699 23 14 31s20.666 12 33.999 12c12.667 0 40.334 -11.667 83.001 -35
c19.333 -10.667 36.333 -16 51 -16c18 0 33.5 6.83301 46.5 20.5s19.5 29.834 19.5 48.501c0 28.667 -15.333 53.667 -46 75c-23.333 16 -51.666 28.333 -84.999 37c-2.66699 16 -10 29.167 -22 39.5s-26.333 15.5 -43 15.5c-17.333 0 -31.833 -5.16699 -43.5 -15.5
s-18.834 -24.5 -21.501 -42.5c-40 -8.66699 -72 -30.834 -96 -66.501s-36 -74.5 -36 -116.5zM273.004 667.003c5.33301 0 9.33301 -0.669922 12 -2.00293s7.33398 -4.33301 14.001 -9c5.33301 -14 8 -27.333 8 -40c25.333 -2.66699 51.666 -11 78.999 -25
c33.333 -17.333 50 -36.666 50 -57.999l-9 -24l-23 -10c-2.66699 0.666992 -29.667 13 -81 37c-20 9.33301 -37.333 14 -52 14c-22.667 0 -42.167 -7.16699 -58.5 -21.5s-24.5 -32.833 -24.5 -55.5c0 -34.667 23 -62.667 69 -84l128 -56c46.667 -28.667 70 -68.667 70 -120
c0 -49.333 -14.333 -85.333 -43 -108c-10 -8 -45 -25 -105 -51c0.666992 -11.333 1 -20.333 1 -27c0 -23.333 -3 -39.166 -9 -47.499s-14.667 -12.5 -26 -12.5c-13.333 0 -22.333 5.16699 -27 15.5s-7 23.833 -7 40.5v15.5c0 5 0.333008 9.83301 1 14.5
c-34 4 -65 13.667 -93 29c-37.333 20.667 -56 45.334 -56 74.001l10 25c4 2.66699 8.16699 5 12.5 7s8.83301 3 13.5 3c6 0 23.333 -11.667 52 -35s59.334 -35 92.001 -35c26 0 48.5 7.66699 67.5 23s28.5 36 28.5 62c0 33.333 -21.333 59.5 -64 78.5l-126 55.5
c-45.333 28 -68 67.667 -68 119c0 40.667 11.667 75 35 103s55.333 45.667 96 53c0 15.333 2.16699 27.833 6.5 37.5s13.166 14.5 26.499 14.5z" />
    <glyph glyph-name="percent" unicode="%" horiz-adv-x="917" 
d="M236 274c-54.667 0 -102.165 20.167 -142.498 60.5s-60.5 87.833 -60.5 142.5c0 55.333 20 103 60 143s87.667 60 143 60c61.333 0 110.666 -22.333 147.999 -67c35.333 -42 53 -95 53 -159l93 122c54.667 64 99 96 133 96c24 0 45.5 -9.5 64.5 -28.5
s28.5 -40.5 28.5 -64.5c0 -28.667 -26.667 -73.667 -80 -135l-54 -61c19.333 6 39 9 59 9c56 0 103.667 -19.667 143 -59s59 -87.333 59 -144c0 -55.333 -19.833 -102.833 -59.5 -142.5s-87.167 -59.5 -142.5 -59.5c-60.667 0 -109.5 21.833 -146.5 65.5
s-55.5 97.167 -55.5 160.5l-93 -122c-54.667 -64 -99 -96 -133 -96c-24.667 0 -46.334 9 -65.001 27s-28 39.667 -28 65c0 24.667 19.333 61 58 109l77 88c-21.333 -6.66699 -41 -10 -59 -10zM253.002 28c12.667 0 24.334 4.00098 35.001 12.001
c6 4.66699 14.667 13.667 26 27l380 455c11.333 12.667 19 23.5 23 32.5s6 17.167 6 24.5c0 15.333 -6 29 -18 41s-26 18 -42 18c-12 0 -22.833 -3.5 -32.5 -10.5s-19.167 -16.5 -28.5 -28.5l-122 -137c-72.667 -82.667 -135.334 -157 -188.001 -223
c-66 -82.667 -99 -133.334 -99 -152.001c0 -15.333 6 -29 18 -41s26 -18 42 -18zM511.002 189.001c0 -46.667 16.5 -86.5 49.5 -119.5s73.167 -49.5 120.5 -49.5c46.667 0 86.5 16.5 119.5 49.5s49.5 72.833 49.5 119.5s-16.5 86.5 -49.5 119.5s-72.833 49.5 -119.5 49.5
s-86.667 -16.333 -120 -49s-50 -72.667 -50 -120zM67.002 477.001c0 -46.667 16.5 -86.5 49.5 -119.5s72.833 -49.5 119.5 -49.5s86.5 16.5 119.5 49.5s49.5 72.833 49.5 119.5s-16.5 86.5 -49.5 119.5s-72.833 49.5 -119.5 49.5s-86.5 -16.5 -119.5 -49.5
s-49.5 -72.833 -49.5 -119.5zM236.002 70.001l-9 17.001c8 21.333 41.667 68.666 101 141.999c40.667 50.667 98 118 172 202c78 88.667 120.833 137.667 128.5 147s13 15.333 16 18s9.16699 5.66699 18.5 9l19 -8l8 -18c-8 -22 -41.667 -69.333 -101 -142l-172 -202
l-128 -146c-6 -6.66699 -11.5 -12.167 -16.5 -16.5s-11.5 -7.83301 -19.5 -10.5zM816.002 189.002c0 -37.333 -13.001 -69.333 -39.001 -96s-58 -40 -96 -40c-37.333 0 -69.5 13.167 -96.5 39.5s-40.5 58.5 -40.5 96.5c0 37.333 13.333 69.333 40 96s59 40 97 40
c36.667 0 68.334 -13.333 95.001 -40s40 -58.667 40 -96zM372.001 477.002c0 -37.333 -13.333 -69.333 -40 -96s-58.667 -40 -96 -40s-69.333 13.333 -96 40s-40 58.667 -40 96s13.333 69.333 40 96s58.667 40 96 40s69.333 -13.333 96 -40s40 -58.667 40 -96z
M618.001 189.002c0 -17.333 6.16699 -32.1641 18.5 -44.4971s27.166 -18.5 44.499 -18.5c18 0 32.833 6.16699 44.5 18.5s17.5 27.166 17.5 44.499s-5.83301 32.166 -17.5 44.499s-26.5 18.5 -44.5 18.5c-17.333 0 -32.166 -5.83301 -44.499 -17.5
s-18.5 -26.834 -18.5 -45.501zM173.001 477.004c0 -17.333 6.00098 -32 18.001 -44s27 -18 45 -18c17.333 0 32.166 5.83301 44.499 17.5s18.5 26.5 18.5 44.5s-6 33 -18 45s-27 18 -45 18s-33 -6 -45 -18s-18 -27 -18 -45zM710.002 189.004
c0 -8 -2.83398 -14.833 -8.50098 -20.5s-12.5 -8.5 -20.5 -8.5s-15 3 -21 9s-9 12.667 -9 20c0 8.66699 2.83301 15.834 8.5 21.501s12.834 8.5 21.501 8.5c8 0 14.833 -2.83301 20.5 -8.5s8.5 -12.834 8.5 -21.501zM265.001 477.004c0 -8 -2.83301 -14.833 -8.5 -20.5
s-12.5 -8.5 -20.5 -8.5s-14.833 2.83301 -20.5 8.5s-8.5 12.5 -8.5 20.5s2.83301 14.833 8.5 20.5s12.5 8.5 20.5 8.5s14.833 -2.83301 20.5 -8.5s8.5 -12.5 8.5 -20.5z" />
    <glyph glyph-name="ampersand" unicode="&#x26;" horiz-adv-x="611" 
d="M586 95c0 -30 -9.99805 -55.333 -29.998 -76s-45.333 -31 -76 -31c-26.667 0 -51 9 -73 27c-38.667 -21.333 -80.334 -32 -125.001 -32c-70 0 -128.167 22.833 -174.5 68.5s-69.5 103.5 -69.5 173.5c0 23.333 3 44.833 9 64.5s16.333 39.167 31 58.5
c-18.667 35.333 -28 71 -28 107c0 64 23.167 118.167 69.5 162.5s101.833 66.5 166.5 66.5c55.333 0 106.333 -16.667 153 -50c52 -36.667 78 -81.667 78 -135c0 -28 -9.83301 -52.833 -29.5 -74.5s-43.5 -32.5 -71.5 -32.5c-26.667 0 -50.667 10.333 -72 31
c-26.667 26 -46 41 -58 45l-18 -6l-7 -16c4 -10 20 -24.333 48 -43c23.333 -15.333 35 -36.333 35 -63c0 -29.333 -13.833 -53.166 -41.5 -71.499s-41.5 -32.833 -41.5 -43.5l8 -17l18 -7c18 4 41.667 28.333 71 73c27.333 42 60.666 63 99.999 63
c28 0 52.5 -9.83301 73.5 -29.5s31.5 -43.834 31.5 -72.501c0 -21.333 -5.33301 -42 -16 -62c26 -19.333 39 -45.333 39 -78zM530.002 235c0 19.333 -6.99805 35.668 -20.998 49.001s-31 20 -51 20c-24.667 0 -59 -31 -103 -93c-20.667 -29.333 -43.334 -44 -68.001 -44
c-15.333 0 -29 5.66699 -41 17s-18 25 -18 41c0 20.667 8.66699 37.667 26 51c38 30 57 51 57 63c0 16.667 -13.833 33.5 -41.5 50.5s-41.5 35.833 -41.5 56.5c0 15.333 5.66699 28.333 17 39s25 16 41 16s42 -17 78 -51c18 -16.667 35.333 -25 52 -25
c19.333 0 35.333 7.33301 48 22s19 32 19 52c0 43.333 -22.333 80.333 -67 111c-40 27.333 -83.333 41 -130 41c-55.333 0 -103 -19 -143 -57s-60 -84.333 -60 -139c0 -19.333 2.83301 -37.833 8.5 -55.5s14.167 -35.834 25.5 -54.501c-14.667 -18 -25.834 -37 -33.501 -57
s-11.5 -41 -11.5 -63c0 -60 20 -109.667 60 -149s90 -59 150 -59c45.333 0 87.666 12.333 126.999 37c15.333 -10.667 26.333 -18 33 -22c13.333 -7.33301 26 -11 38 -11c20.667 0 38 7.33301 52 22s21 32 21 52c0 15.333 -4.66699 29 -14 41
c-5.33301 6.66699 -16.666 16.334 -33.999 29.001c9.33301 17.333 15 28.666 17 33.999c5.33301 12.667 8 24.667 8 36zM521.004 95.002c0 -11.333 -3.83594 -20.833 -11.5029 -28.5s-17.5 -11.5 -29.5 -11.5s-27.667 7.33301 -47 22c-12.667 10.667 -21 17.334 -25 20.001
c-35.333 -31.333 -77.333 -47 -126 -47c-51.333 0 -93.666 16.333 -126.999 49s-50 75 -50 127c0 49.333 20 88 60 116c-32 30.667 -48 68.334 -48 113.001c0 46 16.667 84.5 50 115.5s73.333 46.5 120 46.5c34.667 0 69.334 -10.667 104.001 -32
c39.333 -24.667 59 -53.334 59 -86.001c0 -10.667 -3.16699 -20.167 -9.5 -28.5s-14.833 -12.5 -25.5 -12.5c-8 0 -24.833 12.833 -50.5 38.5s-51.834 38.5 -78.501 38.5c-24.667 0 -46 -8.66699 -64 -26s-27 -38.333 -27 -63c0 -23.333 7.33301 -43 22 -59l61 -49
c-24.667 -16 -44.667 -32.333 -60 -49s-23 -38 -23 -64c0 -25.333 8.83301 -46.833 26.5 -64.5s39.5 -26.5 65.5 -26.5c36.667 0 70.834 22.833 102.501 68.5s54.167 68.5 67.5 68.5c10.667 0 20 -3.33301 28 -10s12 -15.334 12 -26.001c0 -12 -4.33301 -25.667 -13 -41
c-4 -7.33301 -12.667 -19.666 -26 -36.999c26.667 -18.667 42.334 -30.334 47.001 -35.001c10.667 -10 16 -19 16 -27z" />
    <glyph glyph-name="quotesingle" unicode="'" horiz-adv-x="287" 
d="M143 682c26.667 0 49.667 -8.99902 69 -26.999s29 -40 29 -66c0 -23.333 -11.667 -59.833 -35 -109.5s-44 -74.5 -62 -74.5c-18.667 0 -39.667 24.5 -63 73.5s-35 85.833 -35 110.5c0 27.333 9.33301 49.666 28 66.999s41.667 26 69 26zM208 589.001
c0 18 -6.33301 32.332 -19 42.999s-28 16 -46 16c-17.333 0 -32.333 -5.33301 -45 -16s-19 -25 -19 -43c0 -16.667 8.5 -43.667 25.5 -81s30.167 -58.666 39.5 -63.999c8 5.33301 20.667 26.833 38 64.5s26 64.5 26 80.5zM143 615c9.33301 0 16.833 -2.5 22.5 -7.5
s8.5 -12.167 8.5 -21.5c0 -8.66699 -4 -22.5 -12 -41.5s-14 -28.5 -18 -28.5s-10.333 9.66699 -19 29s-13 33.333 -13 42c0 8 3 14.667 9 20s13.333 8 22 8z" />
    <glyph glyph-name="parenleft" unicode="(" 
d="M359 756c28.667 0 53.833 -10.168 75.5 -30.501s32.5 -45.166 32.5 -74.499c0 -26 -14.333 -54.333 -43 -85c-49.333 -52.667 -76.666 -82.667 -81.999 -90c-29.333 -42.667 -44 -90.334 -44 -143.001c0 -53.333 14.333 -100.666 43 -141.999
c5.33301 -7.33301 32.666 -37.333 81.999 -90c29.333 -31.333 44 -59.666 44 -84.999c0 -29.333 -10.667 -54.333 -32 -75s-46.666 -31 -75.999 -31c-72.667 0 -139.334 53.667 -200.001 161c-54 95.333 -81 182.666 -81 261.999c0 80 26.667 167.333 80 262
c60.667 107.333 127.667 161 201 161zM358.999 -57.001c20 0 37.5 7.16699 52.5 21.5s22.5 31.5 22.5 51.5c0 16.667 -14.333 40 -43 70c-42 44 -69.333 76 -82 96c-29.333 46.667 -44 97 -44 151c0 60 18.5 115.167 55.5 165.5l113.5 152.5
c0 19.333 -7.5 36.166 -22.5 50.499s-32.5 21.5 -52.5 21.5c-62.667 0 -121 -50.333 -175 -151c-48 -89.333 -72 -169 -72 -239c0 -69.333 24 -148.666 72 -237.999c54.667 -101.333 113 -152 175 -152zM358.999 689.999c10.667 0 20.167 -3.83203 28.5 -11.499
s12.5 -16.834 12.5 -27.501c-44 -44 -82.333 -91.333 -115 -142c-36 -55.333 -54 -114 -54 -176c0 -61.333 17.667 -119.333 53 -174l116 -143c0 -10 -4.33301 -19 -13 -27s-18 -12 -28 -12c-52 0 -102 47 -150 141c-42.667 84 -64 155.667 -64 215
c0 57.333 21.333 128.333 64 213c48.667 96 98.667 144 150 144z" />
    <glyph glyph-name="parenright" unicode=")" 
d="M141 -90c-28.667 0 -53.832 10.501 -75.499 31.501s-32.5 45.833 -32.5 74.5c0 26 14.333 54.333 43 85c50.667 54.667 78 84.667 82 90c29.333 42.667 44 90 44 142c0 53.333 -14.333 100.666 -43 141.999c-5.33301 7.33301 -32.666 37.333 -81.999 90
c-29.333 31.333 -44 60 -44 86c0 28.667 10.667 53.334 32 74.001s46.666 31 75.999 31c73.333 0 140 -53.333 200 -160c53.333 -94.667 80 -182.334 80 -263.001c0 -78.667 -26.667 -165.667 -80 -261c-60.667 -108 -127.334 -162 -200.001 -162zM141.002 723.001
c-19.333 0 -36.665 -7.00195 -51.998 -21.002s-23 -31 -23 -51c0 -16.667 14.333 -40 43 -70c41.333 -43.333 68.666 -75.666 81.999 -96.999c29.333 -46.667 44 -97 44 -151c0 -55.333 -14.333 -105.666 -43 -150.999c-12.667 -20 -40 -51.667 -82 -95
c-29.333 -30 -44 -53.667 -44 -71c0 -19.333 7.66699 -36.333 23 -51s32.666 -22 51.999 -22c62 0 120.333 51 175 153c48 90 72 169 72 237c0 71.333 -23.667 151 -71 239c-54 100.667 -112.667 151 -176 151zM141.003 -23.001c-10.667 0 -20.168 3.83203 -28.501 11.499
s-12.5 16.834 -12.5 27.501c43.333 43.333 81.333 90 114 140c36 55.333 54 114.333 54 177c0 64 -17.333 122.667 -52 176l-116 142c0 11.333 4 20.666 12 27.999s17.667 11 29 11c50.667 0 100.334 -47.667 149.001 -143c43.333 -85.333 65 -156.666 65 -213.999
c0 -58 -21.333 -129 -64 -213c-48.667 -95.333 -98.667 -143 -150 -143z" />
    <glyph glyph-name="asterisk" unicode="*" horiz-adv-x="409" 
d="M340 440c0 -22.667 -8.49805 -41.333 -25.498 -56s-37.167 -22 -60.5 -22c-20 0 -36 6 -48 18c-7.33301 -6 -15.333 -10.833 -24 -14.5s-17.334 -5.5 -26.001 -5.5c-21.333 0 -40.5 7.83301 -57.5 23.5s-25.5 34.167 -25.5 55.5c0 10.667 2.66699 22 8 34
c-27.333 14 -41 35.333 -41 64c0 25.333 8.16699 46.666 24.5 63.999s36.833 24.666 61.5 21.999c12 39.333 38.333 59 79 59c19.333 0 36.166 -5.16699 50.499 -15.5s23.166 -24.833 26.499 -43.5l12 1c22.667 0 40.834 -8.66699 54.501 -26s20.5 -37.666 20.5 -60.999
c0 -31.333 -12.333 -52.666 -37 -63.999c5.33301 -10.667 8 -21.667 8 -33zM334.002 539.001c0 14.667 -4.33203 26.668 -12.999 36.001s-20 14 -34 14c-8.66699 0 -19.667 -2 -33 -6c0 20.667 -3 36 -9 46c-8 13.333 -21.667 20 -41 20c-18.667 0 -31.667 -6 -39 -18
s-11 -28 -11 -48c-4 1.33301 -9.5 2.66602 -16.5 3.99902s-12.833 2 -17.5 2c-10 0 -18.667 -3 -26 -9c-13.333 -10.667 -20 -24.667 -20 -42c0 -14 5 -25.333 15 -34c6 -5.33301 17.667 -11 35 -17c-4 -6 -7.83301 -13 -11.5 -21s-5.5 -15.333 -5.5 -22
c0 -13.333 5 -24.666 15 -33.999s21.667 -14 35 -14c9.33301 0 18 3 26 9s15.333 13.667 22 23c10 -10.667 17 -17.667 21 -21c10 -8 19.333 -12 28 -12c14 0 26.167 4.83301 36.5 14.5s15.5 21.167 15.5 34.5c0 6 -0.833008 11.333 -2.5 16s-6.83398 13.667 -15.501 27
c15.333 7.33301 24 11.666 26 12.999c13.333 8.66699 20 21.667 20 39zM285.003 562.002c5.33301 0 10 -2.00098 14 -6.00098s6 -8.66699 6 -14c0 -9.33301 -9.66699 -18 -29 -26c-22 -6.66699 -34.667 -10.667 -38 -12c8.66699 -10 15.667 -18.667 21 -26
c11.333 -15.333 17 -26 17 -32c0 -4.66699 -2 -9 -6 -13s-8.33301 -6 -13 -6c-7.33301 0 -17.333 8 -30 24l-22 30l-18 -30c-11.333 -16.667 -21 -25 -29 -25c-5.33301 0 -10.166 1.83301 -14.499 5.5s-6.5 8.16699 -6.5 13.5c0 4.66699 5.66699 15.5 17 32.5
s17.333 25.833 18 26.5l-37 10c-20.667 7.33301 -31 15.666 -31 24.999c0 12.667 6.33301 19 19 19c7.33301 0 16.833 -1.83301 28.5 -5.5l33.5 -10.5c0 2.66699 -0.333008 8 -1 16s-1 13.333 -1 16c0 12.667 1.5 23.167 4.5 31.5s8.83301 12.5 17.5 12.5
s14.5 -3.83301 17.5 -11.5s4.5 -17.5 4.5 -29.5c0 -5.33301 -0.333008 -12.166 -1 -20.499s-1 -13.166 -1 -14.499l35 13.5c11.333 4.33301 19.666 6.5 24.999 6.5z" />
    <glyph glyph-name="plus" unicode="+" horiz-adv-x="600" 
d="M299 638c16.667 0 30.335 -2.5 41.002 -7.5s19 -12.167 25 -21.5s10.167 -20.666 12.5 -33.999s3.5 -28.333 3.5 -45l1 -97h97c41.333 0 69.666 -7.33301 84.999 -22s23 -34.334 23 -59.001c0 -16.667 -4.5 -31.5 -13.5 -44.5s-21.833 -22.5 -38.5 -28.5h1
c-7.33301 -2.66699 -15.333 -4.66699 -24 -6s-19.667 -2 -33 -2h-97v-34c0 -10.667 0.166992 -21.334 0.5 -32.001s0.5 -21.334 0.5 -32.001c0 -41.333 -7 -69.666 -21 -84.999s-33.667 -23 -59 -23c-16 0 -30.167 3.66699 -42.5 11s-21.833 19.333 -28.5 36
c-7.33301 16.667 -11 37 -11 61l-1 98h-97c-21.333 0 -39 1.83301 -53 5.5s-25 8.83398 -33 15.501s-13.667 15 -17 25s-5 21.667 -5 35c0 33.333 9.66699 55.166 29 65.499s45.666 15.5 78.999 15.5h97c0 5.33301 -0.166992 10.833 -0.5 16.5s-0.5 11.5 -0.5 17.5v63
c0 42.667 6.66699 71.334 20 86.001s33.333 22 60 22zM299.001 585c12 0 19.835 -4.99902 23.502 -14.999s5.5 -23.333 5.5 -40l1 -151h150c20.667 0 35 -2.33301 43 -7s12 -11.334 12 -20.001c0 -12 -5.66699 -19.667 -17 -23c-8 -4 -20.667 -6 -38 -6h-150l1 -150
c0 -20.667 -2.33301 -34.834 -7 -42.501s-11.334 -11.5 -20.001 -11.5c-12 0 -19.667 5.66699 -23 17c-4 8 -6 20.333 -6 37l-1 150h-150c-21.333 0 -35.833 2.5 -43.5 7.5s-11.5 12.167 -11.5 21.5c0 10.667 4.83301 17.834 14.5 21.501s23.167 5.5 40.5 5.5h150l-1 151
c0 21.333 2.16699 35.833 6.5 43.5s11.166 11.5 20.499 11.5zM299.003 611.001c-17.333 0 -30.335 -5.50684 -39.002 -16.5068s-13 -32.5 -13 -64.5c0 -21.333 0.166992 -42.166 0.5 -62.499s0.5 -41.166 0.5 -62.499h-125c-25.333 0 -45.166 -3.33301 -59.499 -10
s-21.5 -21 -21.5 -43c0 -17.333 5.5 -30.666 16.5 -39.999s32.5 -14 64.5 -14h125v-125c0 -20 3.33301 -36.667 10 -50c4 -11.333 9.83301 -19.166 17.5 -23.499s16.834 -6.5 27.501 -6.5c16.667 0 29.5 5.66699 38.5 17s13.5 32.333 13.5 63
c0 21.333 -0.166992 42.333 -0.5 63s-0.5 41.334 -0.5 62.001h125c20.667 0 36 2.33301 46 7c23.333 8.66699 35 24.334 35 47.001c0 16 -5.83301 28.833 -17.5 38.5s-32.834 14.5 -63.501 14.5h-125l-1 125c0 24.667 -3.66699 44.334 -11 59.001s-21.666 22 -42.999 22z
" />
    <glyph glyph-name="comma" unicode="," horiz-adv-x="287" 
d="M36 104c0 30.667 10.001 55.999 30.001 75.999s45.667 30 77 30c30 0 55.5 -9.83301 76.5 -29.5s31.5 -44.5 31.5 -74.5c0 -34.667 -11.667 -71.667 -35 -111c-26.667 -44.667 -56.334 -67 -89.001 -67c-23.333 0 -43.333 7.16699 -60 21.5s-25 32.833 -25 55.5
c0 14 3.66699 27.333 11 40c-11.333 18.667 -17 38.334 -17 59.001zM76.001 4.99902c0 -13.333 5.00098 -24 15.001 -32s22 -12 36 -12c21.333 0 42.333 19.333 63 58c18.667 34.667 28 63.667 28 87c0 20.667 -7.33301 37.667 -22 51s-32.334 20 -53.001 20
c-21.333 0 -39 -6.66699 -53 -20s-21 -31 -21 -53c0 -10.667 1.66699 -20.167 5 -28.5s9 -18.166 17 -29.499c-4 -5.33301 -7.5 -11.833 -10.5 -19.5s-4.5 -14.834 -4.5 -21.501zM103.002 103.999c0 11.333 3.66797 21.001 11.001 29.001s17 12 29 12s22 -3.33301 30 -10
s12 -16.334 12 -29.001c0 -14.667 -7.33301 -37.167 -22 -67.5s-27.334 -45.5 -38.001 -45.5c-12 0 -18 5.66699 -18 17c0 5.33301 3.33301 15 10 29l14 28c-18.667 6.66699 -28 19 -28 37z" />
    <glyph glyph-name="hyphen" unicode="-" horiz-adv-x="424" 
d="M266 367c37.333 0 66.332 -7.00098 86.999 -21.001c25.333 -17.333 38 -43.666 38 -78.999c0 -34 -12 -59.667 -36 -77c-21.333 -15.333 -49.666 -23 -84.999 -23h-117c-34.667 0 -62.667 7.66699 -84 23c-24 17.333 -36 43 -36 77c0 35.333 11.833 60.833 35.5 76.5
s53.5 23.5 89.5 23.5h108zM265.999 200.999c26.667 0 47.333 4 62 12c19.333 10.667 29 28.667 29 54c0 26 -9.33301 44.333 -28 55c-14 8 -35 12 -63 12h-108c-36 0 -61 -6.66699 -75 -20c-10.667 -10 -16 -25.667 -16 -47c0 -25.333 9.33301 -43.333 28 -54
c14.667 -8 35.667 -12 63 -12h108zM265.998 299.999c20 0 33.001 -1.00195 39.001 -3.00195c12.667 -4.66699 19 -14.667 19 -30c0 -14 -4.83301 -23 -14.5 -27s-22.834 -6 -39.501 -6h-116c-17.333 0 -29.333 1.33301 -36 4c-12 4.66699 -18 14.334 -18 29.001
s5.16699 23.834 15.5 27.501s24.5 5.5 42.5 5.5h108z" />
    <glyph glyph-name="period" unicode="." horiz-adv-x="287" 
d="M251 103c0 -29.333 -10.668 -54.667 -32.001 -76s-46.666 -32 -75.999 -32s-54.5 10.5 -75.5 31.5s-31.5 46.5 -31.5 76.5c0 29.333 10.5 54.5 31.5 75.5s46.167 31.5 75.5 31.5c30 0 55.5 -10.5 76.5 -31.5s31.5 -46.167 31.5 -75.5zM68.999 102.999
c0 -20.667 7 -38.332 21 -52.999s31.667 -22 53 -22s39.166 7.16699 53.499 21.5s21.5 32.166 21.5 53.499c0 20.667 -7.16699 38.167 -21.5 52.5s-32.166 21.5 -53.499 21.5c-20.667 0 -38.167 -7.16699 -52.5 -21.5s-21.5 -31.833 -21.5 -52.5zM183.999 103.001
c0 -11.333 -4 -21 -12 -29s-17.667 -12 -29 -12s-20.833 3.83301 -28.5 11.5s-11.5 17.5 -11.5 29.5c0 11.333 3.66699 21 11 29s17 12 29 12c11.333 0 21 -4 29 -12s12 -17.667 12 -29z" />
    <glyph glyph-name="slash" unicode="/" horiz-adv-x="573" 
d="M7 1c0 26.667 28.335 92.333 85.002 197c35.333 65.333 92 162.833 170 292.5s117.667 195.834 119 198.501c13.333 22 25.666 38 36.999 48c15.333 13.333 33.666 20 54.999 20c25.333 0 47.333 -9 66 -27s28 -39.667 28 -65c0 -26 -28.667 -91.667 -86 -197
c-40.667 -74.667 -97.334 -172.334 -170.001 -293.001l-119 -197c-12 -21.333 -24 -37.333 -36 -48c-15.333 -13.333 -33.666 -20 -54.999 -20c-25.333 0 -47.333 8.66699 -66 26s-28 39 -28 65zM101.002 -57.001c14.667 0 27.333 5.33105 38 15.998
c6.66699 6.66699 14.667 18.334 24 35.001l113 192l170 297c58.667 106.667 88 167.334 88 182.001c0 16 -6 29.667 -18 41s-26.333 17 -43 17c-10.667 0 -21 -3.33301 -31 -10s-20.667 -20 -32 -40l-115 -194l-168 -292c-58 -106 -87 -168 -87 -186
c0 -15.333 6.16699 -28.833 18.5 -40.5s26.5 -17.5 42.5 -17.5zM82.001 -16.0029l-8.99902 17.002c8 31.333 38.333 94 91 188l155 266l120 201c6 11.333 10.667 18.833 14 22.5s10 7.5 20 11.5l19 -7l8 -18c-3.33301 -12.667 -8.33301 -24.334 -15 -35.001l-351 -620
c-4.66699 -8.66699 -8 -14.334 -10 -17.001c-4.66699 -6 -12.334 -11.333 -23.001 -16z" />
    <glyph glyph-name="zero" unicode="0" horiz-adv-x="763" 
d="M730 333c0 -96 -33.999 -178 -101.999 -246s-150.333 -102 -247 -102c-96 0 -178 34 -246 102s-102 150 -102 246s34.167 178.167 102.5 246.5s150.166 102.5 245.499 102.5c96 0 178.167 -34.167 246.5 -102.5s102.5 -150.5 102.5 -246.5zM67.001 333
c0 -86.667 30.666 -160.667 91.999 -222s135.333 -92 222 -92c86 0 160 30.667 222 92s93 135.333 93 222c0 87.333 -30.667 161.666 -92 222.999s-135.666 92 -222.999 92c-86.667 0 -160.667 -30.667 -222 -92s-92 -135.666 -92 -222.999zM663 333
c0 -78 -27.332 -144.333 -81.999 -199s-121.334 -82 -200.001 -82c-78 0 -144.333 27.333 -199 82s-82 121 -82 199s27.5 144.5 82.5 199.5s121.167 82.5 198.5 82.5c78 0 144.5 -27.5 199.5 -82.5s82.5 -121.5 82.5 -199.5zM187.001 333
c0 -53.333 18.833 -99.166 56.5 -137.499s83.5 -57.5 137.5 -57.5s100.167 19.167 138.5 57.5s57.5 84.166 57.5 137.499c0 54 -19 100 -57 138s-84.333 57 -139 57c-53.333 0 -99 -19 -137 -57s-57 -84 -57 -138zM543.001 333c0 -44 -15.668 -82 -47.001 -114
s-69.666 -48 -114.999 -48c-44.667 0 -82.667 15.667 -114 47s-47 69.666 -47 114.999c0 44 15.667 82 47 114s69.333 48 114 48c44 0 82 -15.667 114 -47s48 -69.666 48 -114.999zM253 333c0 -35.333 12.501 -65.5 37.501 -90.5s55.167 -37.5 90.5 -37.5
s65.666 12.333 90.999 37s38 55 38 91c0 35.333 -12.5 65.5 -37.5 90.5s-55.5 37.5 -91.5 37.5c-35.333 0 -65.5 -12.5 -90.5 -37.5s-37.5 -55.167 -37.5 -90.5z" />
    <glyph glyph-name="one" unicode="1" horiz-adv-x="370" 
d="M17 566c0 40.667 15 68.667 45 84c22 11.333 55 17 99 17c50.667 0 87 -10.667 109 -32s33 -57.333 33 -108v-400c0 -38 -8.33301 -68.667 -25 -92c-19.333 -26.667 -47.666 -40 -84.999 -40c-38.667 0 -67.334 13.667 -86.001 41c-16 23.333 -24 55.333 -24 96v341
c-20 7.33301 -36 19.333 -48 36s-18 35.667 -18 57zM117 132c0 -30.667 4.66602 -54.332 13.999 -70.999c12.667 -22 33.334 -33 62.001 -33c28 0 48.333 10 61 30c10.667 16.667 16 39.667 16 69v404c0 44 -11 73 -33 87c-16 10 -48 15 -96 15c-36 0 -61 -6.66699 -75 -20
c-10.667 -10 -16 -25.667 -16 -47c0 -18.667 6.16699 -33.834 18.5 -45.501s28.5 -18.5 48.5 -20.5v-368zM82.999 566.002c0 15.333 5 24.8301 15 28.4971s24.333 5.5 43 5.5h23c30 0 49.667 -4.16699 59 -12.5s14 -27.166 14 -56.499v-403
c0 -25.333 -3.83301 -42.666 -11.5 -51.999s-18.5 -14 -32.5 -14c-18.667 0 -30.5 6.33301 -35.5 19s-7.5 29.667 -7.5 51v401h-14c-18 0 -30 1.33301 -36 4c-11.333 4.66699 -17 14.334 -17 29.001z" />
    <glyph glyph-name="two" unicode="2" horiz-adv-x="561" 
d="M516 106c0 -37.333 -13.3311 -65.001 -39.998 -83.001c-22.667 -15.333 -53.334 -23 -92.001 -23h-195c-44 0 -77.333 5.66699 -100 17c-32.667 16 -49 44 -49 84c0 28.667 21 66.667 63 114c7.33301 8 47 48.667 119 122c45.333 46 70 79.333 74 100l-8 19l-20 7
c-12 -3.33301 -29.333 -18.666 -52 -45.999c-20 -24 -46 -36 -78 -36c-30 0 -55.167 10.5 -75.5 31.5s-30.5 46.833 -30.5 77.5c0 54.667 26 101.334 78 140.001c47.333 35.333 99.666 53 156.999 53c70.667 0 129.834 -24.167 177.501 -72.5s71.5 -107.833 71.5 -178.5
c0 -50.667 -18.333 -99.334 -55 -146.001c-12 -15.333 -33.667 -39.666 -65 -72.999c53.333 -11.333 86.666 -24.333 99.999 -39s20 -37.334 20 -68.001zM483.002 431.999c0 60.667 -20.667 111.999 -62 153.999s-92.666 63 -153.999 63
c-47.333 0 -91.666 -14.333 -132.999 -43c-46 -32 -69 -71 -69 -117c0 -21.333 6.66699 -39 20 -53s31 -21 53 -21c24 0 46.667 13.667 68 41s42 41 62 41c16.667 0 31 -5.66699 43 -17s18 -25.666 18 -42.999c0 -23.333 -22 -58.333 -66 -105l-122 -124
c-44.667 -48 -67 -83.667 -67 -107c0 -29.333 13 -49 39 -59c15.333 -6 40.666 -9 75.999 -9h195c29.333 0 52 4.66699 68 14c20.667 12 31 31.667 31 59c0 24 -7.33301 42 -22 54c-18 14.667 -50 22 -96 22c-8.66699 0 -16.834 -0.166992 -24.501 -0.5
s-15.167 -0.5 -22.5 -0.5c69.333 71.333 105 108.333 107 111c38.667 48 58 94.667 58 140zM450.002 105.998c0 -16.667 -7.33301 -28.001 -22 -34.001c-8.66699 -3.33301 -23.334 -5 -44.001 -5h-201c-23.333 0 -39 1 -47 3c-19.333 4.66699 -29 15 -29 31s22 46.333 66 91
c71.333 72 112 113.667 122 125c44.667 50.667 67 90.667 67 120c0 26 -9 48 -27 66s-40.333 27 -67 27c-30 0 -56 -13.667 -78 -41s-39.333 -41 -52 -41c-12 0 -21.667 4 -29 12s-11 17.667 -11 29c0 35.333 19.667 66 59 92c35.333 23.333 72 35 110 35
c52.667 0 96.334 -17.667 131.001 -53s52 -79 52 -131c0 -48.667 -40 -114.667 -120 -198l-87 -88c6 0 21.5 0.833008 46.5 2.5s42.167 2.5 51.5 2.5c33.333 0 59.833 -3.16699 79.5 -9.5s29.5 -18.166 29.5 -35.499z" />
    <glyph glyph-name="three" unicode="3" horiz-adv-x="527" 
d="M494 227c0 -68.667 -23.332 -126.666 -69.999 -173.999s-104.334 -71 -173.001 -71c-58.667 0 -112 18 -160 54c-52 39.333 -78 87.333 -78 144c0 29.333 10.667 54.666 32 75.999s47 32 77 32c31.333 0 57.333 -13 78 -39c24.667 -31.333 41.667 -48.333 51 -51l19 8
l8 20c-4.66699 14.667 -20.667 31.667 -48 51c-24 16.667 -36 38.334 -36 65.001c0 25.333 11.667 45.666 35 60.999c28 18 43.667 33 47 45l-7 17l-18 6c-13.333 -3.33301 -30.833 -16.833 -52.5 -40.5s-46.5 -35.5 -74.5 -35.5c-30 0 -55.333 10 -76 30s-31 45 -31 75
c0 52 25.333 96.667 76 134c46.667 34 97 51 151 51c66.667 0 123.5 -22.5 170.5 -67.5s70.5 -100.833 70.5 -167.5c0 -36 -9.33301 -71 -28 -105c12 -16 21.167 -34.333 27.5 -55s9.5 -41.667 9.5 -63zM452.001 450.001c0 57.333 -20.166 105.167 -60.499 143.5
s-89.5 57.5 -147.5 57.5c-45.333 0 -87.666 -13.333 -126.999 -40c-44.667 -30.667 -67 -67.667 -67 -111c0 -20 7 -37 21 -51s31.667 -21 53 -21c18.667 0 35.667 8 51 24c34 34.667 59.333 52 76 52c16 0 29.833 -5.16699 41.5 -15.5s17.5 -23.833 17.5 -40.5
c0 -22 -13.667 -41.333 -41 -58s-41 -32.667 -41 -48c0 -17.333 13.833 -35.166 41.5 -53.499s41.5 -39.166 41.5 -62.499c0 -16.667 -5.83301 -31.167 -17.5 -43.5s-25.834 -18.5 -42.501 -18.5c-18 0 -43.333 20.667 -76 62c-15.333 19.333 -33 29 -53 29
c-20.667 0 -38.334 -7.33301 -53.001 -22s-22 -32.667 -22 -54c0 -46.667 22.667 -86.334 68 -119.001c40.667 -29.333 86 -44 136 -44c59.333 0 109 20.333 149 61s60 90.667 60 150c0 43.333 -14.333 81.666 -43 114.999c23.333 35.333 35 71.333 35 108zM427.002 227.002
c0 -50 -16.833 -92.166 -50.5 -126.499s-75.5 -51.5 -125.5 -51.5c-39.333 0 -76.333 11.333 -111 34c-40 26 -60 57.667 -60 95c0 11.333 3.66699 21.333 11 30s17 13 29 13c10.667 0 27.667 -15 51 -45s50 -45 80 -45c25.333 0 47.333 9.33301 66 28s28 41 28 67
c0 31.333 -13 57 -39 77c-29.333 22.667 -44.333 35 -45 37l3 8c32.667 21.333 51 34 55 38c16 15.333 24 36 24 62s-8.83301 47.5 -26.5 64.5s-39.5 25.5 -65.5 25.5c-29.333 0 -55.5 -12.833 -78.5 -38.5s-39.5 -38.5 -49.5 -38.5c-12 0 -21.667 3.66699 -29 11
s-11 16.666 -11 27.999c0 33.333 19 62 57 86c33.333 21.333 68 32 104 32c48.667 0 90 -15.667 124 -47s51 -71.333 51 -120c0 -21.333 -4.16699 -41 -12.5 -59s-20.5 -35 -36.5 -51c38 -28 57 -66 57 -114z" />
    <glyph glyph-name="four" unicode="4" horiz-adv-x="606" 
d="M385 -5c-38.667 0 -66.6699 14.0049 -84.0029 42.0049c-14.667 23.333 -22 55.666 -22 96.999c-10 0 -20 -0.166992 -30 -0.5s-20.333 -0.5 -31 -0.5c-55.333 0 -96.666 6 -123.999 18c-40.667 18 -61 50.333 -61 97c0 23.333 7.66699 49.666 23 78.999
c4 8 12.667 22.333 26 43l139 215c24.667 39.333 44.834 62.833 60.501 70.5s47.5 11.5 95.5 11.5s81.667 -15.667 101 -47c15.333 -24.667 23 -61.667 23 -111c0 -18 -1 -39.667 -3 -65c-4.66699 -58.667 -7 -93.334 -7 -104.001c28 0 51.167 -9.83301 69.5 -29.5
s27.5 -44.167 27.5 -73.5c0 -28.667 -9 -52.334 -27 -71.001s-41.333 -29.334 -70 -32.001c0 -41.333 -7 -73.333 -21 -96c-17.333 -28.667 -45.666 -43 -84.999 -43zM554.997 237.005c0 26.667 -9.16699 45.501 -27.5 56.501s-41.833 16.5 -70.5 16.5v233
c0 42 -6 67.5 -18 76.5s-40.333 13.5 -85 13.5c-37.333 0 -62.333 -6.66699 -75 -20c-2 -2.66699 -12 -18 -30 -46l-139 -215c-16.667 -26.667 -26.334 -43 -29.001 -49c-10 -20 -15 -38.333 -15 -55c0 -32.667 16.667 -55.667 50 -69c25.333 -10 60.333 -15 105 -15
c18.667 0 35.167 0.333008 49.5 1l41.5 2v-29c0 -34.667 3.33301 -59.334 10 -74.001c10.667 -24 31.667 -36 63 -36c30.667 0 51.334 12 62.001 36c6.66699 15.333 10 40.333 10 75v26c28.667 0 51 4.66699 67 14c20.667 12 31 31.333 31 58zM99.9971 248.006
c0 17.333 15.334 51.998 46.001 103.998c22 38 53 86 93 144c31.333 45.333 54 77 68 95c6 3.33301 13.333 5.66602 22 6.99902s17.667 2 27 2h22c15.333 0 28.333 -1.66699 39 -5c4 -6.66699 6.66699 -22.167 8 -46.5s2 -55.166 2 -92.499
c0 -40.667 -0.333008 -75.167 -1 -103.5s-1.33398 -54.166 -2.00098 -77.499c14 0.666992 25.333 1 34 1c20 0 35.5 -2.5 46.5 -7.5s16.5 -15.5 16.5 -31.5c0 -15.333 -5.5 -25.333 -16.5 -30s-26.167 -7 -45.5 -7h-18.5c-5.66699 0 -11.167 0.333008 -16.5 1
c0 -10.667 0.333008 -21.167 1 -31.5s1.33398 -19.833 2.00098 -28.5c0 -24 -2.33301 -42 -7 -54c-6.66699 -16.667 -18.334 -25 -35.001 -25c-16 0 -27.167 7.33301 -33.5 22s-9.5 33.667 -9.5 57c0 12.667 0.333008 23.667 1 33l2 27
c-9.33301 -1.33301 -23.5 -2.66602 -42.5 -3.99902s-39.5 -2 -61.5 -2c-40.667 0 -72.667 3.33301 -96 10c-30 8.66699 -45 23 -45 43zM183.998 275.004h161v251zM311.998 309.004h-67l67 104v-104z" />
    <glyph glyph-name="five" unicode="5" horiz-adv-x="546" 
d="M285 456l5 -0.00195312c19.333 0 37.166 -1.16699 53.499 -3.5s32.166 -6.5 47.499 -12.5c40.667 -16 72.5 -42.667 95.5 -80s34.5 -78.666 34.5 -123.999c0 -74.667 -24.833 -135.167 -74.5 -181.5s-112.167 -69.5 -187.5 -69.5c-56 0 -106.667 12.667 -152 38
c-54.667 30.667 -82 71.667 -82 123c0 28 10 52.333 30 73s44 31 72 31c18.667 0 37.334 -5.33301 56.001 -16c41.333 -23.333 66.666 -35 75.999 -35c22.667 0 36.667 10.667 42 32c-3.33301 10 -10.666 16.833 -21.999 20.5s-25.666 5.5 -42.999 5.5
c-6.66699 0 -15.667 -0.333008 -27 -1s-18.666 -1 -21.999 -1c-37.333 0 -66 6.33301 -86 19c-25.333 16 -38 41.667 -38 77c0 30.667 2.66699 64.167 8 100.5l16 112.5c5.33301 38.667 17.166 65.5 35.499 80.5s49.5 22.5 93.5 22.5h125c38.667 0 68.667 -7.33301 90 -22
c26 -17.333 39 -44.666 39 -81.999c0 -48 -21 -79 -63 -93c-20 -6.66699 -60.333 -10 -121 -10zM437 561.998c0 26.667 -8.83398 45.167 -26.501 55.5s-40.834 15.5 -69.501 15.5h-125c-35.333 0 -59.166 -4.66699 -71.499 -14s-20 -26.333 -23 -51
s-7.16699 -54.334 -12.5 -89.001c-8.66699 -57.333 -13 -100 -13 -128c0 -20.667 7.16699 -36.334 21.5 -47.001s44.5 -16 90.5 -16c45.333 0 74 -1.66699 86 -5c26.667 -7.33301 40 -24.666 40 -51.999c0 -19.333 -7.66699 -35 -23 -47s-32.666 -18 -51.999 -18
c-17.333 0 -35 5 -53 15c-42 23.333 -68.667 35 -80 35c-18.667 0 -34.667 -6.66699 -48 -20s-20 -30 -20 -50c0 -40 24.333 -72.333 73 -97c40 -20 82.333 -30 127 -30c67.333 0 122.5 19.333 165.5 58s64.5 91.334 64.5 158.001c0 68.667 -23.667 119.667 -71 153
c-40.667 28.667 -96.667 43 -168 43l7 59c7.33301 0 20.5 -0.333008 39.5 -1s28.833 -1 29.5 -1c44 0 73.667 6.5 89 19.5s23 31.167 23 54.5zM209.999 395.998l35.001 0.998047c62.667 0 111.334 -11 146.001 -33c42.667 -27.333 64 -70.666 64 -129.999
c0 -56 -18.667 -100.333 -56 -133s-84.333 -49 -141 -49c-34 0 -68 7.33301 -102 22c-42.667 18.667 -64 43 -64 73c0 9.33301 3.33301 17.666 10 24.999s14.667 11 24 11c8.66699 0 27 -8.5 55 -25.5s54 -25.5 78 -25.5c29.333 0 55 9.33301 77 28s33 42.334 33 71.001
c0 50 -29.333 79.333 -88 88l-141 8c-7.33301 7.33301 -11 15 -11 23c0 38 2.66699 77.5 8 118.5s13 79.5 23 115.5l16 13l40 3h125c21.333 0 35.333 -1.33301 42 -4c13.333 -5.33301 20 -16.666 20 -33.999s-8.5 -29 -25.5 -35s-39.833 -9 -68.5 -9
c-16.667 0 -31.834 0.5 -45.501 1.5s-25.834 2.16699 -36.501 3.5z" />
    <glyph glyph-name="six" unicode="6" horiz-adv-x="582" 
d="M551 243c0 -72 -24.667 -133.334 -74 -184.001s-110.333 -76 -183 -76c-74 0 -136 24 -186 72s-75 108.667 -75 182c0 36.667 8.33301 73.667 25 111c10.667 24 30 57 58 99l81 132c44 61.333 85.667 92 125 92c29.333 0 54.833 -10.167 76.5 -30.5
s32.5 -45.166 32.5 -74.499c0 -18.667 -5.66699 -38 -17 -58c-2 -4 -8.66699 -14.333 -20 -31c49.333 -20 87.833 -50.5 115.5 -91.5s41.5 -88.5 41.5 -142.5zM397 565.999c0 19.333 -7.5 36.166 -22.5 50.499s-32.5 21.5 -52.5 21.5c-29.333 0 -65 -30.667 -107 -92
c-40 -67.333 -63.667 -106.666 -71 -117.999c-24 -35.333 -41.667 -65 -53 -89c-16 -34.667 -24 -68.667 -24 -102c0 -64 21.667 -116.667 65 -158s97.333 -62 162 -62c62.667 0 115.667 22 159 66s65 97.333 65 160c0 52 -16.333 98.833 -49 140.5s-74.667 65.5 -126 71.5
l33 53c14 24 21 43.333 21 58zM485 242.999c0 -53.333 -18.5 -98.833 -55.5 -136.5s-82.167 -56.5 -135.5 -56.5c-55.333 0 -101.5 17.5 -138.5 52.5s-55.5 79.833 -55.5 134.5c0 44.667 31.333 117.167 94 217.5s105.334 150.5 128.001 150.5
c11.333 0 21.166 -3.83301 29.499 -11.5s12.5 -17.167 12.5 -28.5c0 -6.66699 -7.33301 -23 -22 -49l-56 -91c59.333 0 107.333 -15.5 144 -46.5s55 -76.167 55 -135.5zM187 242.999c0 -29.333 10.333 -54.333 31 -75s45.667 -31 75 -31s54.333 10.333 75 31
s31 45.667 31 75s-10.333 54.333 -31 75s-45.667 31 -75 31s-54.333 -10.333 -75 -31s-31 -45.667 -31 -75zM365 242.999c0 -19.333 -7 -36.333 -21 -51s-31 -22 -51 -22s-37.167 7.16699 -51.5 21.5s-21.5 31.5 -21.5 51.5s7 37 21 51s31.333 21 52 21c20 0 37 -7 51 -21
s21 -31 21 -51zM253 242.999c0 -11.333 3.66895 -20.668 11.002 -28.001s17 -11 29 -11c11.333 0 20.666 3.66699 27.999 11s11 16.666 11 27.999c0 10.667 -3.83301 19.834 -11.5 27.501s-16.834 11.5 -27.501 11.5c-11.333 0 -20.833 -3.66699 -28.5 -11
s-11.5 -16.666 -11.5 -27.999z" />
    <glyph glyph-name="seven" unicode="7" horiz-adv-x="485" 
d="M-13 562c0 36.667 13 63.999 39 81.999c22.667 15.333 53 23 91 23h206c40 0 71.667 -8 95 -24c28 -19.333 42 -48 42 -86c0 -30.667 -10.333 -78.667 -31 -144c-11.333 -36 -32.833 -94.833 -64.5 -176.5s-48.5 -125.5 -50.5 -131.5
c-11.333 -34 -24.666 -59.333 -39.999 -76c-20.667 -22.667 -46.334 -34 -77.001 -34s-56.667 9.66699 -78 29s-32 44.333 -32 75c0 40 16.667 101.667 50 185l73 172c-10.667 0 -21.5 -0.166992 -32.5 -0.5s-22.167 -0.5 -33.5 -0.5c-62 0 -104.667 10 -128 30
c-19.333 16.667 -29 42.334 -29 77.001zM121 98.999c0 -21.333 7.16504 -38.5029 21.498 -51.5029s32.5 -19.5 54.5 -19.5c21.333 0 39.333 8.66699 54 26c12 13.333 22 32 30 56c2.66699 8.66699 18.334 50.334 47.001 125.001c32 84.667 54 145.334 66 182.001
c22 68 33 114.667 33 140c0 28 -11 48.333 -33 61c-17.333 10 -41 15 -71 15h-206c-29.333 0 -51.666 -4.33301 -66.999 -13c-20 -11.333 -30 -30.666 -30 -57.999c0 -30 14.333 -51.333 43 -64c22.667 -10 54 -15 94 -15c18.667 0 36.5 0.5 53.5 1.5
s32.833 2.16699 47.5 3.5c-31.333 -73.333 -57.333 -136.333 -78 -189c-39.333 -100 -59 -166.667 -59 -200zM117.998 521.996c-20.667 0 -35.001 1.66797 -43.001 5.00098c-14.667 6 -22 17.667 -22 35c0 19.333 7.66699 30.5 23 33.5s29 4.5 41 4.5h206
c20 0 35.333 -2.33301 46 -7c16.667 -7.33301 25 -19.333 25 -36c0 -21.333 -11 -65.333 -33 -132c-17.333 -52 -39 -112.667 -65 -182l-47 -122c-4.66699 -13.333 -8.66699 -23.333 -12 -30c-10 -20 -23.667 -30 -41 -30c-11.333 0 -21.166 3.5 -29.499 10.5
s-12.5 16.167 -12.5 27.5c0 19.333 11.333 61 34 125c14 39.333 36.667 97.666 68 174.999l50 123h-188z" />
    <glyph glyph-name="eight" unicode="8" horiz-adv-x="564" 
d="M44 450c0 64 23.5 118.832 70.5 164.499s102.833 68.5 167.5 68.5c65.333 0 121.5 -22.5 168.5 -67.5s70.5 -100.167 70.5 -165.5c0 -42 -10.667 -78.667 -32 -110c12 -15.333 21.167 -33.166 27.5 -53.499s9.5 -41.166 9.5 -62.499c0 -66.667 -24 -123.334 -72 -170.001
s-105.333 -70 -172 -70s-124 23.333 -172 70s-72 103.334 -72 170.001c0 23.333 2.83301 44.166 8.5 62.499s15.5 36.166 29.5 53.499c-10.667 14.667 -18.667 31.834 -24 51.501s-8 39.167 -8 58.5zM489 449.999c0 55.333 -20.332 102.336 -60.999 141.003
s-88.667 58 -144 58s-103.333 -19.333 -144 -58s-61 -85.667 -61 -141c0 -20.667 3.16699 -40.834 9.5 -60.501s15.833 -36.5 28.5 -50.5c-14 -13.333 -24.833 -30.833 -32.5 -52.5s-11.5 -42.834 -11.5 -63.501c0 -57.333 21 -106 63 -146s91.333 -60 148 -60
c57.333 0 106.666 20 147.999 60s62 88.667 62 146c0 22 -3.5 43.333 -10.5 64s-17.833 38 -32.5 52c12.667 14 22.167 30.667 28.5 50s9.5 39.666 9.5 60.999zM459.001 225.002c0 -48.667 -17.3311 -89.9971 -51.998 -123.997s-76.334 -51 -125.001 -51
c-48 0 -89.5 16.833 -124.5 50.5s-52.5 75.167 -52.5 124.5c0 43.333 17.667 81 53 113c-14.667 16 -26.334 33.667 -35.001 53s-13 38.666 -13 57.999c0 45.333 17.167 84.5 51.5 117.5s74.5 49.5 120.5 49.5c46.667 0 87 -16.333 121 -49s51 -72 51 -118
c0 -20 -4 -39.333 -12 -58s-19.667 -36.334 -35 -53.001c34.667 -32.667 52 -70.334 52 -113.001zM195.003 451.005c0 -23.333 8.66699 -43.6641 26 -60.9971s37.666 -26 60.999 -26s43.666 8.66699 60.999 26s26 37.666 26 60.999s-8.66699 43.666 -26 60.999
s-37.666 26 -60.999 26s-43.666 -8.33301 -60.999 -25s-26 -37.334 -26 -62.001zM195.003 220.007c0 -23.333 8.66699 -43.6641 26 -60.9971s37.666 -26 60.999 -26s43.666 8.66699 60.999 26s26 37.666 26 60.999s-8.66699 43.666 -26 60.999s-37.666 26 -60.999 26
s-43.666 -8.33301 -60.999 -25s-26 -37.334 -26 -62.001zM335.003 451.009c0 -14.667 -5 -27.334 -15 -38.001s-22.667 -16 -38 -16s-28 5.33301 -38 16s-15 23.334 -15 38.001c0 15.333 5 28 15 38s22.667 15 38 15s28 -5 38 -15s15 -22.667 15 -38zM335.003 220.009
c0 -15.333 -5 -28 -15 -38s-22.667 -15 -38 -15s-28 5 -38 15s-15 22.667 -15 38s5 28 15 38s22.667 15 38 15s28 -5 38 -15s15 -22.667 15 -38zM262.003 451.009c0 -13.333 6.66699 -20 20 -20s20 6.66699 20 20s-6.66699 20 -20 20c-5.33301 0 -10 -2 -14 -6
s-6 -8.66699 -6 -14zM262.003 220.009c0 -13.333 6.66699 -20 20 -20s20 6.66699 20 20s-6.66699 20 -20 20c-5.33301 0 -10 -2 -14 -6s-6 -8.66699 -6 -14z" />
    <glyph glyph-name="nine" unicode="9" horiz-adv-x="582" 
d="M30 422c0 72 24.667 133.337 74 184.004s110.333 76 183 76c74.667 0 136.834 -23.833 186.501 -71.5s74.5 -108.5 74.5 -182.5c0 -36.667 -8.33301 -73.667 -25 -111c-10.667 -24 -30 -57 -58 -99l-108 -167c-33.333 -38 -66 -57 -98 -57
c-28.667 0 -53.834 10.167 -75.501 30.5s-32.5 45.166 -32.5 74.499c0 15.333 3.66699 31 11 47c2 5.33301 10.333 19.666 25 42.999c-48.667 19.333 -87 49.666 -115 90.999s-42 88.666 -42 141.999zM184 99.0039c0 -19.333 7.50098 -36.166 22.501 -50.499
s32.5 -21.5 52.5 -21.5c29.333 0 65 30.667 107 92c40.667 68 64.667 107.333 72 118c31.333 46.667 52 83.5 62 110.5s15 53.833 15 80.5c0 64.667 -21.833 117.5 -65.5 158.5s-97.834 61.5 -162.501 61.5c-62.667 0 -115.667 -22 -159 -66s-65 -97.333 -65 -160
c0 -52.667 16.333 -99.5 49 -140.5s74.667 -64.833 126 -71.5c-14.667 -22.667 -25.667 -40.334 -33 -53.001c-14 -24 -21 -43.333 -21 -58zM97.001 422.004c0 54 18.333 99.667 55 137s81.667 56 135 56c55.333 0 101.5 -17.5 138.5 -52.5s55.5 -79.833 55.5 -134.5
c0 -46 -31.333 -118.833 -94 -218.5s-105.334 -149.5 -128.001 -149.5c-11.333 0 -21.166 3.83301 -29.499 11.5s-12.5 17.167 -12.5 28.5c0 10 11.667 34 35 72l44 68c-58.667 0 -106 15.333 -142 46c-38 32.667 -57 78 -57 136zM395.001 422.004
c0 29.333 -10.333 54.333 -31 75s-45.667 31 -75 31s-54.333 -10.333 -75 -31s-31 -45.667 -31 -75s10.333 -54.333 31 -75s45.667 -31 75 -31s54.333 10.333 75 31s31 45.667 31 75zM216.001 422.004c0 20.667 7 38 21 52s31.333 21 52 21c20 0 37 -7 51 -21
s21 -31.333 21 -52c0 -20 -7 -37 -21 -51s-31 -21 -51 -21c-20.667 0 -38 7 -52 21s-21 31 -21 51zM328.001 422.004c0 12 -3.66699 21.667 -11 29s-16.666 11 -27.999 11s-20.666 -3.66699 -27.999 -11s-11 -17 -11 -29c0 -11.333 3.66699 -20.666 11 -27.999
s16.666 -11 27.999 -11s20.666 3.66699 27.999 11s11 16.666 11 27.999z" />
    <glyph glyph-name="colon" unicode=":" horiz-adv-x="287" 
d="M251 406c0 -30 -10.499 -55.5 -31.499 -76.5s-46.5 -31.5 -76.5 -31.5c-29.333 0 -54.5 10.5 -75.5 31.5s-31.5 46.5 -31.5 76.5s10.333 55.333 31 76s46 31 76 31c29.333 0 54.666 -10.333 75.999 -31s32 -46 32 -76zM251.001 103
c0 -29.333 -10.668 -54.667 -32.001 -76s-46.666 -32 -75.999 -32s-54.5 10.5 -75.5 31.5s-31.5 46.5 -31.5 76.5c0 29.333 10.5 54.5 31.5 75.5s46.167 31.5 75.5 31.5c30 0 55.5 -10.5 76.5 -31.5s31.5 -46.167 31.5 -75.5zM69 404.999
c0 -20 7.33105 -37.332 21.998 -51.999s32 -22 52 -22c20.667 0 38.334 7.33301 53.001 22s22 32 22 52c0 21.333 -7.16699 39.166 -21.5 53.499s-32.166 21.5 -53.499 21.5s-39 -7 -53 -21s-21 -32 -21 -54zM68.998 103c0 -20.667 7 -38.332 21 -52.999s31.667 -22 53 -22
s39.166 7.16699 53.499 21.5s21.5 32.166 21.5 53.499c0 20.667 -7.16699 38.167 -21.5 52.5s-32.166 21.5 -53.499 21.5c-20.667 0 -38.167 -7.16699 -52.5 -21.5s-21.5 -31.833 -21.5 -52.5zM183.998 406.002c0 -11.333 -4 -21 -12 -29s-17.667 -12 -29 -12
s-20.833 3.83301 -28.5 11.5s-11.5 17.5 -11.5 29.5c0 11.333 3.66699 21 11 29s17 12 29 12c11.333 0 21 -4 29 -12s12 -17.667 12 -29zM183.998 103.002c0 -11.333 -4 -21 -12 -29s-17.667 -12 -29 -12s-20.833 3.83301 -28.5 11.5s-11.5 17.5 -11.5 29.5
c0 11.333 3.66699 21 11 29s17 12 29 12c11.333 0 21 -4 29 -12s12 -17.667 12 -29z" />
    <glyph glyph-name="semicolon" unicode=";" horiz-adv-x="287" 
d="M251 406c0 -30 -10.502 -55.499 -31.502 -76.499s-46.167 -31.5 -75.5 -31.5s-54.666 10.667 -75.999 32s-32 46.666 -32 75.999c0 30 10.333 55.333 31 76s46.334 31 77.001 31c30 0 55.333 -10.333 76 -31s31 -46 31 -76zM35.998 104.001
c0 30.667 10.001 55.999 30.001 75.999s45.667 30 77 30c30 0 55.5 -9.83301 76.5 -29.5s31.5 -44.5 31.5 -74.5c0 -34.667 -11.667 -71.667 -35 -111c-26.667 -44.667 -56.334 -67 -89.001 -67c-23.333 0 -43.333 7.16699 -60 21.5s-25 32.833 -25 55.5
c0 14 3.66699 27.333 11 40c-11.333 18.667 -17 38.334 -17 59.001zM68.999 405c0 -20 7.33105 -37.333 21.998 -52s32.334 -22 53.001 -22c20 0 37.333 7.33301 52 22s22 32 22 52c0 21.333 -7.16699 39.166 -21.5 53.499s-31.833 21.5 -52.5 21.5
c-21.333 0 -39.166 -7.16699 -53.499 -21.5s-21.5 -32.166 -21.5 -53.499zM75.9971 5c0 -13.333 5.00098 -24 15.001 -32s22 -12 36 -12c21.333 0 42.333 19.333 63 58c18.667 34.667 28 63.667 28 87c0 20.667 -7.33301 37.667 -22 51s-32.334 20 -53.001 20
c-21.333 0 -39 -6.66699 -53 -20s-21 -31 -21 -53c0 -10.667 1.66699 -20.167 5 -28.5s9 -18.166 17 -29.499c-4 -5.33301 -7.5 -11.833 -10.5 -19.5s-4.5 -14.834 -4.5 -21.501zM184.998 406c0 -11.333 -4 -21 -12 -29s-17.667 -12 -29 -12s-21 4 -29 12s-12 17.667 -12 29
s4 21 12 29s17.667 12 29 12s21 -4 29 -12s12 -17.667 12 -29zM102.998 104c0 11.333 3.66797 21.001 11.001 29.001s17 12 29 12s22 -3.33301 30 -10s12 -16.334 12 -29.001c0 -14.667 -7.33301 -37.167 -22 -67.5s-27.334 -45.5 -38.001 -45.5c-12 0 -18 5.66699 -18 17
c0 5.33301 3.33301 15 10 29l14 28c-18.667 6.66699 -28 19 -28 37z" />
    <glyph glyph-name="less" unicode="&#x3c;" 
d="M415 229c16.667 -8 28.668 -17.3301 36.001 -27.9971c9.33301 -13.333 13.333 -28 12 -44c0 -19.333 -7.16699 -36.333 -21.5 -51s-31.166 -21.667 -50.499 -21c-17.333 1.33301 -50 13.333 -98 36c-30 14.667 -73.5 38 -130.5 70s-88.167 49.333 -93.5 52
c-15.333 7.33301 -27 16.666 -35 27.999s-11.667 25.666 -11 42.999s5 31.166 13 41.499s20.667 19.5 38 27.5l164 74c88 40 144.667 59.333 170 58c19.333 -0.666992 35.666 -8.66699 48.999 -24s19 -32.666 17 -51.999c0 -16 -4.83301 -29.833 -14.5 -41.5
s-22.834 -20.834 -39.501 -27.501l-167 -65zM411.001 389.003c12 5.33301 21.6689 12.166 29.002 20.499s11.333 18.166 12 29.499c0.666992 14.667 -3.33301 27.334 -12 38.001s-20 16.334 -34 17.001c-12.667 0 -43.667 -9.66699 -93 -29l-136 -60l-95 -42
c-11.333 -6 -20.333 -12.667 -27 -20s-10 -17.333 -10 -30c-0.666992 -12 2 -22.167 8 -30.5s14.667 -14.833 26 -19.5l157 -86c86.667 -46 138.667 -69.333 156 -70c12.667 -0.666992 24 4 34 14s15.333 22 16 36c1.33301 11.333 -1.33398 21.333 -8.00098 30
s-16.334 16 -29.001 22l-209 98zM396.003 189.003c6 -2.66699 10.666 -5.66602 13.999 -8.99902c7.33301 -5.33301 10.333 -12.333 9 -21c-0.666992 -20.667 -9.66699 -31 -27 -31c-10 1.33301 -59.667 25 -149 71l-156 84c-6.66699 4 -12 8 -16 12s-6 9.66699 -6 17
c0 6.66699 2.16699 12.5 6.5 17.5s9.83301 8.83301 16.5 11.5s37.334 16 92.001 40l139 60c50.667 20.667 79.334 31 86.001 31c8 -0.666992 14.333 -4 19 -10s6.66699 -13.333 6 -22c-0.666992 -6.66699 -3.33398 -12.334 -8.00098 -17.001s-10.667 -8.66699 -18 -12
l-264 -102z" />
    <glyph glyph-name="equal" unicode="=" horiz-adv-x="531" 
d="M22 204c0 27.333 9.66602 47.667 28.999 61c16.667 12.667 39 19 67 19h297c26.667 0 48.667 -6.33301 66 -19c19.333 -13.333 29 -33.666 29 -60.999c0 -26.667 -9.33301 -47 -28 -61c-17.333 -11.333 -39.666 -17 -66.999 -17h-297c-28.667 0 -51 5.66699 -67 17
c-19.333 13.333 -29 33.666 -29 60.999zM45.999 204.001c0 -20 7.33203 -34.667 21.999 -44c12.667 -6.66699 29.334 -10 50.001 -10h296c22 0 38.333 3 49 9c15.333 9.33301 23 24.333 23 45c0 21.333 -6.5 36 -19.5 44s-30.5 12 -52.5 12h-296
c-21.333 0 -38 -3.66699 -50 -11c-14.667 -9.33301 -22 -24.333 -22 -45zM70.998 204.001c0 13.333 4.16699 22 12.5 26s19.833 6 34.5 6h297c18 0 30.333 -2.83301 37 -8.5s10 -13.5 10 -23.5c0 -12 -5 -20.667 -15 -26c-7.33301 -3.33301 -18 -5 -32 -5h-297
c-18.667 0 -31.167 2.66699 -37.5 8s-9.5 13 -9.5 23zM21.998 398.001c0 27.333 9.66602 48 28.999 62c16.667 12 39 18 67 18h297c26.667 0 48.667 -6 66 -18c19.333 -14 29 -34.667 29 -62c0 -26.667 -9.33301 -46.667 -28 -60c-17.333 -12 -39.666 -18 -66.999 -18h-297
c-28.667 0 -51 5.66699 -67 17c-19.333 14 -29 34.333 -29 61zM45.9971 398.001c0 -20 7.33203 -34.668 21.999 -44.001c12.667 -6.66699 29.334 -10 50.001 -10h296c22 0 38.333 3.33301 49 10c15.333 8.66699 23 23.334 23 44.001c0 21.333 -6.5 36 -19.5 44
s-30.5 12 -52.5 12h-296c-21.333 0 -38 -3.33301 -50 -10c-14.667 -10 -22 -25.333 -22 -46zM70.9961 398c0 13.333 4.16699 22 12.5 26s19.833 6 34.5 6h297c18 0 30.333 -2.83301 37 -8.5s10 -13.5 10 -23.5c0 -12 -5 -20.333 -15 -25c-7.33301 -4 -18 -6 -32 -6h-297
c-18.667 0 -31.167 2.66699 -37.5 8s-9.5 13 -9.5 23z" />
    <glyph glyph-name="greater" unicode="&#x3e;" 
d="M245 304l-166.999 64.9971c-16.667 6.66699 -29.834 15.834 -39.501 27.501s-14.5 25.5 -14.5 41.5c-2 19.333 3.66699 36.666 17 51.999s29.666 23.333 48.999 24c25.333 1.33301 82 -18 170 -58l164 -74c17.333 -8 30 -17.167 38 -27.5s12.333 -24.166 13 -41.499
s-3 -31.666 -11 -42.999s-19.667 -20.666 -35 -27.999c-5.33301 -2.66699 -36.5 -20 -93.5 -52s-100.5 -55.333 -130.5 -70c-48 -22.667 -80.667 -34.667 -98 -36c-19.333 -0.666992 -36.166 6.33301 -50.499 21s-21.5 31.667 -21.5 51c-1.33301 16 2.66699 30.667 12 44
c7.33301 10.667 19.333 20 36 28zM302.001 305.997l-208.998 -98c-12.667 -6 -22.334 -13.333 -29.001 -22s-9.33398 -18.667 -8.00098 -30c0.666992 -14 6 -26 16 -36s21.333 -14.667 34 -14c17.333 0.666992 69.333 24 156 70l157 86c11.333 4.66699 20 11.167 26 19.5
s8.66699 18.5 8 30.5c0 12.667 -3.33301 22.667 -10 30s-15.667 14 -27 20l-95 42l-136 60c-49.333 19.333 -80.333 29 -93 29c-14 -0.666992 -25.333 -6.33398 -34 -17.001s-12.667 -23.334 -12 -38.001c0.666992 -11.333 4.66699 -21.166 12 -29.499
s17 -15.166 29 -20.499zM358.003 307.997l-264.001 101.999c-7.33301 3.33301 -13.333 7.33301 -18 12s-7.33398 10.334 -8.00098 17.001c-0.666992 8.66699 1.33301 16 6 22s11 9.33301 19 10c6.66699 0 35.334 -10.333 86.001 -31l139 -60
c54.667 -24 85.334 -37.333 92.001 -40s12.167 -6.5 16.5 -11.5s6.5 -10.833 6.5 -17.5c0 -7.33301 -2 -13 -6 -17s-9.33301 -8 -16 -12l-156 -84c-89.333 -46 -139 -69.667 -149 -71c-17.333 0 -26.333 10.333 -27 31c-1.33301 8.66699 1.66699 15.667 9 21
c3.33301 3.33301 8 6.33301 14 9z" />
    <glyph glyph-name="question" unicode="?" horiz-adv-x="511" 
d="M271 232c-32.667 0 -59.668 8 -81.001 24c-24 18 -36 42.667 -36 74s12 54.333 36 69l73 35l9 20l-7 18l-17 7c-11.333 -4 -29.333 -17.667 -54 -41c-20 -18.667 -43.333 -28 -70 -28c-28 0 -51.167 9.83301 -69.5 29.5s-27.5 43.834 -27.5 72.501
c0 51.333 24.667 94.666 74 129.999c44.667 32 94.334 48 149.001 48c66 0 121.5 -22.5 166.5 -67.5s67.5 -100.833 67.5 -167.5c0 -60 -20.5 -112.167 -61.5 -156.5s-91.5 -66.5 -151.5 -66.5zM359.999 103c0 -29.333 -10.667 -54.667 -32 -76s-46.666 -32 -75.999 -32
s-54.5 10.5 -75.5 31.5s-31.5 46.5 -31.5 76.5s10.333 55.333 31 76s46 31 76 31c29.333 0 54.666 -10.333 75.999 -31s32 -46 32 -76zM249.999 655.999c-44 0 -85.3301 -12.667 -123.997 -38c-44 -29.333 -66 -65 -66 -107c0 -19.333 5.83301 -35.5 17.5 -48.5
s27.167 -19.5 46.5 -19.5c17.333 0 42.666 15.667 75.999 47c16 15.333 32 23 48 23c15.333 0 28.666 -6 39.999 -18s17 -25.667 17 -41c0 -28.667 -19.667 -50 -59 -64s-59 -34 -59 -60c0 -22 8.66699 -38.667 26 -50c14.667 -9.33301 33.667 -14 57 -14
c50.667 0 93.5 18.667 128.5 56s52.5 81.666 52.5 132.999c0 56.667 -19.333 104.334 -58 143.001s-86.334 58 -143.001 58zM178.002 102.999c0 -21.333 7.16699 -39.166 21.5 -53.499s31.833 -21.5 52.5 -21.5s38.167 7.16699 52.5 21.5s21.5 32.166 21.5 53.499
c0 20.667 -7.16699 38.167 -21.5 52.5s-31.833 21.5 -52.5 21.5s-38.167 -7.16699 -52.5 -21.5s-21.5 -31.833 -21.5 -52.5zM271.002 298.999c-18.667 0 -31.668 2.66699 -39.001 8s-11 13 -11 23c0 6 19.5 18.5 58.5 37.5s58.5 47.833 58.5 86.5
c0 25.333 -8.66699 47 -26 65s-39 27 -65 27c-24.667 0 -48.834 -11.5 -72.501 -34.5s-40.167 -34.5 -49.5 -34.5s-17 3.33301 -23 10s-9 14.667 -9 24c0 32 18.667 59.333 56 82c32.667 20 66.334 30 101.001 30c48 0 88 -16 120 -48s48 -72 48 -120
c0 -42 -14.167 -78.5 -42.5 -109.5s-63.166 -46.5 -104.499 -46.5zM293.001 102.999c0 -11.333 -4 -21 -12 -29s-17.667 -12 -29 -12s-21 4 -29 12s-12 17.667 -12 29s4 21 12 29s17.667 12 29 12s21 -4 29 -12s12 -17.667 12 -29z" />
    <glyph glyph-name="at" unicode="@" horiz-adv-x="826" 
d="M580 334c-3.33301 -18 -7.66797 -37.667 -13.001 -59s-9 -41 -11 -59c9.33301 10 16 19 20 27s7.33301 18 10 30c4.66699 16 5.33398 29.333 2.00098 40s-6 17.667 -8 21zM353.998 231c-2 -8.66699 -1.5 -15.834 1.5 -21.501s6.83301 -6.16699 11.5 -1.5
c8 4.66699 14.167 10.667 18.5 18s7.16602 14 8.49902 20c2.66699 6.66699 4.83398 13.834 6.50098 21.501s2.5 15.834 2.5 24.501c0 7.33301 -2.66699 11 -8 11s-10.333 -3 -15 -9c-4.66699 -10 -9.66699 -19.833 -15 -29.5s-9 -20.834 -11 -33.501zM758.998 315
c-0.666992 -23.333 -2.49805 -44.499 -5.49805 -63.499s-8.16699 -37.167 -15.5 -54.5c4 -0.666992 7.66699 -2.33398 11 -5.00098s6.66602 -5 9.99902 -7c20 -21.333 30 -44.333 30 -69c0 -20.667 -7.66699 -41.667 -23 -63c-44 -52.667 -96 -92.667 -156 -120
c-54.667 -29.333 -117.334 -44 -188.001 -44c-53.333 0 -100.5 6.83301 -141.5 20.5s-79.167 34.5 -114.5 62.5c-41.333 32.667 -72.833 71.834 -94.5 117.501s-32.5 96.834 -32.5 153.501c0 109.333 36 200.666 108 273.999h-1c71.333 72.667 161 109 269 109
c109.333 0 199 -39 269 -117c50 -62.667 75 -127.334 75 -194.001v0zM335 330.001c-11.333 -16.667 -20.499 -33.1641 -27.499 -49.4971s-10.5 -32.833 -10.5 -49.5c0 -10.667 0.333008 -21 1 -31s6 -20 16 -30c4.66699 -7.33301 11.5 -12.666 20.5 -15.999
s18.167 -5 27.5 -5c18 0 33.667 6.66699 47 20c8.66699 7.33301 16.5 16.666 23.5 27.999s12.167 22 15.5 32c3.33301 8 6.33301 18 9 30s4 23.667 4 35s-1.33301 21.166 -4 29.499s-7 15.166 -13 20.499c-10.667 12.667 -27.334 19 -50.001 19
c-10 0 -20.333 -2.83301 -31 -8.5s-20 -13.834 -28 -24.501zM295.001 371.004c16 15.333 31.5 27.6689 46.5 37.002s32.5 14 52.5 14c32 -2 59 -14.333 81 -37c2 -1.33301 4.33301 -4 7 -8c1.33301 8 2 12.667 2 14c4 11.333 8.83301 20 14.5 26s13.5 7.66699 23.5 5
c7.33301 -3.33301 12.5 -8.16602 15.5 -14.499s3.83301 -13.166 2.5 -20.499c-14 -60 -25.167 -109.333 -33.5 -148s-12.5 -62 -12.5 -70c0 -21.333 6.33301 -32 19 -32c13.333 0 27.333 3.16699 42 9.5s28.667 17.833 42 34.5c18 18.667 31.333 38.5 40 59.5
s13 43.833 13 68.5c0 27.333 -5.5 52.166 -16.5 74.499s-25.167 42.833 -42.5 61.5c-43.333 44.667 -100.333 67 -171 67c-43.333 0 -80.833 -6.16699 -112.5 -18.5s-60.167 -32.166 -85.5 -59.499c-21.333 -25.333 -37.833 -52.833 -49.5 -82.5
s-17.5 -64.834 -17.5 -105.501c0 -38 5.83301 -72.167 17.5 -102.5s31.5 -55.5 59.5 -75.5c49.333 -42 112.666 -63 189.999 -63c20.667 0 42.667 3.16699 66 9.5s46 13.166 68 20.499c20.667 12 41.5 25.5 62.5 40.5s38.5 32.167 52.5 51.5
c8.66699 8.66699 17.167 14.5 25.5 17.5s16.166 2.5 23.499 -1.5c15.333 -16.667 17 -33.334 5 -50.001c-43.333 -48 -90 -84.333 -140 -109c-25.333 -11.333 -51.166 -20.333 -77.499 -27s-54.833 -10 -85.5 -10c-45.333 0 -85.666 6 -120.999 18
s-67.666 29.333 -96.999 52c-70.667 56.667 -106 132 -106 226c0 93.333 30.667 170.666 92 231.999c60 62 135 93 225 93c94.667 0 170 -32.333 226 -97c40 -46.667 60 -98.667 60 -156c0 -32.667 -5.5 -63 -16.5 -91s-26.833 -53 -47.5 -75h1
c-39.333 -44.667 -82.333 -67 -129 -67c-21.333 0 -38.666 6.66699 -51.999 20c-0.666992 3.33301 -2.33398 6.83301 -5.00098 10.5s-5.33398 8.5 -8.00098 14.5c-19.333 -20 -47.333 -30 -84 -30c-16.667 0.666992 -32.667 4.5 -48 11.5s-29 17.167 -41 30.5
c-9.33301 10 -17 22.667 -23 38s-9 33.333 -9 54c0 26 4.66699 50.667 14 74s23.333 45.333 42 66zM728.001 315.007c0 62 -22.334 120.337 -67.001 175.004c-62.667 71.333 -144.667 107 -246 107c-49.333 0 -94.333 -8.83301 -135 -26.5s-77.334 -43.167 -110.001 -76.5h1
c-68.667 -66.667 -103 -150.334 -103 -251.001c0 -51.333 10.167 -98 30.5 -140s49.5 -78.333 87.5 -109c32.667 -24 67.834 -42.5 105.501 -55.5s81.167 -19.5 130.5 -19.5c64.667 0 123.667 14 177 42c26 12.667 51.167 28.167 75.5 46.5s47.5 39.833 69.5 64.5
c22.667 31.333 21.334 61.666 -3.99902 90.999c-8 5.33301 -16.5 8.66602 -25.5 9.99902s-17.833 0.666016 -26.5 -2.00098c26.667 42 40 90 40 144zM469 427.011c-10.667 6.66699 -22.001 11.6699 -34.001 15.0029s-25.333 6.33301 -40 9c-48 0 -88.333 -20 -121 -60
c-23.333 -22 -39.5 -46.667 -48.5 -74s-13.5 -56 -13.5 -86c0 -23.333 3.83301 -44.5 11.5 -63.5s16.5 -35.5 26.5 -49.5c14.667 -14 31.5 -25.5 50.5 -34.5s38.833 -13.833 59.5 -14.5c29.333 0 54 5.33301 74 16c11.333 -12.667 25 -21.667 41 -27s32.667 -6.33301 50 -3
c-16.667 -6.66699 -33.834 -12.334 -51.501 -17.001s-34.834 -7 -51.501 -7c-36.667 0 -68.667 5 -96 15s-52.666 24 -75.999 42c-24 18.667 -41.167 41.334 -51.5 68.001s-15.5 56.667 -15.5 90c0 35.333 5.66699 65.833 17 91.5s26 50.5 44 74.5
c22.667 21.333 48.334 38.833 77.001 52.5s61.667 20.5 99 20.5c64 0 115 -19.333 153 -58c14 -16.667 25.333 -34.667 34 -54s13 -40.666 13 -63.999c0 -20.667 -3.5 -39.5 -10.5 -56.5s-17.5 -34.167 -31.5 -51.5c-5.33301 -6 -11.166 -11.833 -17.499 -17.5
s-12.5 -10 -18.5 -13s-10.833 -4.83301 -14.5 -5.5s-5.5 0.666016 -5.5 3.99902c0 7.33301 4 29.666 12 66.999s19.333 85.666 34 144.999c3.33301 14 1.5 26.833 -5.5 38.5s-19.5 22.167 -37.5 31.5c-12 2 -22.5 0.666992 -31.5 -4s-17.167 -11.334 -24.5 -20.001z
M354.999 315.014c13.333 14 26.333 21 39 21c15.333 0 25.666 -3.5 30.999 -10.5s8 -17.5 8 -31.5c0 -10 -1.16699 -20.167 -3.5 -30.5s-4.83301 -19.166 -7.5 -26.499v0c-2.66699 -7.33301 -7.16699 -15.833 -13.5 -25.5s-12.833 -17.834 -19.5 -24.501
c-6.66699 -7.33301 -15.667 -11 -27 -11c-6 0 -11.167 1 -15.5 3s-7.83301 4 -10.5 6c-5.33301 6 -8.66602 13 -9.99902 21s-2 16.333 -2 25c0 12.667 2.83301 26.167 8.5 40.5s13.5 28.833 23.5 43.5h-1z" />
    <glyph glyph-name="A" unicode="A" horiz-adv-x="687" 
d="M265 137c-25.333 -53.333 -41.334 -84.668 -48.001 -94.001c-23.333 -32 -52.666 -48 -87.999 -48c-30 0 -55.833 10.5 -77.5 31.5s-32.5 46.167 -32.5 75.5c0 26.667 16.333 77.334 49 152.001c24 54.667 56.333 121.667 97 201l72 140c10.667 22.667 25.167 41 43.5 55
s39.166 21 62.499 21c26 0 47.333 -6.33301 64 -19s30.667 -31.667 42 -57l72 -139c42.667 -82.667 75.334 -149.667 98.001 -201c32.667 -74 49 -125 49 -153c0 -29.333 -10.833 -54.5 -32.5 -75.5s-47.5 -31.5 -77.5 -31.5c-36 0 -65.333 15.667 -88 47
c-6.66699 9.33301 -22.667 41 -48 95h-157zM557.999 27.998c20 0 37.835 7.16504 53.502 21.498s23.5 31.833 23.5 52.5c0 21.333 -16.667 69 -50 143c-26.667 58.667 -59.334 126.334 -98.001 203.001l-68 133c-9.33301 18.667 -19 32.334 -29 41.001
c-12.667 10.667 -28.334 16 -47.001 16c-18 0 -33 -5 -45 -15s-21.5 -22.667 -28.5 -38s-30.167 -61.333 -69.5 -138c-45.333 -88 -78 -154.667 -98 -200c-33.333 -74.667 -50 -123 -50 -145c0 -20.667 7.5 -38.167 22.5 -52.5s33.167 -21.5 54.5 -21.5s41 11 59 33
c6.66699 8 25 44.333 55 109h200l40 -88c21.333 -36 46.333 -54 75 -54zM222.001 202.996l-44.999 -100c-16.667 -27.333 -32.667 -41 -48 -41c-11.333 0 -21.5 3.83301 -30.5 11.5s-13.5 17.167 -13.5 28.5c0 12.667 16.667 55.667 50 129l98 206l65 130
c5.33301 12 10.666 20.667 15.999 26c8 8 17.667 12 29 12c10.667 0 20 -3.66699 28 -11c6 -5.33301 12 -14.5 18 -27.5s27 -56.167 63 -129.5c51.333 -104.667 84.333 -173 99 -205c34 -74 51 -117.333 51 -130c0 -11.333 -4.5 -20.833 -13.5 -28.5
s-19.5 -11.5 -31.5 -11.5c-18 0 -38 21.667 -60 65l-33 76h-242zM426.002 282.996l-83 177l-83 -177h166zM343.002 381.996l31 -66h-62z" />
    <glyph glyph-name="B" unicode="B" horiz-adv-x="605" 
d="M566 227c0 -78.667 -27.333 -137.334 -82 -176.001c-48 -34 -112.333 -51 -193 -51h-97c-50.667 0 -87 10.667 -109 32s-33 57.333 -33 108v387c0 50.667 11 86.667 33 108s58.333 32 109 32l88 -1c76.667 0 138.667 -15.667 186 -47c56 -36.667 84 -91.667 84 -165
c0 -37.333 -8.66699 -72.666 -26 -105.999c13.333 -16 23.333 -34.667 30 -56s10 -43 10 -65zM518 453c0 66 -25.667 114.001 -77 144.001c-41.333 24 -97 36 -167 36h-80c-41.333 0 -69.833 -7.16699 -85.5 -21.5s-23.5 -42.5 -23.5 -84.5v-387c0 -40.667 8 -68.667 24 -84
s44.333 -23 85 -23h97c72 0 128.333 13.667 169 41c48.667 32.667 73 83.667 73 153c0 47.333 -15.667 86.333 -47 117c21.333 33.333 32 69.666 32 108.999zM500 227.001c0 -58 -20.668 -100.33 -62.001 -126.997c-34 -22 -81.333 -33 -142 -33h-107
c-29.333 0 -48.5 4.83301 -57.5 14.5s-13.5 29.167 -13.5 58.5v387c0 31.333 4.66699 51.333 14 60s30 13 62 13h86c60.667 0 107.334 -9.33301 140.001 -28c43.333 -24.667 65 -65.334 65 -122.001c0 -22.667 -3.83301 -42.834 -11.5 -60.501
s-20.167 -32.834 -37.5 -45.501c20.667 -11.333 36.5 -27.5 47.5 -48.5s16.5 -43.833 16.5 -68.5zM204.999 367.004h109c26 0 47.167 6.33301 63.5 19s24.5 31.667 24.5 57s-8.16699 44.5 -24.5 57.5s-37.5 19.5 -63.5 19.5h-109v-153zM204.999 146.004h117
c25.333 0 46.333 6.66699 63 20s25 32.333 25 57s-8.33301 43.667 -25 57s-37.667 20 -63 20h-117v-154zM315.999 486.004c16 0 28.833 -3.33301 38.5 -10s14.5 -17.667 14.5 -33c0 -14.667 -5 -25.5 -15 -32.5s-22.667 -10.5 -38 -10.5h-78v86h78zM323.999 267.004
c14.667 0 27 -3.66699 37 -11s15 -18.333 15 -33c0 -19.333 -7.33301 -32 -22 -38c-8 -3.33301 -18 -5 -30 -5h-86v87h86zM270.999 433.004h49c10 0 15 3.33301 15 10s-5 10 -15 10h-49v-20zM270.999 213.004h57c10 0 15 3.33301 15 10s-5 10 -15 10h-57v-20z" />
    <glyph glyph-name="C" unicode="C" horiz-adv-x="716" 
d="M384 202c28 0 55.3359 10.332 82.0029 30.999c59.333 46 97.666 69 114.999 69c28.667 0 54 -10.667 76 -32s33 -46.666 33 -75.999c0 -58 -36.333 -109 -109 -153c-64 -38.667 -127.333 -58 -190 -58c-98.667 0 -183 33.667 -253 101s-105 150.333 -105 249
c0 97.333 34.667 180 104 248s152.666 102 249.999 102c64 0 128 -19.333 192 -58c74 -44.667 111 -97 111 -157c0 -30 -10.667 -55.333 -32 -76s-47 -31 -77 -31c-27.333 0 -52.333 10.667 -75 32c-48.667 46.667 -89.334 70 -122.001 70
c-36.667 0 -67.5 -12.833 -92.5 -38.5s-37.5 -56.834 -37.5 -93.501c0 -35.333 12.667 -65.666 38 -90.999s56 -38 92 -38zM384.003 495.999c43.333 0 82.668 -16.999 118.001 -50.999s61.666 -51 78.999 -51c20 0 37.667 7.33301 53 22s23 32 23 52
c0 49.333 -33.667 93.333 -101 132c-58.667 33.333 -115 50 -169 50c-88 0 -163.333 -31 -226 -93s-94 -136.667 -94 -224c0 -88.667 31.833 -163.5 95.5 -224.5s139.834 -91.5 228.501 -91.5c53.333 0 108.666 16 165.999 48c66.667 37.333 100 80.333 100 129
c0 19.333 -7.66699 36.666 -23 51.999s-33 23 -53 23c-14.667 0 -41.5 -16.833 -80.5 -50.5s-77.833 -50.5 -116.5 -50.5c-43.333 0 -81.333 16 -114 48s-49 70 -49 114c0 46 15.833 85.167 47.5 117.5s70.167 48.5 115.5 48.5zM384.005 135
c38.667 0 73.667 10.3311 105 30.998l95 68c10 0 19 -4.33301 27 -13s12 -18 12 -28c0 -37.333 -30 -71.666 -90 -102.999c-51.333 -26.667 -98.666 -40 -141.999 -40c-80 0 -148.5 27.167 -205.5 81.5s-85.5 121.5 -85.5 201.5c0 77.333 28.333 144 85 200s124 84 202 84
c43.333 0 91.666 -14 144.999 -42c61.333 -32.667 92 -68.667 92 -108c0 -10.667 -4.33301 -20 -13 -28s-18.334 -12 -29.001 -12c-5.33301 0 -27.666 17 -66.999 51s-81 51 -125 51c-58 0 -106.167 -18.833 -144.5 -56.5s-57.5 -85.167 -57.5 -142.5
c0 -53.333 19.167 -99.166 57.5 -137.499s84.5 -57.5 138.5 -57.5z" />
    <glyph glyph-name="D" unicode="D" horiz-adv-x="698" 
d="M194 0c-50.667 0 -87 10.667 -109 32s-33 57.333 -33 108v387c0 50.667 11 86.667 33 108s58.333 32 109 32h118c99.333 0 182.333 -30.333 249 -91c69.333 -63.333 104 -144 104 -242c0 -106 -37.333 -189.333 -112 -250c-69.333 -56 -158 -84 -266 -84h-93zM194 633
c-41.333 0 -69.833 -7.16797 -85.5 -21.501s-23.5 -42.5 -23.5 -84.5v-387c0 -40.667 8 -68.667 24 -84s44.333 -23 85 -23h93c98.667 0 179 24.667 241 74c68.667 54.667 103 130.334 103 227.001c0 89.333 -30.5 161.5 -91.5 216.5s-136.833 82.5 -227.5 82.5h-118z
M118 139.999v387c0 31.333 4.66699 51.333 14 60s30 13 62 13h118c80.667 0 148.5 -24.167 203.5 -72.5s82.5 -112.833 82.5 -193.5c0 -85.333 -30.333 -152 -91 -200c-56 -44.667 -127.333 -67 -214 -67h-99c-32 0 -52.667 4.16699 -62 12.5s-14 28.5 -14 60.5z
M205 137.999h102c58 0 106.667 18 146 54s59 83 59 141s-20.167 105 -60.5 141s-89.833 54 -148.5 54h-98v-390zM302 494.999c50.667 0 92.833 -14.5 126.5 -43.5s50.5 -68.5 50.5 -118.5c0 -48.667 -16.333 -87.667 -49 -117s-73.667 -44 -123 -44h-69v323h64z
M270.999 204.999h36c40 0 73 11.333 99 34s39 54 39 94s-13.667 71.333 -41 94s-61.333 34 -102 34h-31v-256z" />
    <glyph glyph-name="E" unicode="E" horiz-adv-x="550" 
d="M525 106c0 -36.667 -12.666 -64.002 -37.999 -82.002c-22.667 -16 -52.667 -24 -90 -24h-207c-48.667 0 -83.834 10.833 -105.501 32.5s-32.5 57.5 -32.5 107.5v387c0 49.333 10.833 84.833 32.5 106.5s56.834 32.5 105.501 32.5h207c36.667 0 66.334 -8 89.001 -24
c26 -18.667 39 -46 39 -82c0 -43.333 -17.667 -73.666 -53 -90.999c-24.667 -12 -62.334 -18 -113.001 -18c-11.333 0 -27 0.333008 -47 1s-33.667 1 -41 1v-20h32.5c11 0 22.167 0.333008 33.5 1c43.333 0 76 -5.66699 98 -17c30 -15.333 45 -43.333 45 -84
c0 -32 -9.33301 -56 -28 -72c-22.667 -19.333 -64 -29 -124 -29h-29.5c-9.66699 0 -18.834 0.333008 -27.501 1v-20c19.333 0 36 0.333008 50 1s27.333 1.33398 40 2.00098c64.667 0 109 -10.333 133 -31c20.667 -18 31 -44.333 31 -79zM238.001 266.998
c5.33301 0 18.332 -0.666016 38.999 -1.99902s38 -2 52 -2c36 0 63 4 81 12c24.667 11.333 37 30.666 37 57.999s-12.333 46.666 -37 57.999c-18.667 8.66699 -46 13 -82 13c-12.667 0 -26.667 -0.5 -42 -1.5s-31.333 -1.83301 -48 -2.5v86
c12.667 0 23.334 -0.333008 32.001 -1c44.667 -3.33301 71.334 -5 80.001 -5c42.667 0 75 4.66699 97 14c30 12.667 45 34.667 45 66c0 28 -9 47.167 -27 57.5s-42 15.5 -72 15.5h-199c-41.333 0 -69.833 -7.16699 -85.5 -21.5s-23.5 -42.5 -23.5 -84.5v-387
c0 -40.667 8 -68.667 24 -84s44.333 -23 85 -23h199c30 0 52.667 4.33301 68 13c20.667 12 31 32 31 60c0 30 -15 51.667 -45 65c-23.333 10 -55.666 15 -96.999 15c-22.667 0 -41.834 -0.666992 -57.501 -2s-33.834 -2.66602 -54.501 -3.99902v87zM393 145.999
c20 0 34.333 -1.66406 43 -4.99707c14.667 -6 22 -17.667 22 -35c0 -16.667 -5.5 -27.334 -16.5 -32.001s-25.833 -7 -44.5 -7h-206c-30 0 -49.667 4.16699 -59 12.5s-14 27.166 -14 56.499v394c0 29.333 4.66699 48.333 14 57s29 13 59 13h205
c18.667 0 33.667 -2.5 45 -7.5s17 -15.833 17 -32.5s-7 -28 -21 -34c-10 -4 -24.667 -6 -44 -6h-188v-153h151c18 0 32.167 -1.83301 42.5 -5.5s15.5 -13.167 15.5 -28.5c0 -14.667 -6.33301 -24.334 -19 -29.001c-7.33301 -2.66699 -20.333 -4 -39 -4h-151v-154h188z" />
    <glyph glyph-name="F" unicode="F" horiz-adv-x="537" 
d="M162 -5c-38 0 -65.8311 12.3311 -83.498 36.998s-26.5 56.334 -26.5 95.001v405c0 47.333 11.167 81.5 33.5 102.5s57.166 31.5 104.499 31.5h207c36.667 0 66.334 -8 89.001 -24c26 -18.667 39 -46 39 -82c0 -43.333 -17.667 -73.666 -53 -90.999
c-24.667 -12 -62.334 -18 -113.001 -18c-11.333 0 -27 0.333008 -47 1s-33.667 1 -41 1v-20h32.5c11 0 22.167 0.333008 33.5 1c43.333 0 76 -5.66699 98 -17c30 -15.333 45 -43.333 45 -84c0 -32 -9.33301 -56 -28 -72c-22.667 -19.333 -64 -29 -124 -29h-29.5
c-9.66699 0 -18.834 0.333008 -27.501 1c0 -8.66699 0.333008 -23.5 1 -44.5s1 -31.833 1 -32.5c0 -62.667 -10.667 -106 -32 -130c-18 -20.667 -44.333 -31 -79 -31zM447.002 332.998c0 27.333 -12.3359 46.666 -37.0029 57.999c-18.667 8.66699 -46 13 -82 13
c-12.667 0 -26.667 -0.5 -42 -1.5s-31.333 -1.83301 -48 -2.5v86c12.667 0 23.334 -0.333008 32.001 -1c44.667 -3.33301 71.334 -5 80.001 -5c42.667 0 75 4.66699 97 14c30 12.667 45 34.667 45 66c0 28 -9 47.167 -27 57.5s-42 15.5 -72 15.5h-199
c-41.333 0 -69.833 -7.16699 -85.5 -21.5s-23.5 -42.5 -23.5 -84.5v-399c0 -30 5 -53 15 -69c12.667 -20.667 33.334 -31 62.001 -31c30.667 0 52.667 14.333 66 43c10 22 15 53 15 93c0 18.667 -0.666992 36.834 -2 54.501s-2.33301 33.834 -3 48.501
c5.33301 0 18.333 -0.666992 39 -2s38 -2 52 -2c36 0 63 4 81 12c24.667 11.333 37 30.666 37 57.999zM204.999 131.998c0 -21.333 -1.99902 -37 -5.99902 -47c-6 -15.333 -18.333 -23 -37 -23s-31.334 7.66699 -38.001 23c-4 9.33301 -6 25 -6 47v399
c0 28.667 4.83301 47.334 14.5 56.001s29.167 13 58.5 13h206c18.667 0 33.5 -2.5 44.5 -7.5s16.5 -15.833 16.5 -32.5s-7 -28 -21 -34c-10 -4 -24.667 -6 -44 -6h-188v-153h151c18 0 32.167 -1.83301 42.5 -5.5s15.5 -13.167 15.5 -28.5
c0 -14.667 -6.33301 -24.334 -19 -29.001c-7.33301 -2.66699 -20.333 -4 -39 -4h-151v-168z" />
    <glyph glyph-name="G" unicode="G" horiz-adv-x="693" 
d="M420 204c-28.667 0 -53.5 9.83301 -74.5 29.5s-31.5 44.167 -31.5 73.5c0 36 11.833 62.167 35.5 78.5s54.167 24.5 91.5 24.5h96c47.333 0 80 -9.33301 98 -28s27 -52 27 -100v-108c0 -69.333 -28.333 -120 -85 -152c-45.333 -25.333 -106.333 -38 -183 -38
c-101.333 0 -186.833 33.167 -256.5 99.5s-104.5 149.833 -104.5 250.5c0 97.333 34.5 179.833 103.5 247.5s152.5 101.5 250.5 101.5c51.333 0 97 -10 137 -30c50.667 -25.333 76 -61.333 76 -108c0 -30 -9.5 -55.5 -28.5 -76.5s-43.5 -31.5 -73.5 -31.5
c-12 0 -26.333 2.66699 -43 8c-38 12 -62.333 18 -73 18c-34.667 0 -65 -13 -91 -39s-39 -56.333 -39 -91c0 -38.667 14.333 -70.667 43 -96s62.667 -38 102 -38c12 0 23.667 2 35 6zM482 185c-27.333 -12 -55.667 -18 -85 -18c-49.333 0 -91.333 15.333 -126 46
s-52 70.667 -52 120c0 44 16 82.333 48 115s70.333 49 115 49c12.667 0 37 -6 73 -18c18 -6 32.333 -9 43 -9c20 0 36.333 7.33301 49 22s19 32 19 52c0 37.333 -21.667 65.333 -65 84c-32.667 14 -70.667 21 -114 21c-88.667 0 -164.167 -30.5 -226.5 -91.5
s-93.5 -135.5 -93.5 -223.5c0 -92 31.333 -167.833 94 -227.5s140.667 -89.5 234 -89.5c66.667 0 119 9.66699 157 29c50.667 26 76 68.667 76 128v108c0 37.333 -6 62.333 -18 75s-36.333 19 -73 19h-96c-27.333 0 -48.666 -4.33301 -63.999 -13
c-20 -11.333 -30 -30 -30 -56c0 -34 15.667 -55.667 47 -65c15.333 -4.66699 44.666 -7 87.999 -7v-50zM379.999 306c0 15.333 5.83301 25.3369 17.5 30.0039s26.167 7 43.5 7h96c16 0 31.667 -2 47 -6c4.66699 -5.33301 7.66699 -12.833 9 -22.5s2 -18.834 2 -27.501v-113
c0 -48.667 -22 -82.667 -66 -102c-32 -14 -76.667 -21 -134 -21c-84 0 -154.167 26.333 -210.5 79s-84.5 120.667 -84.5 204c0 79.333 27.833 146.166 83.5 200.499s123.5 81.5 203.5 81.5c32 0 61.333 -4.66699 88 -14c38.667 -13.333 58 -33 58 -59
c0 -10.667 -3.16699 -19.834 -9.5 -27.501s-14.833 -11.5 -25.5 -11.5c-12 0 -30.667 4.33301 -56 13s-45.333 13 -60 13c-54 0 -100.167 -19.5 -138.5 -58.5s-57.5 -85.167 -57.5 -138.5c0 -57.333 20.667 -105 62 -143s91 -57 149 -57c40 0 79.333 9.33301 118 28v108
c-5.33301 0 -15 -0.333008 -29 -1s-22.667 -1 -26 -1c-22.667 0 -41.667 2.66699 -57 8s-23 15.666 -23 30.999z" />
    <glyph glyph-name="H" unicode="H" horiz-adv-x="676" 
d="M271 239c0 -6.66699 0.333008 -18.999 1 -36.999s1 -32.333 1 -43c0 -64 -10.667 -108.333 -32 -133c-18 -20.667 -44.333 -31 -79 -31c-38 0 -65.833 12.5 -83.5 37.5s-26.5 56.833 -26.5 95.5v411c0 38 8.33301 68.667 25 92c19.333 26.667 47.666 40 84.999 40
c34 0 60 -10 78 -30c21.333 -24 32 -67 32 -129c0 -12.667 -0.166992 -25 -0.5 -37s-0.5 -23.667 -0.5 -35h134c0 11.333 -0.166992 23 -0.5 35s-0.5 24.333 -0.5 37c0 62 10.667 105 32 129c18 20 44.333 30 79 30c38 0 66.333 -13 85 -39
c16.667 -23.333 25 -54.333 25 -93v-411c0 -38.667 -8.33301 -69.667 -25 -93c-19.333 -26.667 -47.666 -40 -84.999 -40c-44.667 0 -75.667 17.333 -93 52c-12.667 25.333 -19 62.666 -19 111.999c0 10 0.333008 24 1 42s1 30.667 1 38h-134zM515 28.001
c28 0 48.333 10.666 61 31.999c10 17.333 15 41.333 15 72v403c0 30.667 -4.66699 54.334 -14 71.001c-12 21.333 -32.667 32 -62 32c-30.667 0 -52.667 -14.333 -66 -43c-10 -22 -15 -52.667 -15 -92c0 -14 0.666992 -32 2 -54s2 -36 2 -42h-200
c0 8.66699 0.833008 25.5 2.5 50.5s2.5 41.5 2.5 49.5c0 38.667 -5 68.667 -15 90c-12.667 27.333 -34.667 41 -66 41c-29.333 0 -49.5 -9.33301 -60.5 -28s-16.5 -43.667 -16.5 -75v-407c0 -30 5 -53 15 -69c12.667 -20.667 33.334 -31 62.001 -31
c31.333 0 53.333 14.667 66 44c10 22.667 15 54.667 15 96c0 18.667 -0.666992 37 -2 55s-2.33301 34.667 -3 50h200c0 -8.66699 -0.833008 -26 -2.5 -52s-2.5 -43.333 -2.5 -52c0 -41.333 5 -73.333 15 -96c13.333 -30 35.666 -45 66.999 -45zM205 306
l-0.000976562 -173.999c0 -21.333 -2 -37 -6 -47c-6 -15.333 -18.333 -23 -37 -23s-31.334 7.66699 -38.001 23c-4 9.33301 -6 25 -6 47v403c0 21.333 2 36.666 6 45.999c6.66699 16 19.334 24 38.001 24s31 -7.66699 37 -23c4 -10 6 -25.667 6 -47v-162h267v162
c0 22.667 1.66699 38 5 46c6.66699 16 19.334 24 38.001 24s31 -7.66699 37 -23c4 -10 6 -25.667 6 -47v-403c0 -21.333 -2 -37 -6 -47c-6 -15.333 -18.333 -23 -37 -23s-30.5 6.33301 -35.5 19s-7.5 29.667 -7.5 51v174h-267z" />
    <glyph glyph-name="I" unicode="I" horiz-adv-x="323" 
d="M162 -5c-37.333 0 -65.666 13.333 -84.999 40c-16.667 23.333 -25 54.333 -25 93v411c0 38 8.33301 68.667 25 92c19.333 26.667 47.666 40 84.999 40s65.333 -13 84 -39c16.667 -23.333 25 -54.333 25 -93v-411c0 -39.333 -8 -70.333 -24 -93
c-18.667 -26.667 -47 -40 -85 -40zM162 28c28 0 48.333 10.333 61 31c10 16.667 15 39.667 15 69v410c0 30.667 -4.66699 53.667 -14 69c-12.667 20.667 -33.334 31 -62.001 31c-29.333 0 -49.5 -9 -60.5 -27s-16.5 -42.333 -16.5 -73v-410c0 -30 5 -53 15 -69
c12.667 -20.667 33.334 -31 62.001 -31zM162 62c-18 0 -29.833 6.00098 -35.5 18.001s-8.5 28 -8.5 48v411c0 25.333 3.83301 42.666 11.5 51.999s18.5 14 32.5 14c17.333 0 29.333 -7 36 -21c4.66699 -10 7 -25 7 -45v-411c0 -26 -3.66699 -43.5 -11 -52.5
s-18 -13.5 -32 -13.5z" />
    <glyph glyph-name="J" unicode="J" horiz-adv-x="587" 
d="M542 535l-0.000976562 -263c0 -85.333 -21.667 -153.333 -65 -204c-46.667 -54 -112.334 -81 -197.001 -81c-88 0 -154.333 27.667 -199 83c-41.333 50.667 -62 120 -62 208c0 40 7.66699 71.333 23 94c18.667 27.333 47.334 41 86.001 41c62 0 97.667 -35 107 -105
s24.333 -105 45 -105c4 0 8.66699 1 14 3s9 3.33301 11 4c7.33301 8.66699 12.5 21.167 15.5 37.5s4.5 36.833 4.5 61.5c0 11.333 -1.16699 38.833 -3.5 82.5s-3.5 76.5 -3.5 98.5c0 56.667 7 99 21 127c18 36 49 54 93 54c38.667 0 67.334 -13.667 86.001 -41
c16 -23.333 24 -55 24 -95zM508.999 535c0 31.333 -4.66602 55.001 -13.999 71.001c-12 21.333 -33 32 -63 32c-31.333 0 -52.833 -12.5 -64.5 -37.5s-17.5 -60.167 -17.5 -105.5c0 -23.333 0.666992 -46.666 2 -69.999c4 -70 6 -109.333 6 -118
c0 -44.667 -4.66699 -77.334 -14 -98.001c-12 -26.667 -33.333 -40 -64 -40c-45.333 0 -70.333 35.167 -75 105.5s-30.334 105.5 -77.001 105.5c-28.667 0 -48.5 -9 -59.5 -27s-16.5 -42.333 -16.5 -73c0 -80 17.333 -142 52 -186c38.667 -49.333 97.334 -74 176.001 -74
c77.333 0 135.666 24.667 174.999 74c36 45.333 54 106.666 54 183.999v257zM476 535.001v-261.999c0 -67.333 -15.333 -120 -46 -158c-33.333 -41.333 -83.333 -62 -150 -62c-68 0 -118.333 21.333 -151 64c-29.333 38 -44 92 -44 162c0 26.667 3.5 44.667 10.5 54
s17.833 14 32.5 14c23.333 0 39 -35.167 47 -105.5s43 -105.5 105 -105.5c44 0 74.667 19 92 57c13.333 29.333 20 74 20 134c0 16.667 -1.16699 46 -3.5 88s-3.5 72 -3.5 90c0 34 3.16699 59.167 9.5 75.5s18.833 24.5 37.5 24.5c18 0 30.333 -7.66699 37 -23
c4.66699 -10.667 7 -26.334 7 -47.001z" />
    <glyph glyph-name="K" unicode="K" horiz-adv-x="608" 
d="M461 671c30 0 55.668 -10.667 77.001 -32s32 -47 32 -77c0 -32 -23.667 -73.333 -71 -124l-98 -94l107 -100c55.333 -58 83 -104 83 -138c0 -30.667 -10.5 -56.834 -31.5 -78.501s-46.833 -32.5 -77.5 -32.5c-38.667 0 -88 33 -148 99l-63 73
c0 -55.333 -4.66699 -94 -14 -116c-16 -37.333 -47.667 -56 -95 -56c-38 0 -65.833 12.333 -83.5 37s-26.5 56.334 -26.5 95.001v412c0 38 8.33301 68.667 25 92c19.333 26.667 47.666 40 84.999 40c42.667 0 72.667 -15.667 90 -47c12.667 -23.333 19 -58 19 -104l82 90
c42 40.667 78 61 108 61zM162.001 638c-29.333 0 -49.5029 -9.33105 -60.5029 -27.998s-16.5 -43.667 -16.5 -75v-407c0 -30 5 -53 15 -69c12.667 -20.667 33.334 -31 62.001 -31c30.667 0 52.334 13.667 65.001 41c10 21.333 15 50.666 15 87.999c0 12.667 -0.5 27 -1.5 43
s-1.83301 33 -2.5 51l139 -156c46.667 -44.667 82.334 -67 107.001 -67c21.333 0 39 7.66699 53 23s21 33.666 21 54.999c0 28 -32.333 74.333 -97 139c-67.333 62 -102.666 94.667 -105.999 98l126 125c36.667 42.667 55 74 55 94c0 20.667 -7.16699 38.5 -21.5 53.5
s-31.833 22.5 -52.5 22.5c-28.667 0 -72.667 -31.667 -132 -95l-92 -107c0 10 0.5 25.333 1.5 46s1.5 32 1.5 34c0 36 -4.66699 63.667 -14 83c-12.667 26 -34.334 39 -65.001 39zM460.998 605.002c8 0 16.333 -3.33301 25 -10c5.33301 -4 9 -8 11 -12l6 -20
c-7.33301 -27.333 -37.333 -67.333 -90 -120l-105 -100c38.667 -34.667 75.667 -69.667 111 -105c70.667 -70.667 106 -115 106 -133c0 -12.667 -3.83301 -23.167 -11.5 -31.5s-17.834 -12.5 -30.501 -12.5c-15.333 0 -45.666 22.333 -90.999 67
c-31.333 30.667 -71 73.667 -119 129l-68 79v-204c0 -21.333 -2 -37 -6 -47c-6 -15.333 -18.333 -23 -37 -23c-18 0 -29.833 6 -35.5 18s-8.5 28 -8.5 48v410c0 20 2.83301 36.167 8.5 48.5s17.5 18.5 35.5 18.5c18.667 0 31 -7.66699 37 -23c4 -10 6 -25.667 6 -47v-184
l118 135c65.333 72 111.333 111.667 138 119z" />
    <glyph glyph-name="L" unicode="L" horiz-adv-x="542" 
d="M524 106c0 -36.667 -12.665 -64 -37.998 -82c-22.667 -16 -52.667 -24 -90 -24h-206c-48 0 -83 10.667 -105 32s-33 56 -33 104v403c0 38 8.33301 68.667 25 92c19.333 26.667 47.666 40 84.999 40c38 0 66.333 -13.667 85 -41c16 -24 24 -55.667 24 -95v-322
c6.66699 0 20 0.333008 40 1s36 1 48 1c49.333 0 86.666 -6 111.999 -18c35.333 -16.667 53 -47 53 -91zM238.002 535c0 30.667 -4.66602 54.3311 -13.999 70.998c-12 21.333 -32.667 32 -62 32s-50.333 -10.667 -63 -32c-9.33301 -16 -14 -39.667 -14 -71v-399
c0 -38.667 7.83301 -65.5 23.5 -80.5s43.167 -22.5 82.5 -22.5h204c28.667 0 50.667 4.66699 66 14c20 12 30 31.667 30 59c0 30.667 -14.667 52.334 -44 65.001c-23.333 10 -55.666 15 -96.999 15c-22.667 0 -41.834 -0.666992 -57.501 -2
s-33.834 -2.66602 -54.501 -3.99902v355zM392.003 145.997c20.667 0 36.833 -2.16602 48.5 -6.49902s17.5 -15.5 17.5 -33.5c0 -19.333 -10 -31.333 -30 -36c-9.33301 -2 -20.333 -3 -33 -3h-204c-30 0 -49.667 4.16699 -59 12.5s-14 27.166 -14 56.499v402
c0 20 2.83301 36.167 8.5 48.5s17.5 18.5 35.5 18.5c18.667 0 31 -7.66699 37 -23c4 -10 6 -25.667 6 -47v-389h187z" />
    <glyph glyph-name="M" unicode="M" horiz-adv-x="851" 
d="M632 672c40 0 70.0049 -13.998 90.0049 -41.998c15.333 -21.333 26.666 -54 33.999 -98c4 -24 15 -77 33 -159c25.333 -116.667 38 -206.334 38 -269.001c0 -31.333 -10.667 -57.333 -32 -78s-47.666 -31 -78.999 -31c-56.667 0 -93.334 36.333 -110.001 109l-17 103
l-56 -132c-29.333 -53.333 -65.333 -80 -108 -80c-48.667 0 -90 38 -124 114l-40 98c-12.667 -78 -21.334 -123.333 -26.001 -136c-18.667 -50.667 -52.334 -76 -101.001 -76c-30 0 -55.833 10.5 -77.5 31.5s-32.5 46.833 -32.5 77.5c0 57.333 8.66699 129 26 215l44 213
c7.33301 43.333 18.666 75.666 33.999 96.999c20.667 28.667 50.667 43 90 43c50 0 95.667 -41 137 -123c37.333 -94 60.666 -152 69.999 -174l70 173c41.333 82.667 87 124 137 124zM309.005 554.002c-13.333 28 -24.002 47 -32.002 57c-15.333 18 -34.666 27 -57.999 27
s-42 -6.66699 -56 -20c-16.667 -16 -28.667 -46.333 -36 -91l-64 -379c-2 -8 -3.5 -15.667 -4.5 -23s-1.5 -14.333 -1.5 -21c0 -21.333 7.33301 -39.333 22 -54s33 -22 55 -22c44.667 0 76 43.667 94 131c10.667 95.333 17.334 149.666 20.001 162.999l30 -87
c20.667 -56 41.667 -101 63 -135c29.333 -47.333 57.333 -71 84 -71s54.667 23.333 84 70c22.667 36 44 81 64 135l30 88c6 -54 12.333 -108 19 -162c18 -88 49.333 -132 94 -132c20.667 0 38.667 7.33301 54 22s23 32.667 23 54c0 14 -1.66699 28.667 -5 44l-64 379
c-8 44.667 -19.5 74.334 -34.5 89.001s-34.5 22 -58.5 22c-27.333 0 -49.333 -13 -66 -39c-5.33301 -8 -13 -23 -23 -45l-117 -260zM572.003 541.002c10 22 16.999 35.6689 20.999 41.002c10.667 15.333 23.667 23 39 23c21.333 0 36.333 -9.33301 45 -28
c4 -8 8.33301 -26.667 13 -56l65 -378c0.666992 -6.66699 1.66699 -13.834 3 -21.501s2 -13.5 2 -17.5c0 -13.333 -4 -23.666 -12 -30.999s-18.667 -11 -32 -11c-15.333 0 -26.666 7 -33.999 21c-4.66699 8 -8.33398 21.667 -11.001 41l-54 313l-136 -310
c-10 -22.667 -16.667 -36.334 -20 -41.001c-10.667 -16.667 -22.667 -25 -36 -25c-12.667 0 -24.334 8 -35.001 24c-4 6 -11 20 -21 42l-136 310l-53 -313c-4 -20.667 -7.66699 -34.334 -11 -41.001c-7.33301 -14 -19 -21 -35 -21c-11.333 0 -21.333 4 -30 12s-13 18 -13 30
c0 10.667 0.666992 19.167 2 25.5s2 10.833 2 13.5l65 378c4.66699 26.667 9.33398 45 14.001 55c9.33301 19.333 24 29 44 29c14.667 0 27.334 -7.33301 38.001 -22c4.66699 -6.66699 12 -20.667 22 -42l147 -328z" />
    <glyph glyph-name="N" unicode="N" horiz-adv-x="697" 
d="M162 -5c-38.667 0 -67.332 13.667 -85.999 41c-16 24 -24 56 -24 96v402c0 40.667 8 72.667 24 96c19.333 27.333 48.666 41 87.999 41c30 0 65 -19.667 105 -59c27.333 -26.667 59.666 -66 96.999 -118l59 -84c0 19.333 -0.333008 36 -1 50l-2.00098 40
c0 51.333 6.33301 90 19 116c18 36.667 49.333 55 94 55c38 0 66.333 -13 85 -39c16.667 -23.333 25 -54.333 25 -93v-412c0 -39.333 -7.66699 -70 -23 -92c-18.667 -26.667 -47 -40 -85 -40c-29.333 0 -64.666 20.333 -105.999 61c-28 27.333 -61.333 67.666 -100 120.999
l-60 84c0 -20.667 0.333008 -38.5 1 -53.5s1.33398 -28.833 2.00098 -41.5c0 -67.333 -10.667 -113.666 -32 -138.999c-18 -21.333 -44.667 -32 -80 -32zM466.002 74c8 -10 15.335 -18.001 22.002 -24.001c15.333 -14.667 31.666 -22 48.999 -22c28.667 0 49 10.667 61 32
c9.33301 16.667 14 40.667 14 72v403c0 30.667 -4.66699 54.334 -14 71.001c-12 21.333 -33 32 -63 32c-29.333 0 -49.5 -9.33301 -60.5 -28s-16.5 -43.667 -16.5 -75v-220l-219 273c-11.333 14 -19 23 -23 27c-15.333 15.333 -33 23 -53 23
c-28.667 0 -48.834 -9.83301 -60.501 -29.5s-17.5 -44.5 -17.5 -74.5v-402c0 -31.333 4.66699 -55 14 -71c12.667 -22 33.667 -33 63 -33c28.667 0 49 10.667 61 32c10 17.333 15 41.333 15 72v223zM205.004 131.999c0 -21.333 -2 -37 -6 -47
c-6 -15.333 -18.333 -23 -37 -23c-18 0 -29.833 6 -35.5 18s-8.5 28 -8.5 48v410c0 19.333 3.16699 35.333 9.5 48s18.166 19 35.499 19c14.667 0 48.667 -31.333 102 -94c43.333 -50.667 91 -110.334 143 -179.001l84 -112v315c0 20.667 2 36 6 46c6.66699 16 19 24 37 24
c18.667 0 31.334 -7.66699 38.001 -23c4 -9.33301 6 -25 6 -47v-403c0 -22 -1.66699 -37.333 -5 -46c-6 -16 -18 -24 -36 -24c-14.667 0 -48.667 31 -102 93c-35.333 40.667 -83 100.334 -143 179.001l-88 115v-317z" />
    <glyph glyph-name="O" unicode="O" horiz-adv-x="763" 
d="M730 333c0 -96 -33.999 -178 -101.999 -246s-150.333 -102 -247 -102c-96 0 -178 34 -246 102s-102 150 -102 246s34.167 178.167 102.5 246.5s150.166 102.5 245.499 102.5c96 0 178.167 -34.167 246.5 -102.5s102.5 -150.5 102.5 -246.5zM67.001 333
c0 -86.667 30.666 -160.667 91.999 -222s135.333 -92 222 -92c86 0 160 30.667 222 92s93 135.333 93 222c0 87.333 -30.667 161.666 -92 222.999s-135.666 92 -222.999 92c-86.667 0 -160.667 -30.667 -222 -92s-92 -135.666 -92 -222.999zM663 333
c0 -78 -27.332 -144.333 -81.999 -199s-121.334 -82 -200.001 -82c-78 0 -144.333 27.333 -199 82s-82 121 -82 199s27.5 144.5 82.5 199.5s121.167 82.5 198.5 82.5c78 0 144.5 -27.5 199.5 -82.5s82.5 -121.5 82.5 -199.5zM187.001 333
c0 -53.333 18.833 -99.166 56.5 -137.499s83.5 -57.5 137.5 -57.5s100.167 19.167 138.5 57.5s57.5 84.166 57.5 137.499c0 54 -19 100 -57 138s-84.333 57 -139 57c-53.333 0 -99 -19 -137 -57s-57 -84 -57 -138zM543.001 333c0 -44 -15.668 -82 -47.001 -114
s-69.666 -48 -114.999 -48c-44.667 0 -82.667 15.667 -114 47s-47 69.666 -47 114.999c0 44 15.667 82 47 114s69.333 48 114 48c44 0 82 -15.667 114 -47s48 -69.666 48 -114.999zM253 333c0 -35.333 12.501 -65.5 37.501 -90.5s55.167 -37.5 90.5 -37.5
s65.666 12.333 90.999 37s38 55 38 91c0 35.333 -12.5 65.5 -37.5 90.5s-55.5 37.5 -91.5 37.5c-35.333 0 -65.5 -12.5 -90.5 -37.5s-37.5 -55.167 -37.5 -90.5z" />
    <glyph glyph-name="P" unicode="P" horiz-adv-x="585" 
d="M162 -5c-38.667 0 -67.333 13.666 -86 40.999c-16 24 -24 56 -24 96v395c0 50.667 11 86.667 33 108s58.333 32 109 32h101c76 0 139.167 -22.167 189.5 -66.5s75.5 -104.166 75.5 -179.499c0 -82 -28.667 -144.667 -86 -188c-50.667 -38 -118.334 -57 -203.001 -57
c0 -58.667 -4 -98.667 -12 -120c-15.333 -40.667 -47.666 -61 -96.999 -61zM526.001 420.999c0 66 -21.832 117.833 -65.499 155.5s-98.834 56.5 -165.501 56.5h-101c-41.333 0 -69.833 -7.16699 -85.5 -21.5s-23.5 -42.5 -23.5 -84.5v-395c0 -31.333 4.66699 -55 14 -71
c12.667 -22 33.667 -33 63 -33c31.333 0 53 12.667 65 38c8.66699 18 13 45.333 13 82c0 7.33301 -0.333008 18 -1 32s-1 23.667 -1 29c86.667 0 152.667 12.667 198 38c60 34 90 92 90 174zM162.002 61.999c-18.667 0 -31.333 7.66699 -38 23c-4 9.33301 -6 25 -6 47v395
c0 31.333 4.66699 51.333 14 60s30 13 62 13h101c57.333 0 104 -15 140 -45c38.667 -32.667 58 -77.334 58 -134.001c0 -78.667 -31.667 -130.667 -95 -156c-36.667 -14.667 -101 -22 -193 -22c0 -2 0.833008 -14.167 2.5 -36.5s2.5 -37.166 2.5 -44.499
c0 -29.333 -3 -52 -9 -68c-8 -21.333 -21 -32 -39 -32zM293.003 315.999c36.667 0 65.833 8.33301 87.5 25s32.5 43.334 32.5 80.001c0 35.333 -11 61.166 -33 77.499s-51.333 24.5 -88 24.5h-87v-207h88zM238.002 489.999l54 -0.000976562
c27.333 0 48.833 -5.16699 64.5 -15.5s23.5 -28.166 23.5 -53.499c0 -26.667 -8 -45.667 -24 -57c-13.333 -9.33301 -34.333 -14 -63 -14h-55v140zM296.002 382.998c18 0 30.001 1.66602 36.001 4.99902c9.33301 5.33301 14 16.333 14 33
c0 14.667 -4.33301 24.334 -13 29.001s-21.334 7 -38.001 7h-24v-74h25z" />
    <glyph glyph-name="Q" unicode="Q" horiz-adv-x="763" 
d="M736 95c0 -29.333 -10.666 -55 -31.999 -77s-47 -33 -77 -33c-16 0 -31.167 3.5 -45.5 10.5s-27.5 16.5 -39.5 28.5c-48 -26 -101.667 -39 -161 -39c-96 0 -178 34 -246 102s-102 150 -102 246s34.167 178.167 102.5 246.5s150.166 102.5 245.499 102.5
c96.667 0 179 -34 247 -102s102 -150.333 102 -247c0 -19.333 -5.83301 -46.5 -17.5 -81.5s-17.5 -58.167 -17.5 -69.5c9.33301 -9.33301 16 -17.333 20 -24c14 -21.333 21 -42.333 21 -63zM696.001 335c0 86 -31 159.668 -93 221.001s-135.667 92 -221 92
c-86.667 0 -160.834 -30.833 -222.501 -92.5s-92.5 -135.834 -92.5 -222.501c0 -85.333 30.667 -159 92 -221s135 -93 221 -93c29.333 0 57.833 3.83301 85.5 11.5s55.167 19.167 82.5 34.5c13.333 -14 25 -24.333 35 -31c14.667 -10 29.334 -15 44.001 -15
c20.667 0 38.5 7.5 53.5 22.5s22.5 32.833 22.5 53.5c0 14.667 -5 29.334 -15 44.001c-4 6 -15 18.333 -33 37c13.333 21.333 23.5 46.166 30.5 74.499s10.5 56.5 10.5 84.5zM670.001 95.001c0 -11.333 -4.33203 -21.3311 -12.999 -29.998s-18.667 -13 -30 -13
c-12.667 0 -29.334 10.333 -50.001 31l-25 26c-22 -18.667 -48.5 -32.834 -79.5 -42.501s-62.167 -14.5 -93.5 -14.5c-76.667 0 -142.334 27.667 -197.001 83s-82 121.333 -82 198c0 78 27.5 144.5 82.5 199.5s121.167 82.5 198.5 82.5
c76.667 0 142.834 -27.167 198.501 -81.5s83.5 -120.166 83.5 -197.499c0 -28.667 -4.33301 -58.334 -13 -89.001s-21 -56.334 -37 -77.001l34 -34c15.333 -17.333 23 -31 23 -41zM187.002 333.003c0 -53.333 18.833 -99.166 56.5 -137.499s83.5 -57.5 137.5 -57.5
s100.167 19.167 138.5 57.5s57.5 84.166 57.5 137.499c0 54 -19 100 -57 138s-84.333 57 -139 57c-53.333 0 -99 -19 -137 -57s-57 -84 -57 -138zM543.002 333.003c0 -44.667 -15.668 -82.668 -47.001 -114.001s-69.666 -47 -114.999 -47c-44.667 0 -82.667 15.667 -114 47
s-47 69.333 -47 114c0 44 15.667 82 47 114s69.333 48 114 48c44 0 82 -15.667 114 -47s48 -69.666 48 -114.999zM253.001 333.002c0 -35.333 12.501 -65.5 37.501 -90.5s55.167 -37.5 90.5 -37.5s65.666 12.333 90.999 37s38 55 38 91c0 35.333 -12.5 65.5 -37.5 90.5
s-55.5 37.5 -91.5 37.5c-35.333 0 -65.5 -12.5 -90.5 -37.5s-37.5 -55.167 -37.5 -90.5z" />
    <glyph glyph-name="R" unicode="R" horiz-adv-x="599" 
d="M540 104c0 -30.667 -10.3311 -56.668 -30.998 -78.001s-46.334 -32 -77.001 -32c-26 0 -51 11 -75 33c-8 7.33301 -36.667 46.666 -86 117.999c0 -44.667 -6.66699 -79 -20 -103c-17.333 -31.333 -47 -47 -89 -47c-38.667 0 -67.334 13.667 -86.001 41
c-16 23.333 -24 55.333 -24 96v395c0 50.667 11 86.667 33 108s58.333 32 109 32h83c80 0 146 -20.333 198 -61c57.333 -44.667 86 -106.667 86 -186c0 -35.333 -7.83301 -69.166 -23.5 -101.499s-37.5 -60.833 -65.5 -85.5c27.333 -36 42 -55.667 44 -59
c16 -25.333 24 -48.666 24 -69.999zM528.002 419.999c0 68 -24.667 121.332 -74 159.999c-45.333 35.333 -102.666 53 -171.999 53h-88c-41.333 0 -69.833 -7.16699 -85.5 -21.5s-23.5 -42.5 -23.5 -84.5v-395c0 -32 4.66699 -56 14 -72c12 -21.333 33 -32 63 -32
c31.333 0 53.333 13 66 39c8.66699 18 13 45.667 13 83c0 8 -0.333008 19 -1 33s-1 23.667 -1 29h27l65 -104c38.667 -53.333 72.667 -80 102 -80c20.667 0 38 7.33301 52 22s21 32.667 21 54c0 16.667 -11 41.667 -33 75l-47 65c31.333 17.333 56.166 41.833 74.499 73.5
s27.5 65.834 27.5 102.501zM162.002 61.998c-18.667 0 -31.335 7.66602 -38.002 22.999c-4 9.33301 -6 25 -6 47v395c0 31.333 4.66699 51.333 14 60s30 13 62 13h87c60.667 0 110.334 -14.333 149.001 -43c43.333 -32 65 -77.667 65 -137
c0 -37.333 -10.667 -70.333 -32 -99s-50.333 -50.667 -87 -66c26 -33.333 43.333 -56.333 52 -69c30 -42 45 -69.333 45 -82c0 -11.333 -3.66699 -21.333 -11 -30s-16.666 -13 -27.999 -13c-19.333 0 -49.333 29.333 -90 88l-61 96h-78
c0 -6.66699 0.833008 -19.167 2.5 -37.5s2.5 -33.166 2.5 -44.499c0 -29.333 -3 -52.333 -9 -69c-8 -21.333 -21 -32 -39 -32zM205.001 317.997h88c34 0 62.167 8.83301 84.5 26.5s33.5 43.167 33.5 76.5c0 36 -11.5 62.5 -34.5 79.5s-53.167 25.5 -90.5 25.5h-81v-208z
M238.001 492.997l48 -0.000976562c28 0 49.333 -4.66699 64 -14c18.667 -12 28 -31.333 28 -58c0 -25.333 -9.33301 -43.666 -28 -54.999c-15.333 -9.33301 -36.333 -14 -63 -14h-49v141zM287.001 384.996c18 0 31 1.66797 39 5.00098c12.667 5.33301 19 15.666 19 30.999
s-5.33301 25.5 -16 30.5s-25 7.5 -43 7.5h-15v-74h16z" />
    <glyph glyph-name="S" unicode="S" horiz-adv-x="555" 
d="M408 431c-16.667 0 -34 4.33301 -52 13c-54 26.667 -81.667 40 -83 40l-14 -11l6 -11l174 -83c57.333 -36.667 86 -92 86 -166c0 -68.667 -25 -124.334 -75 -167.001c-47.333 -40.667 -106 -61 -176 -61c-58.667 0 -111.667 13.667 -159 41
c-56.667 32.667 -85 76.667 -85 132c0 27.333 9.83301 50.5 29.5 69.5s43.5 28.5 71.5 28.5c20 0 39.333 -6.33301 58 -19c53.333 -36 82.666 -54.667 87.999 -56l21 6l8 14l-7 14l-169 81c-55.333 36 -83 90.333 -83 163c0 66.667 22.333 120.334 67 161.001
s100.667 61 168 61c51.333 0 99.333 -11.667 144 -35c54 -28.667 81 -66.667 81 -114c0 -27.333 -9.66699 -51 -29 -71s-42.666 -30 -69.999 -30zM282 651c-58.667 0 -106.832 -17.3311 -144.499 -51.998s-56.5 -81.334 -56.5 -140.001c0 -58 22 -103.333 66 -136
c17.333 -12.667 58.666 -32.334 123.999 -59.001c45.333 -18.667 68 -38.667 68 -60c0 -16 -6.16699 -28.5 -18.5 -37.5s-26.833 -13.5 -43.5 -13.5c-24 0 -50.167 11.833 -78.5 35.5s-50.5 35.5 -66.5 35.5c-18.667 0 -35 -6.33301 -49 -19s-21 -28.667 -21 -48
c0 -43.333 25.333 -78.333 76 -105c42.667 -22.667 87.667 -34 135 -34c60.667 0 111.667 17 153 51c44 36.667 66 84.667 66 144c0 58 -23 103.667 -69 137c-18 12.667 -60.667 33 -128 61c-46 18.667 -69 39 -69 61c0 12.667 4.66699 23 14 31s20.333 12 33 12
c13.333 0 41.666 -11.667 84.999 -35c20 -10.667 36.667 -16 50 -16c18 0 33.333 6.66699 46 20s19 29.333 19 48c0 37.333 -23.333 67.333 -70 90c-39.333 19.333 -79.666 29 -120.999 29zM282.002 618.002c31.333 0 63.334 -6.66504 96.001 -19.998
c41.333 -16.667 62 -38.334 62 -65.001c0 -9.33301 -3 -17.333 -9 -24s-13.667 -10 -23 -10c-6 0 -31.333 11.667 -76 35c-20.667 10.667 -39.667 16 -57 16c-22.667 0 -42.167 -7.16699 -58.5 -21.5s-24.5 -32.833 -24.5 -55.5c0 -34.667 23 -62.667 69 -84l128 -56
c46 -28.667 69 -68.667 69 -120c0 -50.667 -17.833 -90.334 -53.5 -119.001s-79.5 -43 -131.5 -43c-38 0 -74.667 8 -110 24c-45.333 20.667 -68 47.667 -68 81c0 10.667 3.5 19.167 10.5 25.5s15.5 9.5 25.5 9.5c6 0 23 -11.667 51 -35s59 -35 93 -35
c26 0 48.5 7.66699 67.5 23s28.5 36 28.5 62c0 34 -21.333 60.5 -64 79.5l-126 55.5c-44.667 28 -67 67 -67 117c0 49.333 15.667 88.333 47 117s71.666 43 120.999 43z" />
    <glyph glyph-name="T" unicode="T" horiz-adv-x="590" 
d="M19 560c0 36.667 11.999 63.501 35.999 80.501s54.667 25.5 92 25.5h296c37.333 0 68 -8.5 92 -25.5s36 -43.833 36 -80.5c0 -46 -18 -76.667 -54 -92c-23.333 -10 -60.666 -15 -111.999 -15v-321c0 -40.667 -7.66699 -72.334 -23 -95.001
c-18.667 -28 -47.667 -42 -87 -42c-38.667 0 -67.334 13.667 -86.001 41c-16 24 -24 56 -24 96v321c-53.333 0 -90.666 4.66699 -111.999 14c-36 15.333 -54 46.333 -54 93zM217.999 132.001c0 -31.333 4.66602 -55 13.999 -71c12.667 -22 33.667 -33 63 -33
c28.667 0 49.334 10.667 62.001 32c10 17.333 15 41.333 15 72v354c8 0 16.5 -0.166992 25.5 -0.5s18.5 -0.5 28.5 -0.5c34 0 59.333 4 76 12c24 11.333 36 32.333 36 63c0 27.333 -8.66699 46.333 -26 57s-40.333 16 -69 16h-296c-28.667 0 -50.667 -4.66699 -66 -14
c-19.333 -12 -29 -31.667 -29 -59c0 -30 11.667 -50.667 35 -62c18 -8.66699 43.667 -13 77 -13h27.5c9 0 17.833 0.333008 26.5 1v-354zM84.998 560.001c0 18 5.66602 29.167 16.999 33.5s27.666 6.5 48.999 6.5h288c20.667 0 36.834 -2.16699 48.501 -6.5
s17.5 -15.5 17.5 -33.5c0 -17.333 -8.5 -29 -25.5 -35s-39.5 -9 -67.5 -9c-11.333 0 -23.166 0.333008 -35.499 1s-25.166 1.66699 -38.499 3v-388c0 -21.333 -2 -37 -6 -47c-6 -15.333 -18.333 -23 -37 -23s-31.334 7.66699 -38.001 23c-4 9.33301 -6 25 -6 47v388
c-1.33301 0 -10.666 -0.666992 -27.999 -2s-32.333 -2 -45 -2c-36.667 0 -61.334 3.83301 -74.001 11.5s-19 18.5 -19 32.5z" />
    <glyph glyph-name="U" unicode="U" horiz-adv-x="648" 
d="M603 310c0 -97.333 -21.001 -173.668 -63.001 -229.001c-48 -63.333 -120 -95 -216 -95c-95.333 0 -167 31.667 -215 95c-42.667 56.667 -64 133 -64 229v225c0 40.667 7.66699 72.334 23 95.001c18.667 27.333 47.667 41 87 41c46 0 77.667 -19.333 95 -58
c13.333 -29.333 20 -74.333 20 -135c0 -24.667 -0.333008 -44.667 -1 -60c-2.66699 -62 -4 -94.667 -4 -98c0 -40.667 3.83301 -70.834 11.5 -90.501s23.5 -29.5 47.5 -29.5s40.667 12 50 36c7.33301 18.667 11 49 11 91c0 20.667 -0.833008 50.834 -2.5 90.501
s-2.5 63.834 -2.5 72.501c0 57.333 6.66699 99.666 20 126.999c17.333 36 48.333 54 93 54c38.667 0 67.334 -13.667 86.001 -41c16 -23.333 24 -55 24 -95v-225zM323.999 166.998c-36.667 0 -62.332 15.665 -76.999 46.998c-11.333 24.667 -17 63 -17 115
c0 18 1 45.667 3 83s3 65 3 83c0 45.333 -5 79 -15 101c-12.667 28 -34.667 42 -66 42c-29.333 0 -50 -10.333 -62 -31c-9.33301 -16 -14 -40 -14 -72l-1 -219c0 -89.333 17.333 -158.666 52 -207.999c41.333 -58.667 106 -88 194 -88c87.333 0 151.666 29 192.999 87
c35.333 50 53 119.667 53 209l-1 219c0 30.667 -4.66699 54.334 -14 71.001c-12 21.333 -32.667 32 -62 32s-49.5 -9.33301 -60.5 -28s-16.5 -43.667 -16.5 -75l1 -218c0 -45.333 -4.33301 -78.333 -13 -99c-14 -34 -40.667 -51 -80 -51zM536.001 315.996
c0 -80 -14.334 -141.665 -43.001 -184.998c-34.667 -52 -91 -78 -169 -78c-77.333 0 -133.333 26 -168 78c-29.333 44 -44 105.667 -44 185v219c0 22.667 1.66699 38 5 46c6.66699 16 19.334 24 38.001 24s31.667 -10.667 39 -32c5.33301 -16 8 -43 8 -81
c0 -21.333 -0.333008 -39.333 -1 -54c-2.66699 -57.333 -4 -90 -4 -98c0 -64.667 7.33301 -112.667 22 -144c20 -42 55 -63 105 -63c50.667 0 86 21.333 106 64c14.667 31.333 22 79.666 22 144.999c0 26 -0.333008 47 -1 63c-2.66699 63.333 -4 95.666 -4 96.999
c0 34 3 59.667 9 77s18.333 26 37 26s31 -7.66699 37 -23c4 -10 6 -25.667 6 -47v-219z" />
    <glyph glyph-name="V" unicode="V" horiz-adv-x="685" 
d="M450 593c10.667 24 24.832 42.999 42.499 56.999s38.834 21 63.501 21c30.667 0 57 -10.333 79 -31s33 -46 33 -76c0 -27.333 -16 -77.333 -48 -150c-21.333 -49.333 -53.666 -116 -96.999 -200c-48.667 -94.667 -73.334 -143 -74.001 -145
c-11.333 -24 -25.5 -42.333 -42.5 -55s-38.167 -19 -63.5 -19s-46.5 6.33301 -63.5 19s-31.5 31 -43.5 55c-4.66699 10.667 -28.5 57.834 -71.5 141.501s-75.833 151.167 -98.5 202.5c-32.667 74 -49 124.667 -49 152c0 29.333 11.333 54.333 34 75s48.667 31 78 31
c24.667 0 46 -7 64 -21s32 -33 42 -57l108 -250zM204.998 579.999c-8 17.333 -18.168 31.333 -30.501 42s-27.5 16 -45.5 16c-20.667 0 -39 -7 -55 -21s-24 -31.333 -24 -52c0 -19.333 16.333 -65.333 49 -138c28.667 -64 61 -132 97 -204l71 -140c8 -18 18 -31.667 30 -41
s27.333 -14 46 -14c18 0 33 4.83301 45 14.5s22 23.167 30 40.5l70 140c36.667 73.333 69 141.333 97 204c33.333 74 50 119.667 50 137c0 20.667 -7.83301 38.167 -23.5 52.5s-33.834 21.5 -54.501 21.5c-17.333 0 -32.666 -5.33301 -45.999 -16
s-23.666 -24.667 -30.999 -42l-137 -322zM510.997 566.999c5.33301 12 10.666 20.668 15.999 26.001c8 7.33301 17.667 11 29 11c12.667 0 23.5 -3.5 32.5 -10.5s13.5 -16.833 13.5 -29.5c0 -10.667 -16.667 -52.667 -50 -126l-99 -207l-66 -136
c-4.66699 -10 -10.667 -18.167 -18 -24.5s-16 -9.5 -26 -9.5s-18.667 3.16699 -26 9.5s-13.666 14.5 -18.999 24.5l-153 318c-41.333 89.333 -62 140 -62 152c0 11.333 4.66699 20.666 14 27.999s20 11 32 11c10.667 0 19.667 -3.33301 27 -10s13.333 -15.667 18 -27
l169 -394z" />
    <glyph glyph-name="W" unicode="W" horiz-adv-x="951" 
d="M823 671c30.667 0 56.833 -9.83105 78.5 -29.498s32.5 -44.5 32.5 -74.5c0 -36.667 -10.333 -85 -31 -145c-14 -40.667 -36.333 -96.334 -67 -167.001c-33.333 -76.667 -52.666 -122.334 -57.999 -137.001c-16.667 -44.667 -29.334 -73 -38.001 -85
c-18.667 -25.333 -45.667 -38 -81 -38c-47.333 0 -88.333 38.333 -123 115c-31.333 89.333 -51.333 145.333 -60 168l-60 -167c-35.333 -77.333 -76.666 -116 -123.999 -116c-34.667 0 -61.334 12.667 -80.001 38c-10.667 14 -23.667 42.333 -39 85
c-8 22 -27 67.333 -57 136c-32 74 -54.333 129.333 -67 166c-21.333 62 -32 110.333 -32 145c0 30 10.833 55.167 32.5 75.5s47.834 30.5 78.501 30.5c55.333 0 99.666 -46.333 132.999 -139l37 -112l55 157c30.667 62.667 71.667 94 123 94c58.667 0 104.667 -45 138 -135
l39 -116l53 153c30 65.333 69 98 117 98zM475.999 639.002c-32.667 0 -63.002 -24.001 -91.002 -72.001c-20 -33.333 -39.333 -80.666 -58 -141.999l-29 -100l-76 225c-29.333 58.667 -60.666 88 -93.999 88c-21.333 0 -39.666 -6.66699 -54.999 -20s-23 -30.333 -23 -51
c0 -30.667 10.667 -76.667 32 -138c14 -40.667 36.5 -97.167 67.5 -169.5s49.167 -115.833 54.5 -130.5c14 -38 23.333 -60.333 28 -67c14.667 -22.667 34.667 -34 60 -34c26.667 0 55.667 28.667 87 86c22 40 44.333 94 67 162l30 94l28 -94
c22 -67.333 44 -121.333 66 -162c31.333 -57.333 61.333 -86 90 -86c25.333 0 45 11.333 59 34c4 6 13.333 28.333 28 67l90 216c42.667 105.333 64 179.333 64 222c0 21.333 -7.66699 38.5 -23 51.5s-33.666 19.5 -54.999 19.5c-40.667 0 -79.667 -47.667 -117 -143
c-32 -102 -50 -158.667 -54 -170l-75 225c-30.667 59.333 -64.334 89 -101.001 89zM796.997 596.001l26.001 9.00391l32 -11l13 -29c-6.66699 -46.667 -30.667 -124.834 -72 -234.501s-78 -195.834 -110 -258.501c-6 -2.66699 -11.333 -4.83398 -16 -6.50098
s-8.33398 -3.16699 -11.001 -4.5c-16.667 0 -31.667 15.667 -45 47c-8 19.333 -13 32 -15 38l-123 315l-123 -315l-20 -52c-10 -18.667 -23.667 -29.667 -41 -33l-26 11c-32 59.333 -68.5 144.166 -109.5 254.499s-65.5 189.833 -73.5 238.5l13 29l31 11l28 -10
c26.667 -42.667 53.334 -102 80.001 -178l64 -186l115 307c8 22 14.667 37 20 45c10.667 14.667 24.667 22 42 22c13.333 0 24.166 -3.83301 32.499 -11.5s18.166 -26.167 29.499 -55.5l114 -307c6 16 21.667 62 47 138c34.667 104 67.334 179.667 98.001 227z" />
    <glyph glyph-name="X" unicode="X" horiz-adv-x="618" 
d="M477 673c29.333 0 55 -10.667 77 -32s33 -47 33 -77c0 -28.667 -19.667 -69.667 -59 -123l-81 -100c34 -39.333 62.333 -74.333 85 -105c44 -59.333 66 -104 66 -134c0 -29.333 -11 -54.666 -33 -75.999s-47.667 -32 -77 -32c-39.333 0 -81.333 29.667 -126 89l-53 75
l-73 -100c-36.667 -42.667 -71.667 -64 -105 -64c-30 0 -56 10.333 -78 31s-33 46.334 -33 77.001c0 29.333 22 73.666 66 132.999l85 106l-79 99c-40.667 55.333 -61 96.666 -61 123.999c0 30 11 55.667 33 77s48 32 78 32c26 0 51.333 -11 76 -33
c6.66699 -6 37 -45 91 -117l69 94c32.667 37.333 65.667 56 99 56zM142 640c-20.667 0 -38.832 -7.5 -54.499 -22.5s-23.5 -32.833 -23.5 -53.5c0 -22.667 23.333 -64.667 70 -126l79 -97l-111 -141c-32.667 -46.667 -49 -79 -49 -97c0 -21.333 7.66699 -39.333 23 -54
s33.666 -22 54.999 -22c28.667 0 64.334 27.667 107.001 83c40.667 60 64.334 94.333 71.001 103l98 -133c32.667 -35.333 59.667 -53 81 -53c20 0 37.833 7.5 53.5 22.5s23.5 32.5 23.5 52.5c0 25.333 -24.667 70.333 -74 135c-52.667 63.333 -81.334 98 -86.001 104
l105 132c29.333 42.667 44 73 44 91c0 20 -7.66699 37.667 -23 53s-33.333 23 -54 23c-26.667 0 -60 -25.333 -100 -76c-38.667 -55.333 -61.334 -87.333 -68.001 -96l-67 97c-38.667 50 -72 75 -100 75zM426.002 567c9.33301 12 16.332 20.3311 20.999 24.998
c10 9.33301 20 14 30 14c11.333 0 21.5 -4.16699 30.5 -12.5s13.5 -18.166 13.5 -29.499c0 -14 -26.333 -55.333 -79 -124l-79 -99c10.667 -10.667 39 -46 85 -106c56 -73.333 84 -117.666 84 -132.999c0 -12 -4.33301 -22 -13 -30s-19 -12 -31 -12
c-18.667 0 -54 34.667 -106 104c-17.333 22.667 -41.666 57.667 -72.999 105l-128 -170c-11.333 -14 -18.333 -22.333 -21 -25c-10 -9.33301 -20 -14 -30 -14c-11.333 0 -21.5 4.16699 -30.5 12.5s-13.5 18.166 -13.5 29.499s14.333 37.333 43 78
c17.333 24.667 44.666 60.334 81.999 107.001c28.667 36 43.334 54 44.001 54l-80 99c-51.333 66.667 -77 108 -77 124c0 12 4.33301 22 13 30s19 12 31 12c18 0 48.667 -29 92 -87l75 -106z" />
    <glyph glyph-name="Y" unicode="Y" horiz-adv-x="602" 
d="M17 563c0 29.333 10.998 54.667 32.998 76s47.667 32 77 32c41.333 0 83.333 -31 126 -93l51 -78l66 107c32.667 42.667 67.334 64 104.001 64c30 0 55.833 -10.5 77.5 -31.5s32.5 -46.5 32.5 -76.5c0 -31.333 -26.333 -84.666 -79 -159.999l-94 -126
c0 -9.33301 0.666992 -27.833 2 -55.5s2 -44.834 2 -51.501c0 -53.333 -6.33301 -93 -19 -119c-18 -37.333 -49.667 -56 -95 -56s-76.666 18.667 -93.999 56c-12.667 26.667 -19 67 -19 121c0 20 0.333008 38.5 1 55.5l2 49.5l-123 170c-34 53.333 -51 92 -51 116z
M300.998 28.001c31.333 0 53.666 15.3311 66.999 45.998c10 23.333 15 56.666 15 99.999c0 23.333 -0.666992 42.833 -2 58.5s-2.66602 34.167 -3.99902 55.5l121 165c35.333 54 53 90.667 53 110c0 20.667 -7.66699 38.334 -23 53.001s-33.333 22 -54 22
c-30 0 -64.667 -29 -104 -87c-37.333 -63.333 -59.333 -100 -66 -110l-95 141c-32 37.333 -59.333 56 -82 56c-20 0 -37.833 -7.5 -53.5 -22.5s-23.5 -32.5 -23.5 -52.5c0 -24 28 -75.667 84 -155l90 -120c0 -12 -0.333008 -22.667 -1 -32
c-3.33301 -45.333 -5 -72.666 -5 -81.999c0 -43.333 5 -76.666 15 -99.999c13.333 -30.667 36 -46 68 -46zM82.998 562.999c0 12 4.33301 21.999 13 29.999s19 12 31 12c14.667 0 39.667 -22.667 75 -68l105 -153l94 153c32.667 45.333 57 68 73 68
c11.333 0 21.5 -4.16699 30.5 -12.5s13.5 -18.166 13.5 -29.499c0 -14.667 -28 -61.667 -84 -141l-90 -124v-166c0 -21.333 -2 -37 -6 -47c-6 -15.333 -18.333 -23 -37 -23s-31.334 7.66699 -38.001 23c-4 9.33301 -6 25 -6 47v166l-48 66
c-35.333 48 -62.666 87 -81.999 117c-29.333 44.667 -44 72 -44 82z" />
    <glyph glyph-name="Z" unicode="Z" horiz-adv-x="602" 
d="M23 560c0 36.667 11.999 63.501 35.999 80.501s54.667 25.5 92 25.5h288c36.667 0 66 -6.66699 88 -20c27.333 -16.667 41 -42.667 41 -78c0 -22 -18.667 -63 -56 -123c-26.667 -42.667 -62 -94 -106 -154l-59 -78c8.66699 0 23.5 0.333008 44.5 1s31.833 1 32.5 1
c48 0 84 -6 108 -18c33.333 -16.667 50 -47 50 -91c0 -36.667 -12.667 -64 -38 -82c-22.667 -16 -52.667 -24 -90 -24h-308c-36 0 -64.333 7.33301 -85 22c-24 16.667 -36 42.667 -36 78c0 24.667 18 66 54 124c24.667 39.333 59.334 88.666 104.001 147.999l62 81
c-10 0 -20 -0.166992 -30 -0.5s-20 -0.5 -30 -0.5c-63.333 0 -107 10 -131 30c-20.667 17.333 -31 43.333 -31 78zM57.999 100.001c0 -26 9.33105 -44.3311 27.998 -54.998c14 -8 35.333 -12 64 -12h304c28 0 50 5 66 15c19.333 12 29 31.333 29 58
c0 30.667 -15.667 52.667 -47 66c-23.333 10 -57 15 -101 15c-21.333 0 -42.166 -0.833008 -62.499 -2.5l-54.5 -4.5c0.666992 0 22.334 29.333 65.001 88c50.667 69.333 91 127.666 121 174.999c43.333 67.333 65 109.333 65 126c0 25.333 -11.333 43 -34 53
c-16 7.33301 -38 11 -66 11h-279c-30 0 -52.667 -4.33301 -68 -13c-20.667 -12 -31 -32 -31 -60c0 -30.667 14.667 -52.334 44 -65.001c22.667 -10 55 -15 97 -15c22.667 0 41.667 0.5 57 1.5s33.333 2.5 54 4.5l-67 -88c-49.333 -66 -89.333 -122.667 -120 -170
c-42.667 -66 -64 -108.667 -64 -128zM155.997 520.003c-20.667 0 -35.334 1.66504 -44.001 4.99805c-14.667 6 -22 17.667 -22 35c0 16.667 6 27.5 18 32.5s28 7.5 48 7.5h283c18 0 30.667 -1 38 -3c16 -4.66699 24 -13.667 24 -27c0 -12 -23 -52.667 -69 -122l-132 -191
l-79 -111h229c20.667 0 36.834 -2.16699 48.501 -6.5s17.5 -15.5 17.5 -33.5c0 -16 -6.66699 -27 -20 -33c-9.33301 -4 -23.333 -6 -42 -6h-307c-18 0 -30.333 1.33301 -37 4c-12.667 4.66699 -19 14.334 -19 29.001c0 12.667 23.667 54.334 71 125.001l134 191l76 104h-216
z" />
    <glyph glyph-name="bracketleft" unicode="[" 
d="M467 10c0 -35.333 -12.332 -61.665 -36.999 -78.998c-22 -14.667 -51.667 -22 -89 -22h-119c-50.667 0 -87.167 10.833 -109.5 32.5s-33.5 58.167 -33.5 109.5v565c0 51.333 11 87.666 33 108.999s58.667 32 110 32h119c37.333 0 66.666 -7 87.999 -21
c25.333 -18 38 -44.667 38 -80c0 -46 -19.333 -76 -58 -90c-21.333 -7.33301 -60 -11 -116 -11v-443c56.667 0 95 -3.33301 115 -10c39.333 -14.667 59 -45.334 59 -92.001zM259.001 589.001c6.66699 0 18.832 -0.333008 36.499 -1s27.167 -1 28.5 -1
c32.667 0 57 3.66699 73 11c24 10.667 36 30 36 58c0 25.333 -8.5 43 -25.5 53s-39.167 15 -66.5 15h-119c-42 0 -70.833 -7.5 -86.5 -22.5s-23.5 -43.5 -23.5 -85.5v-565c0 -42.667 7.83301 -71.5 23.5 -86.5s44.5 -22.5 86.5 -22.5h119c28 0 49.333 4.33301 64 13
c18.667 10.667 28 29 28 55c0 28 -12 47.333 -36 58c-17.333 8 -42.666 12 -75.999 12c-8 0 -19.167 -0.333008 -33.5 -1s-23.833 -1 -28.5 -1v511zM398.999 10.001c0 -14.667 -4.83105 -24 -14.498 -28s-22.834 -6 -39.501 -6h-126c-29.333 0 -48.833 4.5 -58.5 13.5
s-14.5 28.5 -14.5 58.5v571c0 30 4.66699 49.333 14 58s29 13 59 13h126c17.333 0 30.666 -1.83301 39.999 -5.5s14 -13.167 14 -28.5c0 -14.667 -9 -24.834 -27 -30.501s-40.333 -8.5 -67 -8.5c-18 0 -33.5 0.5 -46.5 1.5s-23.833 2.16699 -32.5 3.5v-578
c2 0 13.5 0.833008 34.5 2.5s36.5 2.5 46.5 2.5c27.333 0 49.5 -2.66699 66.5 -8s25.5 -15.666 25.5 -30.999z" />
    <glyph glyph-name="backslash" unicode="\" horiz-adv-x="573" 
d="M473 -90c-22 0 -40.667 6.33301 -56 19c-11.333 9.33301 -23.333 25.666 -36 48.999c-0.666992 1.33301 -40.167 67.333 -118.5 198s-134.833 228 -169.5 292c-57.333 106 -86 171.667 -86 197s9.33301 47 28 65s40.667 27 66 27c16.667 0 31 -3.66699 43 -11
c16 -10 32 -29 48 -57l119 -198c70.667 -117.333 127 -214.666 169 -291.999c58 -106.667 87 -172.667 87 -198s-9.16699 -46.833 -27.5 -64.5s-40.5 -26.5 -66.5 -26.5zM534 1c0 16 -28.999 76.668 -86.999 182.001l-170 296l-114 194
c-8.66699 15.333 -16.667 26.666 -24 33.999c-10.667 10.667 -23.334 16 -38.001 16c-16 0 -30.167 -5.83301 -42.5 -17.5s-18.5 -25.167 -18.5 -40.5c0 -16 29 -76.667 87 -182l170 -296l113 -193c8.66699 -14.667 17 -26 25 -34c11.333 -11.333 24 -17 38 -17
c15.333 0 29.333 5.66699 42 17s19 25 19 41zM492.001 -15.999l-19 -7c-10 4 -17 8 -21 12c-1.33301 1.33301 -5.66602 8.33301 -12.999 21l-351 620l-15 35l9 17l19 8c9.33301 -4 15.666 -7.83301 18.999 -11.5s8 -11.167 14 -22.5l351 -619
c7.33301 -10.667 12.333 -22.667 15 -36z" />
    <glyph glyph-name="bracketright" unicode="]" 
d="M207 555c-56.667 0 -94.668 3.33203 -114.001 9.99902c-40 14 -60 44.333 -60 91c0 35.333 12 61 36 77s54.333 24 91 24h119c50.667 0 87.334 -10.667 110.001 -32s34 -57.666 34 -108.999v-565c0 -50.667 -11 -87 -33 -109s-59 -33 -111 -33h-119
c-38 0 -67.667 7 -89 21c-25.333 18 -38 44.667 -38 80c0 45.333 19.667 75.333 59 90c22 8 60.333 12 115 12v443zM66.999 9.99902c0 -26 9.66797 -44.332 29.001 -54.999c14 -8.66699 35.333 -13 64 -13h119c42 0 71 7.66699 87 23s24 44 24 86v565
c0 42 -7.83301 70.5 -23.5 85.5s-44.834 22.5 -87.501 22.5h-119c-28.667 0 -50 -4.33301 -64 -13c-19.333 -10.667 -29 -29 -29 -55c0 -27.333 11.667 -46.333 35 -57c17.333 -8 42.333 -12 75 -12c8.66699 0 20.5 0.333008 35.5 1s24.833 1 29.5 1v-511
c-4.66699 0 -14.167 0.333008 -28.5 1s-25.5 1 -33.5 1c-35.333 0 -61 -3.66699 -77 -11c-24 -10.667 -36 -30.334 -36 -59.001zM275 622c-12.667 -1.33301 -27.165 -2.49805 -43.498 -3.49805s-28.5 -1.5 -36.5 -1.5c-26.667 0 -49 2.66699 -67 8s-27 15.666 -27 30.999
c0 14.667 4.83301 24 14.5 28s23.167 6 40.5 6h126c30.667 0 50.667 -4.33301 60 -13s14 -28 14 -58v-571c0 -30 -4.83301 -49.5 -14.5 -58.5s-29.5 -13.5 -59.5 -13.5h-126c-16.667 0 -29 1.66699 -37 5c-12 5.33301 -18 15 -18 29c0 15.333 8.66699 25.666 26 30.999
s39.666 8 66.999 8c18 0 33.667 -0.666992 47 -2s24.666 -2.33301 33.999 -3v578z" />
    <glyph glyph-name="asciicircum" unicode="^" 
d="M182 486c-7.33301 -12 -16.0029 -20.668 -26.0029 -26.001c-12 -6.66699 -26.333 -10 -43 -10c-19.333 0 -36.166 4.66699 -50.499 14s-21.5 20.666 -21.5 33.999c0 12 10.333 35 31 69c13.333 20 34.5 50.167 63.5 90.5s44.833 62.5 47.5 66.5
c6.66699 10.667 15.334 18.834 26.001 24.501s24.334 8.5 41.001 8.5c17.333 0 31.166 -2.66699 41.499 -8s19.166 -13.666 26.499 -24.999l80 -110c41.333 -60 62 -98.667 62 -116c0 -13.333 -7.16699 -24.666 -21.5 -33.999s-31.166 -14 -50.499 -14
c-16 0 -29.667 3.16699 -41 9.5s-20.666 15.166 -27.999 26.499l-69 113zM338.997 490.999c4.66699 -7.33301 11.1689 -13.501 19.502 -18.501s18.166 -7.5 29.499 -7.5c14 0 26 3.16699 36 9.5s15 14.166 15 23.499s-10.333 30.333 -31 63l-63 92l-46 64
c-5.33301 8 -11.666 14.167 -18.999 18.5s-17.333 6.5 -30 6.5c-12 0 -21.833 -2.16699 -29.5 -6.5s-13.834 -10.5 -18.501 -18.5l-77 -110c-42 -61.333 -63 -97.666 -63 -108.999c0 -9.33301 5 -17.166 15 -23.499s22 -9.5 36 -9.5c10.667 0 20.167 2.33301 28.5 7
s15.166 11 20.499 19l88 147zM141.999 496.998c-2.66699 -4 -5.00098 -6.66504 -7.00098 -7.99805c-6 -6 -13.333 -9 -22 -9c-19.333 0 -29 6 -29 18c0 7.33301 21 42.333 63 105c10.667 16.667 35.667 53 75 109c4 5.33301 8 9.16602 12 11.499s9.33301 3.5 16 3.5
s12.334 -1.16699 17.001 -3.5s8.5 -5.83301 11.5 -10.5s17.167 -25.334 42.5 -62.001l63 -95c22 -33.333 33 -52.666 33 -57.999c0 -4.66699 -2.83301 -8.83398 -8.5 -12.501s-12.5 -5.5 -20.5 -5.5c-6.66699 0 -12.5 1.66699 -17.5 5s-8.83301 7.33301 -11.5 12l-109 179z
" />
    <glyph glyph-name="underscore" unicode="_" horiz-adv-x="658" 
d="M22 5c0 34 12 59.666 36 76.999c21.333 15.333 49.333 23 84 23h373c34 0 61.667 -7.66699 83 -23c24 -17.333 36 -43 36 -77c0 -33.333 -11.667 -58.666 -35 -75.999c-21.333 -14.667 -49.333 -22 -84 -22h-373c-35.333 0 -63.333 7 -84 21c-24 17.333 -36 43 -36 77z
M52 4.99902c0 -25.333 9.33301 -43.667 28 -55c15.333 -8.66699 36 -13 62 -13h372c27.333 0 48 4 62 12c18.667 11.333 28 30 28 56c0 26.667 -8.16699 45 -24.5 55s-38.166 15 -65.499 15h-372c-26.667 0 -47.334 -4.33301 -62.001 -13c-18.667 -12 -28 -31 -28 -57z
M83 4.99805c0 16.667 5.33301 27.499 16 32.499s25 7.5 43 7.5h373c22.667 0 38.167 -3.5 46.5 -10.5s12.5 -16.833 12.5 -29.5c0 -15.333 -6.33301 -26 -19 -32c-8.66699 -4.66699 -22 -7 -40 -7h-373c-23.333 0 -39 3.33301 -47 10s-12 16.334 -12 29.001z" />
    <glyph glyph-name="grave" unicode="`" horiz-adv-x="337" 
d="M199 554c-20.667 0 -42.667 11.667 -66 35c-15.333 16.667 -26 28 -32 34c-12 11.333 -20 20.333 -24 27c-6.66699 10.667 -10 22.667 -10 36c0 20 7 37 21 51s31 21 51 21c14.667 0 28.667 -5 42 -15c5.33301 -4 12.333 -10.333 21 -19c32 -30.667 50 -49 54 -55
c10 -14.667 15 -29 15 -43c0 -20 -7 -37 -21 -51s-31 -21 -51 -21zM248 626c0 14.667 -11.334 33.333 -34.001 56l-28 26.5c-9.33301 9 -16 14.833 -20 17.5c-8.66699 6 -17.667 9 -27 9c-13.333 0 -25 -4.66699 -35 -14s-15 -21 -15 -35c0 -15.333 11.333 -34.333 34 -57
c14.667 -12.667 24 -21 28 -25c8 -8 15.833 -14.5 23.5 -19.5s15.834 -7.5 24.501 -7.5c13.333 0 24.833 4.83301 34.5 14.5s14.5 21.167 14.5 34.5zM198.999 599.999c-8.66699 0 -25.168 12.167 -49.501 36.5s-36.5 40.833 -36.5 49.5c0 7.33301 2.5 13.5 7.5 18.5
s11.167 7.5 18.5 7.5c8.66699 0 25.167 -12.167 49.5 -36.5s36.5 -40.833 36.5 -49.5c0 -5.33301 -1.33301 -10 -4 -14c-5.33301 -8 -12.666 -12 -21.999 -12z" />
    <glyph glyph-name="a" unicode="a" horiz-adv-x="548" 
d="M210 103c-20 -42 -32.665 -67.002 -37.998 -75.002c-18.667 -26 -42 -39 -70 -39c-23.333 0 -44 8.33301 -62 25s-27 37 -27 61c0 22.667 13 63.334 39 122.001c18 40 44 93.333 78 160l58 113c9.33301 18.667 20.833 33.334 34.5 44.001s30.5 16 50.5 16
c20.667 0 37.667 -5 51 -15s24.666 -25 33.999 -45l57 -112c39.333 -76.667 65.666 -130 78.999 -160c26 -59.333 39 -100.333 39 -123c0 -24 -8.66699 -44.333 -26 -61s-38 -25 -62 -25c-28 0 -51.333 12.667 -70 38c-6 8.66699 -19 34 -39 76h-126zM445.002 15.998
c16 0 30.167 5.83301 42.5 17.5s18.5 25.5 18.5 41.5c0 16.667 -13.333 54.667 -40 114c-20 44.667 -46 98.667 -78 162l-54 107c-7.33301 15.333 -15 26.333 -23 33c-10 8.66699 -22.667 13 -38 13c-14.667 0 -26.667 -4 -36 -12s-17.333 -19.333 -24 -34l-124 -248
c-32.667 -70.667 -49 -115.667 -49 -135c0 -16 6.16699 -29.833 18.5 -41.5s26.833 -17.5 43.5 -17.5c26 0 48.667 20.333 68 61l23 52h160l32 -70c16.667 -28.667 36.667 -43 60 -43zM176.002 155.998c-12 -32 -20.334 -52.333 -25.001 -61
c-17.333 -34.667 -33.666 -52 -48.999 -52c-9.33301 0 -17.5 3.16699 -24.5 9.5s-10.5 13.833 -10.5 22.5c0 10 13.333 44.333 40 103l78 165l52 104c4 10 8.66699 17.5 14 22.5s12.666 7.5 21.999 7.5c8.66699 0 16.334 -3 23.001 -9c4.66699 -4 9.66699 -11.833 15 -23.5
s21.666 -45.5 48.999 -101.5l79 -164c27.333 -60 41 -94.667 41 -104s-3.66699 -17 -11 -23s-15.666 -9 -24.999 -9c-14.667 0 -30.667 17.333 -48 52c-15.333 36.667 -24 57 -26 61h-194zM340.001 219.998l-67 142l-66 -142h133zM273.001 298.998l25 -53h-49z" />
    <glyph glyph-name="b" unicode="b" horiz-adv-x="462" 
d="M441 175c0 -61.333 -21.334 -108 -64.001 -140c-37.333 -28 -87.666 -42 -150.999 -42h-83c-40.667 0 -69.834 8.5 -87.501 25.5s-26.5 45.833 -26.5 86.5v310c0 40.667 8.83301 69.5 26.5 86.5s46.834 25.5 87.501 25.5h70c60.667 0 110 -12.667 148 -38
c45.333 -30 68 -74.333 68 -133c0 -29.333 -6.66699 -57.333 -20 -84c10.667 -12.667 18.667 -27.5 24 -44.5s8 -34.5 8 -52.5zM401.999 356c0 50.667 -19.6699 88.3311 -59.0029 112.998c-33.333 20.667 -76.666 31 -129.999 31h-70
c-33.333 0 -56.166 -5.83301 -68.499 -17.5s-18.5 -34.167 -18.5 -67.5v-310c0 -32.667 6.33301 -55 19 -67s35.334 -18 68.001 -18h83c55.333 0 99 11.333 131 34c38 26.667 57 67 57 121c0 18.667 -3 35.834 -9 51.501s-15.667 29.834 -29 42.501
c17.333 25.333 26 54.333 26 87zM387.996 174.997c0 -46 -16.334 -79.667 -49.001 -101c-28 -18 -66 -27 -114 -27h-86c-23.333 0 -38.666 3.66699 -45.999 11s-11 23 -11 47v310c0 25.333 3.66699 41.333 11 48s24 10 50 10h69c48.667 0 86 -7.33301 112 -22
c34.667 -19.333 52 -52 52 -98c0 -36.667 -13 -65 -39 -85c16 -8.66699 28.5 -21.5 37.5 -38.5s13.5 -35.167 13.5 -54.5zM151.995 286.997h87c21.333 0 38.333 5 51 15s19 25.333 19 46c0 20 -6.5 35.167 -19.5 45.5s-29.833 15.5 -50.5 15.5h-87v-122zM151.995 110.997h93
c21.333 0 38.5 5 51.5 15s19.5 25.333 19.5 46c0 20 -6.66699 35.167 -20 45.5s-30.333 15.5 -51 15.5h-93v-122zM240.995 381.997c13.333 0 23.668 -2.5 31.001 -7.5s11 -13.833 11 -26.5c0 -12 -3.83301 -20.833 -11.5 -26.5s-17.834 -8.5 -30.501 -8.5h-63v69h63z
M246.997 206.997c12.667 0 22.832 -2.83301 30.499 -8.5s11.5 -14.5 11.5 -26.5c0 -12.667 -3.66699 -21.5 -11 -26.5s-17.666 -7.5 -30.999 -7.5h-69v69h69zM204.995 339.997h39c8 0 12 2.66699 12 8s-4 8 -12 8h-39v-16zM204.995 163.997h45c8 0 12 2.66699 12 8
s-4 8 -12 8h-45v-16z" />
    <glyph glyph-name="c" unicode="c" horiz-adv-x="572" 
d="M307 155c22.667 0 44.6699 8.33301 66.0029 25c47.333 36.667 77.666 55 90.999 55c23.333 0 43.666 -8.66699 60.999 -26s26 -37.666 26 -60.999c0 -46.667 -29 -87.334 -87 -122.001c-50.667 -30.667 -101.334 -46 -152.001 -46c-78.667 0 -146 27 -202 81
s-84 120 -84 198s27.667 144.333 83 199s122 82 200 82c50.667 0 102 -15.667 154 -47c59.333 -36 89 -77.667 89 -125c0 -24 -8.66699 -44.333 -26 -61s-38 -25 -62 -25c-23.333 0 -48 13.667 -74 41s-53.667 41 -83 41s-54 -10.333 -74 -31s-30 -45.667 -30 -75
c0 -27.333 10.333 -51.333 31 -72s45 -31 73 -31zM307.003 390c34.667 0 66.1689 -13.498 94.502 -40.498s49.166 -40.5 62.499 -40.5c16 0 30.167 5.83301 42.5 17.5s18.5 25.5 18.5 41.5c0 39.333 -27 74.333 -81 105c-47.333 26.667 -92.333 40 -135 40
c-70 0 -130.167 -24.833 -180.5 -74.5s-75.5 -109.5 -75.5 -179.5c0 -70.667 25.333 -130.334 76 -179.001s111.667 -73 183 -73c43.333 0 87.666 12.667 132.999 38c53.333 30 80 64.333 80 103c0 16 -6 30 -18 42s-26.333 18 -43 18c-12 0 -33.333 -13.333 -64 -40
s-61.667 -40 -93 -40c-35.333 0 -66 12.667 -92 38s-39 55.666 -39 90.999c0 37.333 12.5 68.833 37.5 94.5s56.167 38.5 93.5 38.5zM307.005 102.002c36.667 0 70.832 13.166 102.499 39.499s50.834 39.5 57.501 39.5c8 0 15.167 -3.5 21.5 -10.5s9.5 -14.5 9.5 -22.5
c0 -30 -24 -57.333 -72 -82c-42.667 -22 -80.667 -33 -114 -33c-64 0 -118.833 21.833 -164.5 65.5s-68.5 97.167 -68.5 160.5c0 62.667 22.667 116.334 68 161.001s99.333 67 162 67c35.333 0 74 -11 116 -33c49.333 -26 74 -55 74 -87
c0 -8.66699 -3.5 -16.167 -10.5 -22.5s-14.833 -9.5 -23.5 -9.5c-4 0 -21.667 13.667 -53 41s-65 41 -101 41c-46 0 -84.333 -15 -115 -45s-46 -68.333 -46 -115c0 -43.333 15.333 -80 46 -110s67.667 -45 111 -45z" />
    <glyph glyph-name="d" unicode="d" horiz-adv-x="548" 
d="M145 -7c-40.667 0 -69.833 8.5 -87.5 25.5s-26.5 45.833 -26.5 86.5v310c0 40.667 8.83301 69.5 26.5 86.5s46.834 25.5 87.501 25.5h94c79.333 0 146.166 -24.833 200.499 -74.5s81.5 -113.5 81.5 -191.5c0 -85.333 -29.667 -152.333 -89 -201
c-54.667 -44.667 -125.667 -67 -213 -67h-74zM145.001 500c-33.333 0 -56.167 -5.83301 -68.5 -17.5s-18.5 -34.167 -18.5 -67.5v-310c0 -32.667 6.33301 -55 19 -67s35.334 -18 68.001 -18h74c79.333 0 143.666 19.667 192.999 59c55.333 44 83 104.667 83 182
c0 71.333 -24.667 129 -74 173s-110 66 -182 66h-94zM84 105v310.001c0 25.333 3.66699 41.333 11 48s24 10 50 10h94c64.667 0 119 -19.333 163 -58s66 -90 66 -154c0 -68.667 -24.333 -122.334 -73 -161.001c-44.667 -35.333 -101.667 -53 -171 -53h-79
c-26 0 -42.667 3.16699 -50 9.5s-11 22.5 -11 48.5zM154 104.001l81 -0.00195312c46.667 0 85.667 14.333 117 43s47 66.334 47 113.001s-16 84.334 -48 113.001s-71.667 43 -119 43h-78v-312zM231 388.999c40 0 73.5 -11.501 100.5 -34.501s40.5 -54.5 40.5 -94.5
c0 -39.333 -13 -70.666 -39 -93.999s-58.667 -35 -98 -35h-55v258h51zM207 156.998h27.999c32.667 0 59.334 9 80.001 27s31 43.333 31 76s-10.833 58 -32.5 76s-49.167 27 -82.5 27h-24v-206z" />
    <glyph glyph-name="e" unicode="e" horiz-adv-x="425" 
d="M405 79c0 -28.667 -10.332 -50.667 -30.999 -66c-18 -13.333 -42 -20 -72 -20h-165c-38.667 0 -66.834 8.5 -84.501 25.5s-26.5 44.833 -26.5 83.5v317c0 72 36.667 108 110 108h166c30.667 0 55.5 -6.83301 74.5 -20.5s28.5 -35.5 28.5 -65.5
c0 -34.667 -14 -58.667 -42 -72c-20.667 -10 -50.667 -15 -90 -15c-9.33301 0 -22 0.333008 -38 1s-27 1 -33 1v-16h25.5c9 0 18.167 0.333008 27.5 1c44.667 0 75.667 -7.66699 93 -23c14 -12.667 21 -32 21 -58s-7.66699 -45.333 -23 -58
c-18 -15.333 -51.333 -23 -100 -23h-23c-7.33301 0 -14.333 0.333008 -21 1v-16c8 0 21.667 0.333008 41 1s29.333 1 30 1c51.333 0 87 -8.33301 107 -25c16.667 -14 25 -34.667 25 -62zM175.001 207c8 0 21.5 -0.500977 40.5 -1.50098s29.833 -1.5 32.5 -1.5
c28 0 49.333 3.33301 64 10c20 8.66699 30 24 30 46s-8.5 36.833 -25.5 44.5s-39.833 11.5 -68.5 11.5c-14.667 0 -27.834 -0.333008 -39.501 -1l-33.5 -2v69c7.33301 0 21.833 -0.833008 43.5 -2.5s36.5 -2.5 44.5 -2.5c34.667 0 60.667 3.66699 78 11
c24.667 10.667 37 28.334 37 53.001c0 22.667 -7.16699 38.167 -21.5 46.5s-33.5 12.5 -57.5 12.5h-159c-33.333 0 -56.166 -5.83301 -68.499 -17.5s-18.5 -34.167 -18.5 -67.5v-310c0 -32.667 6.33301 -55 19 -67s35.334 -18 68.001 -18h163
c23.333 0 40.666 3.66699 51.999 11c15.333 10 23 26 23 48c0 24 -12 41.333 -36 52c-18.667 8 -45 12 -79 12c-16 0 -31.667 -0.666992 -47 -2s-29 -2.33301 -41 -3v69zM299.001 110.999c16 0 28.667 -1.83301 38 -5.5s14 -12.5 14 -26.5c0 -13.333 -4.5 -22 -13.5 -26
s-20.833 -6 -35.5 -6h-165c-23.333 0 -38.833 3.5 -46.5 10.5s-11.5 22.167 -11.5 45.5v315c0 23.333 3.66699 38.333 11 45s23 10 47 10h165c16 0 28.167 -1.83301 36.5 -5.5s12.5 -12.5 12.5 -26.5c0 -13.333 -4.83301 -22 -14.5 -26s-22.167 -6 -37.5 -6h-150v-122h120
c15.333 0 27 -1.5 35 -4.5s12 -10.5 12 -22.5s-4.33301 -19.5 -13 -22.5s-20 -4.5 -34 -4.5h-120v-122h150z" />
    <glyph glyph-name="f" unicode="f" horiz-adv-x="417" 
d="M117 -11c-30.667 0 -53 9.83301 -67 29.5s-21 45.167 -21 76.5v323c0 72 37 108 111 108h165c30 0 54.667 -6.83301 74 -20.5s29 -35.167 29 -64.5c0 -34.667 -14 -59 -42 -73c-20 -10 -50 -15 -90 -15c-9.33301 0 -22 0.333008 -38 1s-27 1 -33 1v-16h25.5
c9 0 18.167 0.333008 27.5 1c44.667 0 75.667 -7.66699 93 -23c14 -12.667 21 -31.667 21 -57s-7.33301 -44.333 -22 -57c-18 -16 -50.333 -24 -97 -24h-25c-8 0 -15.667 0.333008 -23 1v-29c0 -10 0.333008 -20 1 -30c0 -41.333 -4.66699 -71.333 -14 -90
c-14 -28 -39 -42 -75 -42zM345 260c0 22 -8.5 36.834 -25.5 44.501s-39.833 11.5 -68.5 11.5c-14.667 0 -27.834 -0.333008 -39.501 -1l-33.5 -2v69c9.33301 0 24.166 -0.833008 44.499 -2.5s35.5 -2.5 45.5 -2.5c34 0 59.667 3.66699 77 11c24 10 36 27.667 36 53
c0 22.667 -7.16699 38.167 -21.5 46.5s-33.5 12.5 -57.5 12.5h-159c-33.333 0 -56.166 -5.83301 -68.499 -17.5s-18.5 -34.5 -18.5 -68.5v-319c0 -23.333 4.5 -42.333 13.5 -57s24.833 -22 47.5 -22c24.667 0 42.334 11.333 53.001 34c8 17.333 12 41.666 12 72.999
c0 11.333 -0.5 24 -1.5 38s-1.83301 29 -2.5 45c8 0 21.5 -0.5 40.5 -1.5s29.833 -1.5 32.5 -1.5c28 0 49.333 3.33301 64 10c20 9.33301 30 25 30 47zM152 98.001c0 -16.667 -1.66699 -29 -5 -37c-5.33301 -12.667 -15.333 -19 -30 -19c-14 0 -23.333 5 -28 15
s-7 22.667 -7 38v322c0 24 3.66699 39.333 11 46s23 10 47 10h165c14.667 0 26.5 -2 35.5 -6s13.5 -12.667 13.5 -26s-4.83301 -22 -14.5 -26s-22.167 -6 -37.5 -6h-150v-123h120c14.667 0 26.167 -1.5 34.5 -4.5s12.5 -10.167 12.5 -21.5c0 -12 -4.33301 -19.5 -13 -22.5
s-20 -4.5 -34 -4.5h-120v-135z" />
    <glyph glyph-name="g" unicode="g" horiz-adv-x="552" 
d="M333 157c-23.333 0 -43.168 7.83496 -59.501 23.502s-24.5 35.167 -24.5 58.5c0 28.667 9.5 49.5 28.5 62.5s43.5 19.5 73.5 19.5h76c38 0 64.167 -7.5 78.5 -22.5s21.5 -41.5 21.5 -79.5v-86c0 -56 -22.667 -96.667 -68 -122c-36 -20 -84.667 -30 -146 -30
c-81.333 0 -149.833 26.5 -205.5 79.5s-83.5 119.833 -83.5 200.5c0 77.333 27.5 143.166 82.5 197.499s121.833 81.5 200.5 81.5c40.667 0 77 -8 109 -24c40.667 -20.667 61 -49.667 61 -87c0 -23.333 -7.5 -43.5 -22.5 -60.5s-34.5 -25.5 -58.5 -25.5
c-11.333 0 -27.166 3.5 -47.499 10.5s-35.5 10.5 -45.5 10.5c-28 0 -52.333 -10.333 -73 -31s-31 -45.334 -31 -74.001c0 -31.333 11.333 -56.833 34 -76.5s50 -29.5 82 -29.5c6.66699 0 16 1.33301 28 4h-10zM382.998 141.002
c-22 -9.33301 -44.666 -14.002 -67.999 -14.002c-39.333 0 -72.833 12.333 -100.5 37s-41.5 56.334 -41.5 95.001c0 36 12.667 67 38 93s56 39 92 39c10.667 0 30 -4.66699 58 -14c14 -4.66699 25.667 -7 35 -7c15.333 0 28.333 6 39 18s16 25.667 16 41
c0 29.333 -17.667 51.666 -53 66.999c-26.667 11.333 -57 17 -91 17c-71.333 0 -131.833 -24.167 -181.5 -72.5s-74.5 -108.166 -74.5 -179.499c0 -72.667 25.167 -133.167 75.5 -181.5s112.5 -72.5 186.5 -72.5c54 0 96 7.66699 126 23c40.667 20.667 61 55 61 103v86
c0 30 -4.83301 50.167 -14.5 60.5s-29.167 15.5 -58.5 15.5h-76c-22 0 -40.167 -4.16699 -54.5 -12.5s-21.5 -22.833 -21.5 -43.5c0 -27.333 12.667 -44.666 38 -51.999c11.333 -3.33301 34.666 -5 69.999 -5v-41zM301.999 238c0 15.333 5.33203 24.1689 15.999 26.502
s21.667 3.5 33 3.5h76c10.667 0 23.334 -1.66699 38.001 -5c4 -6 6.5 -12.667 7.5 -20s1.5 -14 1.5 -20v-90c0 -38.667 -17.667 -66 -53 -82c-25.333 -11.333 -61.333 -17 -108 -17c-66.667 0 -122.5 21.167 -167.5 63.5s-67.5 96.833 -67.5 163.5
c0 63.333 22.333 116.666 67 159.999s98.667 65 162 65c26 0 49.667 -3.66699 71 -11c30.667 -10.667 46 -26.334 46 -47.001c0 -8.66699 -2.5 -16 -7.5 -22s-11.833 -9 -20.5 -9c-9.33301 0 -20.333 2 -33 6c-31.333 10 -51.333 15 -60 15
c-42.667 0 -79.5 -15.833 -110.5 -47.5s-46.5 -68.834 -46.5 -111.501c0 -45.333 16.5 -83.166 49.5 -113.499s72.833 -45.5 119.5 -45.5c32 0 63.667 7.33301 95 22v86c-1.33301 0 -7 -0.333008 -17 -1s-18.667 -1 -26 -1c-18.667 0 -34.167 2.33301 -46.5 7
s-18.5 13 -18.5 25z" />
    <glyph glyph-name="h" unicode="h" horiz-adv-x="539" 
d="M215 185v-30.5029c0 -10.333 0.333008 -21.166 1 -32.499c0 -52 -8.33301 -87.667 -25 -107c-14 -16.667 -35.333 -25 -64 -25c-30 0 -52.167 9.66699 -66.5 29s-21.5 44.666 -21.5 75.999v330c0 30.667 7.16699 56 21.5 76s36.5 30 66.5 30c36 0 60.667 -13.333 74 -40
c10 -19.333 15 -48.666 15 -87.999c0 -10 -0.166992 -19.833 -0.5 -29.5s-0.5 -19.167 -0.5 -28.5h107c0 8.66699 -0.166992 17.834 -0.5 27.501s-0.5 19.834 -0.5 30.501c0 50 8.33301 84.667 25 104c14 16 35 24 63 24c30.667 0 53.667 -10.333 69 -31
c13.333 -18 20 -43 20 -75v-329c0 -30.667 -6.66699 -55.334 -20 -74.001c-15.333 -21.333 -38.333 -32 -69 -32c-34.667 0 -59 13.667 -73 41c-10 20 -15 49.667 -15 89v33c0 10.667 0.333008 21.334 1 32.001h-107zM409 15.9971c23.333 0 40 8.33594 50 25.0029
c8 13.333 12 32.666 12 57.999v322c0 25.333 -3.66699 44.333 -11 57c-10 17.333 -27 26 -51 26c-24.667 0 -42.334 -11 -53.001 -33c-8 -16.667 -12 -41.334 -12 -74.001c0 -11.333 0.666992 -26 2 -44s2 -29.333 2 -34h-160c0 4 0.666992 15.333 2 34s2 34 2 46
c0 32.667 -3.66699 56.667 -11 72c-10.667 22 -28.667 33 -54 33c-22.667 0 -38.5 -7.5 -47.5 -22.5s-13.5 -35.167 -13.5 -60.5v-325c0 -23.333 4.5 -42.5 13.5 -57.5s24.833 -22.5 47.5 -22.5c24.667 0 42.334 11.667 53.001 35c8 18 12 43.333 12 76
c0 12 -0.5 25.167 -1.5 39.5s-1.83301 29.5 -2.5 45.5h160c0 -4 -0.666992 -15.667 -2 -35s-2 -35.333 -2 -48c0 -34.667 3.66699 -60.334 11 -77.001c10.667 -24 28.667 -36 54 -36zM162 238v-139c0 -16.667 -1.66699 -29 -5 -37c-5.33301 -12.667 -15.333 -19 -30 -19
c-14 0 -23.333 4.66699 -28 14s-7 22 -7 38v330c0 19.333 3.16699 32.833 9.5 40.5s14.833 11.5 25.5 11.5c14.667 0 24.667 -6 30 -18c3.33301 -8 5 -20.667 5 -38v-129h213v129c0 18 1.83301 31.833 5.5 41.5s13.167 14.5 28.5 14.5c14 0 23.333 -4.66699 28 -14
s7 -22 7 -38v-330c0 -16 -1.66699 -27.667 -5 -35c-5.33301 -11.333 -15.333 -17 -30 -17c-16.667 0 -26.5 6.66699 -29.5 20s-4.5 25.333 -4.5 36v139h-213z" />
    <glyph glyph-name="i" unicode="i" horiz-adv-x="259" 
d="M130 -10c-30 0 -52.166 9.66895 -66.499 29.002s-21.5 44.666 -21.5 75.999v330c0 30.667 7.16699 56 21.5 76s36.5 30 66.5 30s52.667 -10.667 68 -32c13.333 -18.667 20 -43.334 20 -74.001l-1 -329c0 -31.333 -6.33301 -56 -19 -74
c-14.667 -21.333 -37.334 -32 -68.001 -32zM130.001 16.002c22.667 0 39 8 49 24c8 12.667 12 31.334 12 56.001v328c0 23.333 -4 41.666 -12 54.999c-10 16.667 -26.333 25 -49 25c-23.333 0 -39.5 -7.16699 -48.5 -21.5s-13.5 -33.833 -13.5 -58.5v-328
c0 -23.333 4.5 -42.5 13.5 -57.5s25.167 -22.5 48.5 -22.5zM130.001 43.002c-14.667 0 -24.167 4.66699 -28.5 14s-6.5 22.333 -6.5 39v328c0 16.667 2.16699 29.667 6.5 39s13.833 14 28.5 14c14 0 23.667 -5.66699 29 -17c3.33301 -7.33301 5 -19.333 5 -36v-328
c0 -16.667 -1.66699 -28.667 -5 -36c-5.33301 -11.333 -15 -17 -29 -17z" />
    <glyph glyph-name="j" unicode="j" horiz-adv-x="466" 
d="M430 420v-209.998c0 -68.667 -17.333 -123 -52 -163c-37.333 -43.333 -90 -65 -158 -65c-70 0 -123 22.333 -159 67c-33.333 41.333 -50 96.666 -50 165.999c0 32 6 57 18 75c14.667 22 37.667 33 69 33c50 0 78.667 -28 86 -84s19.333 -84 36 -84c2 0 5 0.666992 9 2
s7.66699 2.66602 11 3.99902c6 6.66699 10.333 16.834 13 30.501s4 29.5 4 47.5c0 14 -1 37.667 -3 71s-3 58.333 -3 75c0 46 5.33301 80 16 102c14 28.667 39 43 75 43c31.333 0 54.333 -11 69 -33c12.667 -18.667 19 -44.334 19 -77.001zM342 503.002
c-25.333 0 -42.5 -9.83398 -51.5 -29.501s-13.5 -48.167 -13.5 -85.5c0 -15.333 1 -39.666 3 -72.999s3 -58 3 -74c0 -36.667 -3.66699 -63.334 -11 -80.001c-9.33301 -22 -26.666 -33 -51.999 -33c-36 0 -56 28 -60 84s-24.667 84 -62 84
c-22.667 0 -38.5 -7.16699 -47.5 -21.5s-13.5 -33.833 -13.5 -58.5c0 -63.333 14 -112.666 42 -147.999c31.333 -39.333 78.333 -59 141 -59c61.333 0 107.666 19 138.999 57c29.333 35.333 44 83.333 44 144v210c0 25.333 -3.66699 44.333 -11 57
c-10 17.333 -26.667 26 -50 26zM377 420.001l-0.00195312 -209c0 -54 -12 -96 -36 -126c-26.667 -33.333 -67 -50 -121 -50c-54.667 0 -95 17 -121 51c-23.333 30 -35 73.333 -35 130c0 16 2.16699 29 6.5 39s13.5 15 27.5 15c18.667 0 31.334 -28.167 38.001 -84.5
s34.667 -84.5 84 -84.5c35.333 0 60 15.333 74 46c10.667 23.333 16 59.333 16 108c0 24 -0.666992 46.333 -2 67s-2.66602 45.667 -3.99902 75c0 26.667 2.66699 46.667 8 60s15.333 20 30 20s24.667 -6 30 -18c3.33301 -8 5 -21 5 -39z" />
    <glyph glyph-name="k" unicode="k" horiz-adv-x="481" 
d="M363 531c23.333 0 43.665 -8.66602 60.998 -25.999s26 -38 26 -62c0 -26 -19 -59.333 -57 -100c-43.333 -40.667 -69.333 -65.667 -78 -75l85 -80c44.667 -46 67 -82.333 67 -109c0 -25.333 -8.16699 -46.5 -24.5 -63.5s-37.166 -25.5 -62.499 -25.5
c-31.333 0 -70.666 26 -117.999 78l-51 59c0 -43.333 -3.66699 -74 -11 -92c-12.667 -30 -38 -45 -76 -45c-30 0 -52.167 9.66699 -66.5 29s-21.5 44.666 -21.5 75.999v330c0 30.667 7.16699 56 21.5 76s36.5 30 66.5 30c34 0 57.667 -12.667 71 -38
c10.667 -20 16 -48 16 -84l66 73c33.333 32.667 62 49 86 49zM123.999 504.001c-23.333 0 -39.5 -7.50195 -48.5 -22.502s-13.5 -35.167 -13.5 -60.5v-325c0 -24 4 -42.333 12 -55c10.667 -16.667 27.334 -25 50.001 -25c24.667 0 42 11.333 52 34c8 17.333 12 41.333 12 72
c0 14.667 -0.333008 27.834 -1 39.501l-2 33.5l110 -125c37.333 -36 66 -54 86 -54c17.333 0 31.666 6 42.999 18s17 26.667 17 44c0 22.667 -26 60 -78 112c-54 49.333 -82.333 75.333 -85 78l101 100c29.333 34 44 59 44 75s-5.83301 30.167 -17.5 42.5
s-25.5 18.5 -41.5 18.5c-22 0 -57 -25.667 -105 -77l-74 -85c0 6.66699 0.333008 18.5 1 35.5s1 26.167 1 27.5c0 38.667 -5.5 64.834 -16.5 78.501s-26.5 20.5 -46.5 20.5zM362.999 476.999c5.33301 0 10.8301 -1.66699 16.4971 -5s9.83398 -7.33301 12.501 -12l5 -17
c-6 -22 -30 -53.667 -72 -95l-84 -80l88 -84c56.667 -56.667 85 -92 85 -106c0 -10 -3.16699 -18.5 -9.5 -25.5s-14.166 -10.5 -23.499 -10.5c-13.333 0 -41.666 22 -84.999 66l-138 154v-163c0 -16.667 -1.66699 -29 -5 -37c-5.33301 -12.667 -15 -19 -29 -19
s-23.333 5 -28 15s-7 22.667 -7 38v328c0 16.667 2.16699 29.667 6.5 39s13.833 14 28.5 14c16.667 0 27 -8.66699 31 -26c2 -9.33301 3 -19.333 3 -30v-147l94 108c52.667 57.333 89.667 89 111 95z" />
    <glyph glyph-name="l" unicode="l" horiz-adv-x="427" 
d="M412 79c0 -29.333 -10.332 -51.333 -30.999 -66c-18 -12.667 -42 -19 -72 -19h-164c-38.667 0 -66.834 8.5 -84.501 25.5s-26.5 44.5 -26.5 82.5v323c0 30.667 7.16699 56 21.5 76s36.5 30 66.5 30c31.333 0 54.333 -11 69 -33c12.667 -18.667 19 -44 19 -76v-257
c7.33301 0 20.5 0.333008 39.5 1s28.833 1 29.5 1c40.667 0 70.667 -4.66699 90 -14c28.667 -14 43 -38.667 43 -74zM183.001 422c0 25.333 -3.66602 44.333 -10.999 57c-9.33301 16.667 -26 25 -50 25c-22.667 0 -38.5 -7.66699 -47.5 -23s-13.5 -35 -13.5 -59v-319
c0 -30.667 6.16699 -52.167 18.5 -64.5s34.166 -18.5 65.499 -18.5h164c23.333 0 41 3.66699 53 11c15.333 9.33301 23 25.333 23 48c0 24 -12 41.333 -36 52c-18 8 -43.667 12 -77 12c-16.667 0 -32.667 -0.666992 -48 -2s-29 -2.33301 -41 -3v284zM306.002 111
c16.667 0 29.667 -1.83301 39 -5.5s14 -12.5 14 -26.5c0 -13.333 -4.66699 -22 -14 -26s-21.333 -6 -36 -6h-164c-23.333 0 -38.833 3.5 -46.5 10.5s-11.5 22.167 -11.5 45.5v322c0 16.667 2.16699 29.667 6.5 39s13.833 14 28.5 14c11.333 0 20 -3.83301 26 -11.5
s9 -22.5 9 -44.5v-311h149z" />
    <glyph glyph-name="m" unicode="m" horiz-adv-x="684" 
d="M509 531c32 0 56 -11.332 72 -33.999c12 -16.667 21 -42.834 27 -78.501s14.333 -77.834 25 -126.501c20.667 -96.667 31 -168.667 31 -216c0 -24.667 -8.5 -45.167 -25.5 -61.5s-37.833 -24.5 -62.5 -24.5c-38 0 -64.667 20 -80 60c-4 10.667 -11.333 47 -22 109
l-44 -105c-23.333 -42.667 -52.333 -64 -87 -64c-39.333 0 -72.333 30 -99 90c-15.333 38.667 -26 65 -32 79c-11.333 -64 -18.333 -100 -21 -108c-15.333 -40.667 -42.333 -61 -81 -61c-24 0 -44.667 8.33301 -62 25s-26 37.334 -26 62.001c0 44.667 7 101.667 21 171
l35 171c6 35.333 15 61.333 27 78c16 22.667 40.333 34 73 34c40 0 76.333 -32.667 109 -98l56 -139l56 138c33.333 66 70 99 110 99zM250 437.001c-10.667 24 -19.0029 39.333 -25.0029 46c-12 14 -27.667 21 -47 21c-24 0 -42 -9.33301 -54 -28
c-8 -12.667 -14.333 -33 -19 -61l-52 -303c-2 -10 -3.16699 -16.5 -3.5 -19.5s-0.5 -8.16699 -0.5 -15.5c0 -18 5.66699 -32.667 17 -44s26 -17 44 -17c35.333 0 60.333 35 75 105c8.66699 76 14 119.333 16 130l67 -165c26 -46 51 -69 75 -69
c30.667 0 62.334 36.333 95.001 109c28.667 76.667 44.334 118.334 47.001 125.001l25 -169c14.667 -44 36.667 -66 66 -66c16.667 0 31 5.66699 43 17s18 25.666 18 42.999l-3 36l-52 303c-5.33301 28.667 -11.666 49 -18.999 61c-11.333 18.667 -29.666 28 -54.999 28
c-18 0 -33 -7 -45 -21c-8.66699 -10 -17.334 -25.333 -26.001 -46l-94 -208zM460.997 426.001c7.33301 18 12.666 29.0029 15.999 33.0029c8.66699 12 19.334 18 32.001 18c16.667 0 28.334 -7.33301 35.001 -22c3.33301 -7.33301 7 -22.333 11 -45l52 -302
c0.666992 -5.33301 1.5 -10.333 2.5 -15s1.5 -10.334 1.5 -17.001c0 -10 -3.33301 -18 -10 -24s-15 -9 -25 -9c-12 0 -20.5 4.66699 -25.5 14s-8.5 21.333 -10.5 36l-43 250l-109 -248c-8 -17.333 -13.333 -28.333 -16 -33c-8.66699 -13.333 -18.334 -20 -29.001 -20
c-10 0 -19.333 6.33301 -28 19c-4 5.33301 -9.66699 16.666 -17 33.999l-109 248l-42 -250c-2.66699 -16 -5.66699 -27 -9 -33c-6 -11.333 -15.333 -17 -28 -17c-10 0 -18.167 3.16699 -24.5 9.5s-9.5 14.5 -9.5 24.5l3 31l52 302c4 22 7.66699 36.667 11 44
c7.33301 15.333 19.333 23 36 23c14 0 25.667 -8.33301 35 -25c2.66699 -4.66699 6.66699 -13.334 12 -26.001l118 -262z" />
    <glyph glyph-name="n" unicode="n" horiz-adv-x="555" 
d="M127 -10c-30 0 -52.168 9.66895 -66.501 29.002s-21.5 44.666 -21.5 75.999v329c0 31.333 7.5 57 22.5 77s37.5 30 67.5 30c32.667 0 74.334 -31.333 125.001 -94c48.667 -68 76.667 -106.667 84 -116c0 8 -0.333008 21.833 -1 41.5s-1 30.167 -1 31.5
c0 54 8.33301 91 25 111c14.667 17.333 36.334 26 65.001 26c30 0 52.667 -10.667 68 -32c13.333 -18.667 20 -43.334 20 -74.001v-330c0 -30.667 -6.33301 -55 -19 -73c-14.667 -21.333 -37.334 -32 -68.001 -32c-32 0 -74.333 32 -127 96l-85 116
c0 -6 0.333008 -17.667 1 -35s1 -31 1 -41c0 -41.333 -5 -72.333 -15 -93c-14 -28.667 -39 -43 -75 -43zM370.999 52.002c8 -9.33301 13.668 -15.666 17.001 -18.999c12 -11.333 25 -17 39 -17c23.333 0 39.666 8.33301 48.999 25c7.33301 13.333 11 32.666 11 57.999v322
c0 24.667 -3.66699 43.667 -11 57c-10 17.333 -26.667 26 -50 26s-39.333 -7.66699 -48 -23s-13 -35.333 -13 -60v-176l-176 219c-14 17.333 -25 28.333 -33 33s-17.333 7 -28 7c-23.333 0 -39.5 -7.66699 -48.5 -23s-13.5 -35.333 -13.5 -60v-322
c0 -25.333 3.66699 -44.333 11 -57c10 -17.333 26.667 -26 50 -26c22.667 0 39 8.33301 49 25c8 14 12 33.333 12 58v178zM162 99.002c0 -18.667 -1.33203 -31.3311 -3.99902 -37.998c-4.66699 -12 -15 -18 -31 -18c-14 0 -23.333 4.83301 -28 14.5s-7 22.167 -7 37.5v329
c0 15.333 2.5 28 7.5 38s14.5 15 28.5 15c11.333 0 38.666 -25 81.999 -75c31.333 -36.667 69.333 -84.334 114 -143.001l67 -89v251c0 16.667 2.16699 30.167 6.5 40.5s13.833 15.5 28.5 15.5c14 0 23.333 -4.66699 28 -14s7 -22 7 -38v-329
c0 -16.667 -1.33301 -28.334 -4 -35.001c-5.33301 -12 -15 -18 -29 -18c-11.333 0 -38.333 24.667 -81 74c-34 39.333 -72.333 87 -115 143l-70 93v-254z" />
    <glyph glyph-name="o" unicode="o" horiz-adv-x="610" 
d="M583 260c0 -77.333 -27.1689 -143.168 -81.502 -197.501s-120.166 -81.5 -197.499 -81.5c-76 0 -141.333 27.333 -196 82s-82 120.334 -82 197.001s27 142.334 81 197.001s119.667 82 197 82c76.667 0 142.334 -27.333 197.001 -82s82 -120.334 82 -197.001z
M52.998 259.998c0 -70 24.501 -129.5 73.501 -178.5s108.167 -73.5 177.5 -73.5s128.666 24.667 177.999 74s74 108.666 74 177.999c0 70 -24.5 129.5 -73.5 178.5s-108.5 73.5 -178.5 73.5c-68.667 0 -127.667 -24.667 -177 -74s-74 -108.666 -74 -177.999z
M529.999 259.998c0 -62 -22 -115 -66 -159s-97.333 -66 -160 -66c-62 0 -115 22 -159 66s-66 97 -66 159s22 115 66 159s97 66 159 66c61.333 0 114.333 -22 159 -66s67 -97 67 -159zM148.999 259.998c0 -43.333 15.167 -80.168 45.5 -110.501s66.833 -45.5 109.5 -45.5
c43.333 0 80.333 15 111 45s46 67 46 111c0 42.667 -15.333 79.334 -46 110.001s-67.667 46 -111 46s-80 -15 -110 -45s-45 -67 -45 -111zM433.999 259.996c0 -35.333 -12.668 -65.666 -38.001 -90.999s-56 -38 -92 -38c-35.333 0 -65.666 12.667 -90.999 38
s-38 55.666 -38 90.999s12.5 65.833 37.5 91.5s55.5 38.5 91.5 38.5s66.667 -12.667 92 -38s38 -56 38 -92zM201.998 259.996c0 -27.333 10 -51.333 30 -72s44 -31 72 -31c28.667 0 53 10 73 30s30 44.333 30 73c0 28 -10.167 52.167 -30.5 72.5s-44.5 30.5 -72.5 30.5
s-52 -10 -72 -30s-30 -44.333 -30 -73z" />
    <glyph glyph-name="p" unicode="p" horiz-adv-x="464" 
d="M125 -11c-30.667 0 -52.834 10.167 -66.501 30.5s-20.5 46.5 -20.5 78.5v316c0 40.667 8.83301 69.5 26.5 86.5s46.834 25.5 87.501 25.5h80c60.667 0 111.167 -17.667 151.5 -53s60.5 -83 60.5 -143c0 -65.333 -23 -115.333 -69 -150
c-40.667 -30.667 -94.667 -46 -162 -46c0 -46.667 -3.33301 -78.667 -10 -96c-12.667 -32.667 -38.667 -49 -78 -49zM417 330c0 51.333 -17.167 92.501 -51.5 123.501s-77.5 46.5 -129.5 46.5h-89c-31.333 0 -53 -6.33301 -65 -19s-18 -35 -18 -67v-316
c0 -24.667 3.66699 -43.334 11 -56.001c10 -17.333 26.667 -26 50 -26c24.667 0 42 10 52 30c7.33301 15.333 11 37.333 11 66c0 8.66699 -0.166992 17 -0.5 25s-0.5 15.667 -0.5 23c70 0 122.667 10 158 30c48 27.333 72 74 72 140zM125 42.001
c-16.667 0 -26.501 6.66504 -29.501 19.998s-4.5 25.333 -4.5 36v316c0 25.333 3.83301 41.5 11.5 48.5s24.167 10.5 49.5 10.5h84c45.333 0 82.5 -12.667 111.5 -38s43.5 -60.333 43.5 -105c0 -63.333 -25.333 -105 -76 -125c-30 -12 -81.667 -18 -155 -18
c0 -1.33301 0.666992 -9.66602 2 -24.999s2 -28.666 2 -39.999c0 -24 -2.66699 -43.333 -8 -58s-15.666 -22 -30.999 -22zM230.999 245.999c30 0 53.5 6.66797 70.5 20.001s25.5 34.666 25.5 63.999c0 28 -9 48.667 -27 62s-41.333 20 -70 20h-70v-166h71zM186.999 385
l43 -0.000976562c21.333 0 38.333 -4.16699 51 -12.5s19 -22.5 19 -42.5c0 -21.333 -6.66699 -36.666 -20 -45.999c-10.667 -7.33301 -27 -11 -49 -11h-44v112zM232.999 298.999c14.667 0 25 1.66699 31 5s9 12 9 26c0 12 -3.5 19.833 -10.5 23.5s-17.167 5.5 -30.5 5.5h-19
v-60h20z" />
    <glyph glyph-name="q" unicode="q" horiz-adv-x="613" 
d="M591 69c0 -23.333 -8.5 -43.835 -25.5 -61.502s-37.5 -26.5 -61.5 -26.5c-13.333 0 -25.833 2.83301 -37.5 8.5s-21.834 13.5 -30.501 23.5c-19.333 -10.667 -39.833 -18.667 -61.5 -24s-44.167 -8 -67.5 -8c-76 0 -141.333 27.333 -196 82s-82 120.334 -82 197.001
s27 142.334 81 197.001s119.667 82 197 82c76.667 0 142.334 -27.333 197.001 -82s82 -120.667 82 -198c0 -14 -2.66699 -29.667 -8 -47c-13.333 -43.333 -20 -67.666 -20 -72.999c4.66699 -4.66699 8 -8.33398 10 -11.001c15.333 -19.333 23 -39 23 -59zM559 261.998
c0 68 -24.6689 126.665 -74.002 175.998s-108.666 74 -177.999 74s-128.666 -24.667 -177.999 -74s-74 -108.666 -74 -177.999s24.667 -128.666 74 -177.999s108.333 -74 177 -74c22.667 0 45.334 3.16699 68.001 9.5s44.667 15.5 66 27.5c12.667 -12.667 22 -21 28 -25
c12 -8 24 -12 36 -12c16 0 30 6 42 18s18 26.333 18 43c0 14 -6 28.333 -18 43c-5.33301 6.66699 -12 14 -20 22c11.333 18 19.666 38.167 24.999 60.5s8 44.833 8 67.5zM537.998 68.9961c0 -9.33301 -3.33301 -17.3311 -10 -23.998s-14.667 -10 -24 -10
c-7.33301 0 -15.666 3.66699 -24.999 11c-2.66699 2 -14.667 13.667 -36 35c-16.667 -14 -38 -25.167 -64 -33.5s-50.667 -12.5 -74 -12.5c-62 0 -114.667 22 -158 66s-65 97 -65 159s22 115 66 159s97 66 159 66c61.333 0 114.166 -21.833 158.499 -65.5
s66.5 -95.834 66.5 -156.501c0 -24.667 -3.16699 -48.834 -9.5 -72.501s-16.5 -44.167 -30.5 -61.5c16 -14.667 27.667 -26.667 35 -36s11 -17.333 11 -24zM150.998 259.998c0 -43.333 15.167 -80.166 45.5 -110.499s67.166 -45.5 110.499 -45.5s80.166 15.167 110.499 45.5
s45.5 67.166 45.5 110.499s-15.167 80.166 -45.5 110.499s-67.166 45.5 -110.499 45.5s-80.166 -15.167 -110.499 -45.5s-45.5 -67.166 -45.5 -110.499zM435.998 259.998c0 -35.333 -12.668 -65.666 -38.001 -90.999s-55.666 -38 -90.999 -38s-65.666 12.667 -90.999 38
s-38 55.666 -38 90.999s12.5 65.833 37.5 91.5s55.5 38.5 91.5 38.5c35.333 0 65.666 -12.667 90.999 -38s38 -56 38 -92zM204.997 259.998c0 -27.333 10 -51.333 30 -72s44 -31 72 -31s52.167 10.167 72.5 30.5s30.5 44.5 30.5 72.5s-10.167 52.167 -30.5 72.5
s-44.5 30.5 -72.5 30.5s-52 -10 -72 -30s-30 -44.333 -30 -73z" />
    <glyph glyph-name="r" unicode="r" horiz-adv-x="480" 
d="M433 76c0 -24.667 -8.16602 -45.499 -24.499 -62.499s-36.833 -25.5 -61.5 -25.5c-30.667 0 -61 21 -91 63l-38 57c0 -36.667 -5 -64 -15 -82c-14 -24.667 -38 -37 -72 -37c-31.333 0 -53.833 10.167 -67.5 30.5s-20.5 46.5 -20.5 78.5v316
c0 41.333 8.66699 70.333 26 87s46.666 25 87.999 25h71c62 0 113.667 -16.667 155 -50c44.667 -36 67 -85 67 -147c0 -28.667 -6.16699 -55.834 -18.5 -81.501s-29.833 -48.167 -52.5 -67.5c11.333 -16 23 -31.667 35 -47c12.667 -20 19 -39 19 -57zM424.001 329.001
c0 54.667 -19.666 97.333 -58.999 128c-36 28 -82 42 -138 42h-70c-34 0 -57.167 -5.83301 -69.5 -17.5s-18.5 -34.167 -18.5 -67.5v-316c0 -25.333 3.66699 -44.333 11 -57c10 -17.333 27 -26 51 -26c25.333 0 42.666 10.333 51.999 31c6.66699 14.667 10 37 10 67
c0 8.66699 -0.166992 17 -0.5 25s-0.5 16 -0.5 24h22l52 -83c30.667 -42.667 57.667 -64 81 -64c16.667 0 30.667 6 42 18s17 26.333 17 43c0 14 -8.66699 34 -26 60l-38 52c25.333 13.333 45.333 32.833 60 58.5s22 53.167 22 82.5zM131.002 42
c-11.333 0 -20.001 3.8291 -26.001 11.4961s-9 22.5 -9 44.5v316c0 25.333 3.83301 41.5 11.5 48.5s24.167 10.5 49.5 10.5h69c48.667 0 88.334 -11.333 119.001 -34c34.667 -26 52 -62.667 52 -110c0 -30.667 -8.33301 -57.167 -25 -79.5s-40 -39.833 -70 -52.5l55 -75
c15.333 -23.333 23 -38.666 23 -45.999c0 -8.66699 -3.16699 -16.5 -9.5 -23.5s-13.833 -10.5 -22.5 -10.5c-15.333 0 -39 23.333 -71 70c-30.667 48.667 -47 74.334 -49 77.001h-63c0 -1.33301 0.666992 -9.66602 2 -24.999s2 -29 2 -41
c0 -23.333 -2.66699 -42.666 -8 -57.999s-15.333 -23 -30 -23zM165.001 247.996h71c27.333 0 49.833 7 67.5 21s26.5 34.333 26.5 61c0 28 -9.33301 49 -28 63s-42.667 21 -72 21h-65v-166zM192.001 386.996l38 -0.000976562c23.333 0 41.5 -4.16699 54.5 -12.5
s19.5 -23.166 19.5 -44.499c0 -20.667 -7.33301 -35.667 -22 -45c-12 -7.33301 -29 -11 -51 -11h-39v113zM233.001 300.995c14 0 24.833 1.66602 32.5 4.99902s11.5 11.333 11.5 24s-4 20.834 -12 24.501s-19.667 5.5 -35 5.5h-12v-59h15z" />
    <glyph glyph-name="s" unicode="s" horiz-adv-x="453" 
d="M335 338c-15.333 0 -33.665 6 -54.998 18c-25.333 14 -43 22.333 -53 25l-11 -9l4 -9l140 -66c46 -29.333 69 -73.666 69 -132.999c0 -54.667 -19.5 -98.667 -58.5 -132s-86.5 -50 -142.5 -50c-48 0 -90.667 10.667 -128 32c-45.333 26 -68 61.333 -68 106
c0 21.333 8 39.666 24 54.999s35 23 57 23c15.333 0 30.666 -5 45.999 -15c43.333 -28.667 67 -43.667 71 -45l17 5l6 11l-6 11l-135 65c-44 28.667 -66 72.334 -66 131.001c0 53.333 17.833 96.166 53.5 128.499s80.5 48.5 134.5 48.5
c41.333 0 79.666 -9.33301 114.999 -28c43.333 -22.667 65 -53 65 -91c0 -22 -7.66699 -41 -23 -57s-34 -24 -56 -24zM234.001 514c-46.667 0 -85.166 -13.833 -115.499 -41.5s-45.5 -64.834 -45.5 -111.501c0 -60.667 34.5 -106.167 103.5 -136.5
s103.5 -53.166 103.5 -68.499c0 -12 -5 -21.667 -15 -29s-21.667 -11 -35 -11c-18.667 0 -39.334 9.33301 -62.001 28s-40.667 28 -54 28c-14.667 0 -27.5 -5.16699 -38.5 -15.5s-16.5 -22.833 -16.5 -37.5c0 -34.667 20 -62.667 60 -84c34 -18 70 -27 108 -27
c48.667 0 89.334 13.667 122.001 41c35.333 29.333 53 67.666 53 114.999c0 60.667 -35.5 106.5 -106.5 137.5s-106.5 54.167 -106.5 69.5c0 10 4 18.333 12 25s16.667 10 26 10c13.333 0 31.666 -6.83301 54.999 -20.5s41 -20.5 53 -20.5c14.667 0 27 5.33301 37 16
s15 23.334 15 38.001c0 30 -18.667 54 -56 72c-32 15.333 -64.333 23 -97 23zM234.002 488c24.667 0 49.998 -5.33398 75.998 -16.001c33.333 -13.333 50 -30.666 50 -51.999c0 -18 -8.33301 -27 -25 -27c-6.66699 0 -27 8.66699 -61 26c-18.667 9.33301 -34 14 -46 14
c-17.333 0 -32.666 -5.66699 -45.999 -17s-20 -26 -20 -44c0 -30 35.5 -59.333 106.5 -88s106.5 -68.667 106.5 -120c0 -40 -14.333 -71.667 -43 -95s-63.667 -35 -105 -35c-30.667 0 -60 6.33301 -88 19c-36 16.667 -54 38.334 -54 65.001c0 8 2.66699 14.667 8 20
s12.333 8 21 8c4 0 17.333 -9.33301 40 -28s47.334 -28 74.001 -28c20.667 0 38.667 6.33301 54 19s23 29 23 49c0 29.333 -34.167 57.666 -102.5 84.999s-102.5 66.333 -102.5 117c0 40 12.333 71.333 37 94s57 34 97 34z" />
    <glyph glyph-name="t" unicode="t" horiz-adv-x="479" 
d="M22 441c0 29.333 9.33301 50.834 28 64.501s43.334 20.5 74.001 20.5h238c29.333 0 53.666 -6.83301 72.999 -20.5s29 -35.167 29 -64.5c0 -36.667 -14.333 -61.334 -43 -74.001c-18 -8 -48 -12 -90 -12v-257c0 -32 -6.33301 -57.333 -19 -76
c-14.667 -22 -37.667 -33 -69 -33s-53.833 10.167 -67.5 30.5s-20.5 46.5 -20.5 78.5v257c-42.667 0 -72.667 3.66699 -90 11c-28.667 12.667 -43 37.667 -43 75zM182 98.001c0 -24.667 3.66895 -43.333 11.002 -56c10 -17.333 26.667 -26 50 -26s39.333 7.66699 48 23
s13 35 13 59v284c6.66699 0 13.667 -0.166992 21 -0.5s15 -0.5 23 -0.5c27.333 0 47.666 3.33301 60.999 10c18.667 9.33301 28 26 28 50c0 21.333 -7 36.5 -21 45.5s-32.333 13.5 -55 13.5h-237c-23.333 0 -41.833 -4.16699 -55.5 -12.5s-20.5 -23.833 -20.5 -46.5
c0 -24 9.66699 -40.667 29 -50c14 -6.66699 34.333 -10 61 -10h22c7.33301 0 14.666 0.333008 21.999 1v-284zM75.002 441.002c0 10.667 3.33398 18.666 10.001 23.999s19.667 8 39 8h238c14.667 0 26.5 -2 35.5 -6s13.5 -12.667 13.5 -26s-6.83301 -22.666 -20.5 -27.999
s-30.834 -8 -51.501 -8c-10 0 -22.333 0.666992 -37 2s-22.667 2 -24 2v-311c0 -16.667 -1.66699 -29 -5 -37c-5.33301 -12.667 -15.333 -19 -30 -19c-11.333 0 -20 3.83301 -26 11.5s-9 22.5 -9 44.5v311c-4 0 -14 -0.5 -30 -1.5s-25.667 -1.5 -29 -1.5
c-22 0 -38.667 2 -50 6c-16 6 -24 15.667 -24 29z" />
    <glyph glyph-name="u" unicode="u" horiz-adv-x="525" 
d="M489 240c0 -78 -16.668 -138.998 -50.001 -182.998c-38 -50.667 -95.667 -76 -173 -76c-76.667 0 -134 25.333 -172 76c-34 45.333 -51 106.666 -51 183.999v179c0 32.667 6 58 18 76c14.667 22.667 38 34 70 34c36.667 0 62 -15.667 76 -47
c10.667 -24 16 -60.333 16 -109c0 -15.333 -0.5 -34 -1.5 -56s-1.83301 -46 -2.5 -72c0 -31.333 3.16699 -54.833 9.5 -70.5s18.833 -23.5 37.5 -23.5s31.334 8.83301 38.001 26.5s10 42.834 10 75.501c0 13.333 -0.666992 37.166 -2 71.499s-2 53.5 -2 57.5
c0 46.667 5.33301 81 16 103c14 29.333 39 44 75 44c30.667 0 53.667 -11 69 -33c12.667 -18.667 19 -44.334 19 -77.001v-180zM265.999 126.002c-29.333 0 -49.1699 11.5 -59.5029 34.5s-15.5 54.833 -15.5 95.5c0 20 0.833008 46 2.5 78s2.5 50 2.5 54
c0 37.333 -3.66699 64.333 -11 81c-10 22.667 -28 34 -54 34c-24 0 -40.167 -7.33301 -48.5 -22s-12.5 -35 -12.5 -61l-1 -175c0 -72 14 -127.667 42 -167c32.667 -46.667 84.334 -70 155.001 -70s122.334 23.333 155.001 70c28 39.333 42 95 42 167l-1 175
c0 24.667 -3.66699 43.667 -11 57c-10 17.333 -26.667 26 -50 26s-39.333 -7.66699 -48 -23s-13 -35.333 -13 -60v-174c0 -36.667 -3.33301 -63 -10 -79c-11.333 -27.333 -32.666 -41 -63.999 -41zM435.995 240.002c0 -62 -11.999 -110.001 -35.999 -144.001
c-28.667 -40.667 -73.334 -61 -134.001 -61c-60 0 -104.333 20 -133 60c-24.667 34.667 -37 83 -37 145v180c0 16.667 2.16699 30.167 6.5 40.5s13.833 15.5 28.5 15.5s24.5 -7.66699 29.5 -23s7.5 -37.666 7.5 -66.999c0 -12 -0.666992 -34.5 -2 -67.5s-2 -51.5 -2 -55.5
c0 -50.667 6 -88.667 18 -114c16 -33.333 44 -50 84 -50s68 17 84 51c12 26 18 64.667 18 116c0 15.333 -0.5 33.666 -1.5 54.999s-1.83301 45 -2.5 71c0 28.667 2.5 49.834 7.5 63.501s14.833 20.5 29.5 20.5s24.667 -6 30 -18c3.33301 -8 5 -20.667 5 -38v-180z" />
    <glyph glyph-name="v" unicode="v" horiz-adv-x="552" 
d="M363 468c8.66699 20 19.334 34.998 32.001 44.998c15.333 12 33 18 53 18c24 0 45 -8.33301 63 -25s27 -37 27 -61c0 -20.667 -13 -60.667 -39 -120c-16 -36 -42.167 -89.5 -78.5 -160.5s-55.833 -109.5 -58.5 -115.5c-8.66699 -19.333 -19.667 -34 -33 -44
s-30.333 -15 -51 -15c-21.333 0 -38.5 4.83301 -51.5 14.5s-24.167 24.5 -33.5 44.5l-99 194c-51.333 104.667 -77 172.334 -77 203.001c0 23.333 9 43.333 27 60s39 25 63 25c19.333 0 36.166 -5.66699 50.499 -17s25.833 -26.666 34.5 -45.999l86 -200zM168 456.998
c-6 14 -14.166 25.333 -24.499 34s-22.5 13 -36.5 13c-17.333 0 -32.333 -5.66699 -45 -17s-19 -25.333 -19 -42c0 -15.333 13 -52 39 -110c18.667 -41.333 44.667 -95.333 78 -162l57 -113c6.66699 -14.667 14.667 -25.667 24 -33s21.666 -11 36.999 -11
c14.667 0 26.834 3.83301 36.501 11.5s17.5 18.5 23.5 32.5l96 193c52 108 78 172 78 192c0 16.667 -6.33301 30.667 -19 42s-27.334 17 -44.001 17c-14 0 -26.167 -4.16699 -36.5 -12.5s-18.5 -19.833 -24.5 -34.5l-110 -257zM412.001 446.998
c3.33301 7.33301 6.33301 12.6689 9 16.002c7.33301 9.33301 16.333 14 27 14c24.667 0 37 -10.667 37 -32c0 -12 -26.333 -73.333 -79 -184l-93 -192c-4.66699 -8.66699 -9.5 -15.334 -14.5 -20.001s-11.833 -7 -20.5 -7c-8 0 -15 2.33301 -21 7s-10.833 11 -14.5 19
s-21.167 44.333 -52.5 109l-79 166c-27.333 60 -41 94 -41 102c0 9.33301 3.66699 17 11 23s16 9 26 9c8 0 15 -2.83301 21 -8.5s11 -12.834 15 -21.501l135 -315z" />
    <glyph glyph-name="w" unicode="w" horiz-adv-x="765" 
d="M663 531c23.333 0 43.833 -8.16797 61.5 -24.501s26.5 -36.166 26.5 -59.499c0 -40 -16.667 -101.333 -50 -184l-75 -175c-12.667 -35.333 -22.667 -58 -30 -68c-14.667 -20 -36.334 -30 -65.001 -30c-43.333 0 -81 43.333 -113 130l-33 96l-48 -133
c-28.667 -62 -61.667 -93 -99 -93c-34 0 -58.667 14.667 -74 44c-4 8 -12.333 26 -25 54l-71 175c-34 84 -51 144.667 -51 182c0 24.667 8.83301 45.167 26.5 61.5s38.5 24.5 62.5 24.5c44.667 0 80.334 -37.333 107.001 -112l29 -90l44 126c24.667 50.667 57.667 76 99 76
c40 0 72.333 -25.333 97 -76l44 -126l43 123c24.667 52.667 56 79 94 79zM385 503.999c-36 0 -68.999 -37.666 -98.999 -112.999c-24.667 -81.333 -39 -127 -43 -137l-61 179c-24 47.333 -49.333 71 -76 71c-17.333 0 -32 -5.33301 -44 -16s-18 -24.334 -18 -41.001
c0 -35.333 16.667 -94.333 50 -177l73 -173c12.667 -33.333 20 -51.333 22 -54c11.333 -18 27.666 -27 48.999 -27c30 0 63 44.333 99 133l48 140l45 -140c35.333 -88.667 69.333 -133 102 -133c20 0 35.667 9 47 27c4 6 11.333 24 22 54c30.667 70 55 127.333 73 172
c34 83.333 51 142.666 51 177.999c0 16.667 -6.33301 30.334 -19 41.001s-27.334 16 -44.001 16c-32 0 -63 -38.333 -93 -115c-25.333 -81.333 -39.666 -126.333 -42.999 -135l-42 137c-29.333 75.333 -62.333 113 -99 113zM642.001 470l21 7.00195l25 -9l11 -22
c-5.33301 -39.333 -24.666 -103 -57.999 -191c-30.667 -81.333 -60 -149.333 -88 -204c-7.33301 -3.33301 -14.666 -6.33301 -21.999 -9c-11.333 0 -21.666 9 -30.999 27c-8.66699 21.333 -14.334 35 -17.001 41l-98 252l-99 -252c-11.333 -30 -18.333 -46.667 -21 -50
c-6.66699 -9.33301 -15.667 -15.333 -27 -18l-21 9c-24.667 45.333 -53.667 112.833 -87 202.5s-53.333 153.5 -60 191.5l11 23l25 9l22 -8c21.333 -34 42.666 -81.333 63.999 -142l52 -149l91 246c8.66699 23.333 16.167 38.166 22.5 44.499s15.5 9.5 27.5 9.5
c13.333 0 24.333 -6 33 -18c3.33301 -5.33301 8.66602 -17.333 15.999 -36l92 -246c2 5.33301 14.333 42.333 37 111c26.667 81.333 53 141.666 79 180.999z" />
    <glyph glyph-name="x" unicode="x" horiz-adv-x="499" 
d="M386 532c23.333 0 43.835 -8.49805 61.502 -25.498s26.5 -37.5 26.5 -61.5c0 -23.333 -15.667 -56.333 -47 -99l-65 -80l68 -84c35.333 -47.333 53 -83 53 -107s-8.83301 -44.5 -26.5 -61.5s-38.167 -25.5 -61.5 -25.5c-32.667 0 -66.334 23.667 -101.001 71l-42 61
l-58 -81c-28.667 -34 -56.667 -51 -84 -51c-24 0 -44.833 8.5 -62.5 25.5s-26.5 37.5 -26.5 61.5c0 23.333 17.667 58.666 53 105.999l68 85l-64 79c-32 43.333 -48 76.666 -48 99.999c0 24 8.83301 44.5 26.5 61.5s38.167 25.5 61.5 25.5c31.333 0 62.666 -21 93.999 -63
l40 -57l55 75c26.667 30 53 45 79 45zM118.002 505.002c-16.667 0 -31.168 -5.83594 -43.501 -17.5029s-18.5 -25.834 -18.5 -42.501c0 -18.667 18.333 -52.334 55 -101.001l64 -78l-67 -82c-40.667 -53.333 -61 -89.666 -61 -108.999c0 -16 6.33301 -30 19 -42
s27.334 -18 44.001 -18c22.667 0 51 22 85 66c32.667 48.667 51.667 76.334 57 83.001l78 -106c26 -28.667 47.667 -43 65 -43c16.667 0 31.167 5.83301 43.5 17.5s18.5 25.834 18.5 42.501c0 19.333 -20 55.333 -60 108c-42 50.667 -64.667 78.334 -68 83.001l63 78
c37.333 49.333 56 83 56 101c0 16.667 -6.16699 30.834 -18.5 42.501s-26.833 17.5 -43.5 17.5c-20.667 0 -47 -20 -79 -60l-55 -77l-54 77c-31.333 40 -58 60 -80 60zM346.001 446.999c6.66699 8.66699 12.3291 15.3359 16.9961 20.0029c8 8 15.667 12 23 12
c8.66699 0 16.667 -3.33301 24 -10s11 -14.667 11 -24c0 -12 -21 -45.333 -63 -100l-63 -79c8.66699 -8.66699 31.334 -37 68.001 -85c44.667 -58.667 67 -94 67 -106c0 -9.33301 -3.33301 -17.333 -10 -24s-15 -10 -25 -10c-15.333 0 -43.666 28 -84.999 84l-58 84
l-103 -136c-6.66699 -8.66699 -12.334 -15.334 -17.001 -20.001c-8 -8 -15.667 -12 -23 -12c-8.66699 0 -16.667 3.33301 -24 10s-11 14.667 -11 24c0 12 22.333 47.333 67 106c14.667 19.333 37.334 47.666 68.001 84.999c-9.33301 9.33301 -30.666 35.666 -63.999 78.999
c-41.333 54 -62 87.333 -62 100c0 9.33301 3.33301 17.333 10 24s15 10 25 10c14.667 0 39.334 -23.333 74.001 -70l60 -86z" />
    <glyph glyph-name="y" unicode="y" horiz-adv-x="487" 
d="M19 444c0 23.333 9 43.6641 27 60.9971s38.667 26 62 26c33.333 0 67 -25 101 -75l40 -63l53 86c26 34.667 53.667 52 83 52c23.333 0 44 -8.66699 62 -26s27 -37.666 27 -60.999c0 -25.333 -21 -68 -63 -128l-76 -101c0 -11.333 0.5 -27.666 1.5 -48.999
s1.5 -32.666 1.5 -33.999c0 -42.667 -5 -74.667 -15 -96c-14.667 -30.667 -40 -46 -76 -46s-61 14.667 -75 44c-10.667 22 -16 54 -16 96c0 16 0.333008 30.833 1 44.5l2 40.5l-100 136c-26.667 42 -40 73 -40 93zM247 15.998c24.667 0 42.333 12.3311 53 36.998
c8.66699 20 13 46.667 13 80c0 16.667 -0.666992 32.834 -2 48.501s-2.33301 29.834 -3 42.501l96 132c28.667 44 43 73.333 43 88c0 16.667 -6.16699 30.834 -18.5 42.501s-26.833 17.5 -43.5 17.5c-23.333 0 -51 -23 -83 -69c-30 -50.667 -47.667 -80 -53 -88l-75 113
c-24.667 29.333 -46.667 44 -66 44c-16.667 0 -31.167 -5.83301 -43.5 -17.5s-18.5 -25.834 -18.5 -42.501c0 -18 22.667 -59.333 68 -124l71 -96c0 -9.33301 -0.333008 -18 -1 -26c-2.66699 -32.667 -4 -54 -4 -64c0 -35.333 4 -62.333 12 -81
c10.667 -24.667 29 -37 55 -37zM72.999 443.996c0 9.33301 3.5 17.1631 10.5 23.4961s15.167 9.5 24.5 9.5c15.333 0 43.333 -28.667 84 -86c19.333 -27.333 39 -57.666 59 -90.999l75 123c26 36 45.667 54 59 54c10 0 18.5 -3.16699 25.5 -9.5s10.5 -14.166 10.5 -23.499
s-14 -34.666 -42 -75.999l-98 -136v-133c0 -18 -1.33301 -30.333 -4 -37c-4.66699 -12.667 -14.667 -19 -30 -19c-14.667 0 -24.167 5 -28.5 15s-6.5 23.667 -6.5 41v133l-71 99c-45.333 64.667 -68 102.334 -68 113.001z" />
    <glyph glyph-name="z" unicode="z" horiz-adv-x="482" 
d="M19 441c0 28.667 9.66406 50.168 28.9971 64.501s44 21.5 74 21.5h230c29.333 0 52.666 -5.33301 69.999 -16c22 -13.333 33 -34.333 33 -63c0 -18 -15 -51 -45 -99c-21.333 -34.667 -49.666 -75.667 -84.999 -123l-47 -62h30c10.667 0 21.667 0.333008 33 1
c48.667 0 82.334 -8 101.001 -24c16 -14 24 -34.667 24 -62c0 -29.333 -9.5 -51 -28.5 -65s-43.5 -21 -73.5 -21h-246c-30 0 -53 5.66699 -69 17c-19.333 13.333 -29 34.333 -29 63c0 20.667 14.333 54 43 100c20.667 33.333 48.334 72.666 83.001 117.999l51 65
c-9.33301 0 -18.666 -0.166992 -27.999 -0.5s-19 -0.5 -29 -0.5c-47.333 0 -80 8.33301 -98 25c-15.333 14 -23 34.333 -23 61zM46.9971 73.001c0 -20 7.66797 -34.334 23.001 -43.001c12 -6.66699 29 -10 51 -10h243c23.333 0 41 3.66699 53 11
c15.333 9.33301 23 25.333 23 48c0 24.667 -11 41.5 -33 50.5s-50.667 13.5 -86 13.5c-18.667 0 -35.834 -0.666992 -51.501 -2s-29.834 -2.33301 -42.501 -3c0.666992 0 17.5 22.833 50.5 68.5l97.5 141.5c35.333 54.667 53 88 53 100c0 19.333 -7.5 32.833 -22.5 40.5
s-32.833 11.5 -53.5 11.5h-230c-24 0 -41.667 -3.66699 -53 -11c-15.333 -10 -23 -26 -23 -48c0 -24 12 -41.333 36 -52c18.667 -8 44.667 -12 78 -12c16.667 0 32.334 0.5 47.001 1.5s28 2.16699 40 3.5c-9.33301 -11.333 -27 -34.666 -53 -69.999
c-42 -56.667 -74 -102 -96 -136c-34 -52.667 -51 -87 -51 -103zM124.998 409c-16 0 -27.667 1.33398 -35 4.00098c-12 4.66699 -18 14 -18 28c0 16.667 5.33301 26.167 16 28.5s22 3.5 34 3.5h230c18 0 30.667 -1.83301 38 -5.5s11 -9.83398 11 -18.501
c0 -9.33301 -18.333 -41.666 -55 -96.999l-106 -153l-63 -88h183c16.667 0 29.667 -1.83301 39 -5.5s14 -12.5 14 -26.5c0 -10.667 -3.33301 -18.667 -10 -24s-19.667 -8 -39 -8h-246c-12.667 0 -23.167 1.66699 -31.5 5s-12.5 10.333 -12.5 21
c0 9.33301 19 42.666 57 99.999l107 153l60 83h-173z" />
    <glyph glyph-name="braceleft" unicode="{" 
d="M312 724c-23.333 -2 -43.666 -6.33398 -60.999 -13.001s-31 -15.334 -41 -26.001c-18.667 -22 -28 -51.667 -28 -89v-115c-1.33301 -25.333 -6 -44.666 -14 -57.999c-8.66699 -14 -20.334 -23.333 -35.001 -28c-32.667 -11.333 -50 -30.333 -52 -57
c0 -26.667 16.333 -46.667 49 -60c18 -6 30.667 -14.667 38 -26h-1c3.33301 -6 6 -12.667 8 -20s2.66699 -16.333 2 -27v-116c0.666992 -52 11 -88 31 -108c21.333 -19.333 51.666 -32 90.999 -38l49 -4c39.333 -3.33301 61 13 65 49c4 40 -14.667 61 -56 63l-46 3h1
c-11.333 0.666992 -19.333 2.33398 -24 5.00098c-2.66699 5.33301 -4 15.333 -4 30v116c-0.666992 22 -2.16699 40.333 -4.5 55s-5.16602 26.667 -8.49902 36c-5.33301 13.333 -18.333 27.333 -39 42c19.333 15.333 32.333 31.333 39 48h-1
c9.33301 19.333 14.666 51 15.999 95v114c0 2 0.333008 4.33301 1 7s1.66699 4.66699 3 6c8 6 22.667 10 44 12c5.33301 0.666992 11.333 1.16699 18 1.5s13 0.833008 19 1.5c19.333 1.33301 33 7.5 41 18.5s11 24.833 9 41.5c-1.33301 16 -8.16602 28 -20.499 36
s-28.833 11 -49.5 9zM353 702.999c28 2 42.666 -5.66699 43.999 -23c2.66699 -20 -6.66602 -30.333 -27.999 -31l-37 -3c-26 -3.33301 -44.333 -9 -55 -17c-10 -8 -15.333 -19 -16 -33v-115c-0.666992 -38.667 -5.33398 -67.334 -14.001 -86.001
c-8.66699 -19.333 -28.334 -38.666 -59.001 -57.999c32.667 -18.667 52.334 -36 59.001 -52c6.66699 -15.333 10.667 -42 12 -80v-116c0 -21.333 3.66699 -36.333 11 -45c7.33301 -8 20.333 -13.333 39 -16l47 -3c23.333 -0.666992 34 -11.667 32 -33
c-3.33301 -20 -15.666 -29.667 -36.999 -29l-49 5c-34 4.66699 -59 14.334 -75 29.001c-14.667 16.667 -22.667 47.334 -24 92.001v116c0.666992 25.333 -4 45.666 -14 60.999c-10.667 16 -27.334 27.333 -50.001 34c-22 9.33301 -33 21.666 -33 36.999
c0.666992 15.333 12.334 27.333 35.001 36c22 8 38.333 20.333 49 37c10.667 16 16.667 39.667 18 71v115c0 30.667 7 55 21 73c16 16 44.333 26.333 85 31zM347.999 755.999c28 1.33301 51.3301 -4.00098 69.9971 -16.001s29 -29.667 31 -53
c2 -25.333 -3.33301 -46.333 -16 -63s-33 -26 -61 -28h-15c-3.33301 -0.666992 -6.66602 -1 -9.99902 -1s-6.66602 -0.333008 -9.99902 -1c-9.33301 -0.666992 -17.666 -2.33398 -24.999 -5.00098v-109c-1.33301 -46.667 -6.66602 -81.667 -15.999 -105h-1l-9.5 -19
c-3 -6 -7.16699 -11.667 -12.5 -17c10 -10 17.333 -20.667 22 -32c4 -11.333 7.5 -25.333 10.5 -42s4.83301 -36.667 5.5 -60v-116c0 -4.66699 -0.333008 -7.33398 -1 -8.00098h1c0 -0.666992 0.333008 -1 1 -1h2h-2c8 -0.666992 16.167 -1.16699 24.5 -1.5
s15.833 -0.5 22.5 -0.5c29.333 -2 50.833 -10.833 64.5 -26.5s18.834 -37.5 15.501 -65.5c-2.66699 -27.333 -12.167 -47 -28.5 -59s-37.833 -17.333 -64.5 -16c-7.33301 0.666992 -15.666 1.5 -24.999 2.5s-17.666 1.83301 -24.999 2.5c-46.667 6 -82.667 21.333 -108 46
c-24.667 24.667 -37.334 66.667 -38.001 126v117c0.666992 15.333 -1 26.666 -5 33.999l1 -2c-2 2.66699 -5 5.33398 -9 8.00098s-9.66699 5 -17 7c-44 18.667 -66 47.667 -66 87c3.33301 38.667 26.666 66 69.999 82c3.33301 1.33301 7.16602 3.5 11.499 6.5
s7.5 6.16699 9.5 9.5c5.33301 8.66699 8.33301 23.667 9 45v114c0 44.667 11.667 80.334 35 107.001c12.667 12.667 29.167 23.334 49.5 32.001s44.166 14.334 71.499 17.001z" />
    <glyph glyph-name="bar" unicode="|" horiz-adv-x="467" 
d="M317 12c0 -30.667 -6.66602 -55.832 -19.999 -75.499s-35.333 -29.5 -66 -29.5c-29.333 0 -51 10.667 -65 32c-14 18.667 -21 43 -21 73v639c0 31.333 6.33301 55.666 19 72.999c13.333 22 35.666 33 66.999 33c30.667 0 52.667 -10.167 66 -30.5s20 -45.5 20 -75.5v-639
zM174.001 12.002c0 -22.667 3.00098 -40 9.00098 -52c8.66699 -16.667 24.667 -25 48 -25c22 0 37 7.33301 45 22s12 33 12 55v639c0 23.333 -3.33301 41 -10 53c-8.66699 16 -24.334 24 -47.001 24c-22 0 -37.667 -8 -47 -24c-6.66699 -12 -10 -29.667 -10 -53v-639z
M260.002 12.002c0 -12.667 -2 -25 -6 -37c-7.33301 -7.33301 -15 -11 -23 -11c-2.66699 0 -6 0.666992 -10 2s-8 4 -12 8c-4.66699 14 -7 26.667 -7 38v639c0 6 0.666992 12 2 18s3 12.667 5 20c4 4.66699 7.83301 7.66699 11.5 9s7.16699 2 10.5 2
c12.667 0 20.667 -4.33301 24 -13s5 -20.667 5 -36v-639z" />
    <glyph glyph-name="braceright" unicode="}" 
d="M185 616c13.333 -0.666992 22.3291 -3.99512 26.9961 -9.99512c5.33301 -5.33301 7.66602 -12 6.99902 -20v-117c0.666992 -40.667 5.33398 -72 14.001 -94c3.33301 -8.66699 8.66602 -17.167 15.999 -25.5s16 -17.166 26 -26.499
c-10 -7.33301 -18.5 -14.833 -25.5 -22.5s-12.167 -14.834 -15.5 -21.501c-8 -18 -12.667 -49 -14 -93v-96c-1.33301 -16 -3.66602 -27.667 -6.99902 -35c-4.66699 -3.33301 -12.334 -6 -23.001 -8l-48 -3c-41.333 -2 -61 -21.333 -59 -58
c0.666992 -34.667 23 -51.334 67 -50.001l49 4c21.333 2 39.833 6.16699 55.5 12.5s28.834 14.5 39.501 24.5c21.333 21.333 32.666 58.666 33.999 111.999v97c0 20.667 3.66699 36.667 11 48c6.66699 12 18.334 21 35.001 27c35.333 13.333 53 33.666 53 60.999
c0 32.667 -17.333 53.667 -52 63h1c-16 5.33301 -27.667 13.666 -35 24.999l1 -2c-7.33301 16 -11.666 36.333 -12.999 61v116c-0.666992 38.667 -10.667 70.667 -30 96c-17.333 21.333 -51.333 35.666 -102 42.999c-7.33301 0.666992 -15.666 1.33398 -24.999 2.00098
s-17.666 1 -24.999 1c-18 1.33301 -32.667 -1.5 -44 -8.5s-18.666 -18.5 -21.999 -34.5c-4 -38.667 14 -60.334 54 -65.001zM136.996 644.005c-22 2 -32.332 13 -30.999 33c4 19.333 17 28 39 26l49 -4c42.667 -4.66699 70.667 -15.667 84 -33
c15.333 -20 23.666 -47 24.999 -81v-116c0.666992 -29.333 6.33398 -53.333 17.001 -72c10 -16 26 -27.667 48 -35c22.667 -6 34 -19.333 34 -40c0 -16.667 -11.333 -29.667 -34 -39c-23.333 -6 -40 -18 -50 -36c-10.667 -16.667 -16 -37 -16 -61v-96
c-0.666992 -46.667 -9.33398 -78.667 -26.001 -96c-17.333 -15.333 -44 -25.666 -80 -30.999l-47 -2c-26 -0.666992 -39.667 8 -41 26c-0.666992 20.667 11.333 31.667 36 33l48 3c20.667 2 34.667 8 42 18c6.66699 9.33301 10.334 25.666 11.001 48.999v96
c0.666992 38.667 4.66699 66.334 12 83.001c8 16 28.333 33.667 61 53c-34 23.333 -54.667 44 -62 62c-6.66699 18 -10.334 46.333 -11.001 85v116c0 15.333 -4.33301 27.666 -13 36.999c-8.66699 10.667 -23.667 17 -45 19zM131.997 592.005c-58 6 -84 37.6699 -78 95.0029
c4 25.333 14.167 43.333 30.5 54s37.833 15 64.5 13c4.66699 0 8.83398 -0.166992 12.501 -0.5s7.5 -0.833008 11.5 -1.5c4.66699 -0.666992 9.33398 -1 14.001 -1s9 -0.333008 13 -1c28 -3.33301 52.333 -9.83301 73 -19.5s36.667 -21.167 48 -34.5
c11.333 -14.667 20 -31.334 26 -50.001s9.33301 -39 10 -61v-116c0 -19.333 3 -35 9 -47l-1 2c4 -5.33301 10 -9.66602 18 -12.999c23.333 -6.66699 41.166 -17.667 53.499 -33s18.5 -34 18.5 -56c0 -20.667 -6 -37.834 -18 -51.501s-30 -25.5 -54 -35.5
c-9.33301 -2.66699 -16.333 -8 -21 -16c-4 -6 -6 -17 -6 -33v-97c-1.33301 -62 -15.666 -105.667 -42.999 -131c-12.667 -12 -28.334 -21.833 -47.001 -29.5s-40.334 -12.834 -65.001 -15.501l-50 -4c-62.667 -1.33301 -94.667 24 -96 76c-2 54.667 26.667 83.334 86 86.001
l45 2h4l1 1c0.666992 2 1 4.66699 1 8s0.333008 6.66602 1 9.99902v94c0.666992 22.667 2.16699 42.667 4.5 60s6.16602 31.666 11.499 42.999c2.66699 5.33301 6.33398 11.333 11.001 18s9.66699 12.667 15 18c-7.33301 7.33301 -13 14.166 -17 20.499
s-7.66699 12.833 -11 19.5c-9.33301 24.667 -14.333 59 -15 103v121c0 0.666992 -0.333008 1.33398 -1 2.00098c1.33301 -1.33301 -1.66699 -1.33301 -9 0h1z" />
    <glyph glyph-name="asciitilde" unicode="~" 
d="M183 730c-16 0 -31.3369 -3.99707 -46.0039 -11.9971l1 1c-14 -6.66699 -31 -22 -51 -46c-6.66699 -6.66699 -11 -13.167 -13 -19.5s-2.66699 -13.166 -2 -20.499c3.33301 -18 7.66602 -29.667 12.999 -35c18.667 -12.667 34.334 -18 47.001 -16
c15.333 4.66699 28.333 13 39 25c10.667 14 18.667 21 24 21c4.66699 0 18 -7.33301 40 -22c34.667 -18.667 64.334 -28.334 89.001 -29.001c18.667 0 35.334 5 50.001 15c6 2 12.833 6.16699 20.5 12.5s15.834 14.166 24.501 23.499c9.33301 11.333 14 24 14 38
c0 13.333 -4.66699 25.666 -14 36.999c-13.333 13.333 -28.333 19.333 -45 18c-5.33301 -1.33301 -11.666 -4.33301 -18.999 -9s-14 -10.667 -20 -18c-1.33301 -1.33301 -3.5 -3 -6.5 -5s-5.16699 -3.33301 -6.5 -4c-10.667 1.33301 -26 7.66602 -46 18.999
c-30.667 17.333 -57.667 26 -81 26h-12zM194.996 704.003c19.333 0 42.334 -7.33398 69.001 -22.001c28 -14.667 48.333 -22 61 -22c8 0 18 6.33301 30 19c8 10 15.333 15.333 22 16c8.66699 0.666992 16 -2.33301 22 -9c6 -5.33301 9 -12 9 -20
c0 -6.66699 -4.66699 -16 -14 -28c-12 -12 -22.333 -20 -31 -24c-12.667 -7.33301 -25.334 -11 -38.001 -11c-21.333 0.666992 -46.666 9 -75.999 25c-24.667 16.667 -42.667 25 -54 25c-12.667 0 -27 -9.66699 -43 -29c-7.33301 -8 -15 -13.667 -23 -17
c-7.33301 -1.33301 -14.333 0.333984 -21 5.00098c-5.33301 4.66699 -9 11.334 -11 20.001c-0.666992 9.33301 2.33301 17.666 9 24.999c17.333 20.667 31.666 33.667 42.999 39c10 5.33301 21.333 8 34 8h12zM194.997 757.002c29.333 0 61.001 -9.67285 95.001 -29.0059
c5.33301 -3.33301 10.166 -6.16602 14.499 -8.49902s8.16602 -4.16602 11.499 -5.49902c8 10 16.833 17.833 26.5 23.5s18.834 9.16699 27.501 10.5c12.667 1.33301 25 -0.333984 37 -5.00098s23 -12 33 -22c13.333 -15.333 20 -33.666 20 -54.999
c0 -9.33301 -1.5 -18.666 -4.5 -27.999s-8.5 -18.666 -16.5 -27.999c-9.33301 -10 -18.333 -18.833 -27 -26.5s-16.667 -13.167 -24 -16.5c-10.667 -6.66699 -21.334 -11.334 -32.001 -14.001s-21.667 -4 -33 -4c-15.333 0.666992 -31.5 3.83398 -48.5 9.50098
s-34.833 13.5 -53.5 23.5c-6.66699 4 -12 7.33301 -16 10s-6.66699 4.66699 -8 6c0 -2 -2 -5 -6 -9c-7.33301 -7.33301 -15.166 -13.833 -23.499 -19.5s-17.833 -10.167 -28.5 -13.5c-21.333 -5.33301 -44 0.333984 -68 17.001c-6 5.33301 -11.5 12.833 -16.5 22.5
s-8.16699 20.5 -9.5 32.5c-3.33301 23.333 3.66699 44 21 62c10 12.667 20.333 23.834 31 33.501s20.667 16.5 30 20.5c9.33301 5.33301 18.5 8.83301 27.5 10.5s18.5 2.5 28.5 2.5h12z" />
    <glyph glyph-name="exclamdown" unicode="&#xa1;" horiz-adv-x="327" 
d="M163 311c38.667 0 67.333 -13.668 86 -41.001c16 -23.333 24 -55 24 -95v-183c0 -38 -8.33301 -68.667 -25 -92c-19.333 -26.667 -47.666 -40 -84.999 -40c-38 0 -65.833 12.333 -83.5 37s-26.5 56.334 -26.5 95.001v187c0 38 8.33301 68.667 25 92
c19.333 26.667 47.666 40 84.999 40zM55.999 444.999c0 29.333 10.333 54.667 31 76s46 32 76 32s55.5 -10.5 76.5 -31.5s31.5 -46.5 31.5 -76.5c0 -29.333 -10.5 -54.5 -31.5 -75.5s-46.5 -31.5 -76.5 -31.5s-55.333 10.333 -76 31s-31 46 -31 76zM162.999 278
c-27.333 0 -47.668 -10.333 -61.001 -31c-10.667 -16.667 -16 -39.667 -16 -69v-184c0 -30 5 -53.333 15 -70c12.667 -20.667 33.334 -31 62.001 -31s49.334 10.333 62.001 31c10 16 15 39 15 69v185c0 30 -5 53 -15 69c-12.667 20.667 -33.334 31 -62.001 31zM237.997 445
c0 20 -7.33301 37.333 -22 52s-32.334 22 -53.001 22s-38.167 -7.16699 -52.5 -21.5s-21.5 -31.833 -21.5 -52.5s7.16699 -38.167 21.5 -52.5s31.833 -21.5 52.5 -21.5s38.334 7 53.001 21s22 31.667 22 53zM119.997 175c0 22.667 1.66797 38 5.00098 46
c6 15.333 18.667 23 38 23s32 -7.33301 38 -22c4 -9.33301 6 -25 6 -47v-178c0 -22 -2 -37.667 -6 -47c-6.66699 -15.333 -19.334 -23 -38.001 -23s-30.5 6.33301 -35.5 19s-7.5 29.667 -7.5 51v178zM121.998 445c0 11.333 4 21 12 29s17.667 12 29 12
c12 0 21.833 -3.83301 29.5 -11.5s11.5 -17.5 11.5 -29.5c0 -11.333 -4 -21 -12 -29s-17.667 -12 -29 -12s-21 4 -29 12s-12 17.667 -12 29z" />
    <glyph glyph-name="cent" unicode="&#xa2;" horiz-adv-x="563" 
d="M311 671c23.333 0 43.8301 -6.83203 61.4971 -20.499s29.167 -31.834 34.5 -54.501c36.667 -10 65.667 -23.667 87 -41c28.667 -23.333 43 -51.333 43 -84c0 -24 -8.16699 -45.167 -24.5 -63.5s-36.5 -27.5 -60.5 -27.5c-12 0 -38.667 9.66699 -80 29
c-20 9.33301 -37 14 -51 14c-24 0 -44.333 -8.33301 -61 -25s-25 -37 -25 -61c0 -23.333 8.16699 -43.833 24.5 -61.5s36.166 -26.5 59.499 -26.5c17.333 0 35.333 4.66699 54 14c44 22 71 33 81 33c22.667 0 42.167 -8.5 58.5 -25.5s24.5 -37.167 24.5 -60.5
c0 -30 -14.333 -57.333 -43 -82c-21.333 -18 -49.666 -33.333 -84.999 -46c-4 -26 -15 -47 -33 -63s-39.667 -24 -65 -24s-47.166 7.66699 -65.499 23s-29.166 35.666 -32.499 60.999c-53.333 18.667 -96.666 52 -129.999 100s-50 100.333 -50 157
c0 56 16.667 107.333 50 154s76.666 79.334 129.999 98.001c4.66699 24.667 15.834 44.667 33.501 60s39.167 23 64.5 23zM65.9971 336.001c0 -54.667 16.502 -103.668 49.502 -147.001s75.833 -71.666 128.5 -84.999c0 -22 5.66699 -40.167 17 -54.5s28 -21.5 50 -21.5
c21.333 0 37.666 7.33301 48.999 22s17 33.334 17 56.001c30 8 56.333 19.667 79 35c31.333 21.333 47 44 47 68c0 14 -4.66699 26.333 -14 37s-21 16 -35 16c-8.66699 0 -27.667 -7.66699 -57 -23s-55 -23 -77 -23c-32.667 0 -60.667 12 -84 36s-35 52 -35 84
c0 34 11.667 62.333 35 85s51.666 34 84.999 34c21.333 0 46.333 -6.83301 75 -20.5s47.334 -20.5 56.001 -20.5c15.333 0 27.833 5.83301 37.5 17.5s14.5 25.5 14.5 41.5c0 26 -13 47.333 -39 64l-89 32c-6.66699 22 -11.667 37.333 -15 46
c-6.66699 15.333 -23.334 23 -50.001 23c-21.333 0 -37.833 -6.83301 -49.5 -20.5s-17.5 -31.5 -17.5 -53.5c-52.667 -14 -95.5 -41.833 -128.5 -83.5s-49.5 -89.834 -49.5 -144.501zM309.999 605c14.667 0 24.335 -7.33008 29.002 -21.9971
c2.66699 -8.66699 4 -22.667 4 -42c28 -2.66699 53.333 -8.33398 76 -17.001c34.667 -13.333 52 -30.333 52 -51l-7 -18l-14 -7c-10.667 3.33301 -26.667 9.33301 -48 18c-32.667 14 -60 21 -82 21c-42.667 0 -78.834 -14.5 -108.501 -43.5s-44.5 -64.833 -44.5 -107.5
c0 -42 14.833 -77.833 44.5 -107.5s65.5 -44.5 107.5 -44.5c24.667 0 52.667 7.66699 84 23c24.667 12 41.334 19.333 50.001 22l12 -6c3.33301 -5.33301 5 -9.66602 5 -12.999c0 -18 -16.667 -35.333 -50 -52c-26 -12.667 -51.667 -21.334 -77 -26.001v-14
c0 -18 -1.33301 -30.333 -4 -37c-4.66699 -12.667 -14.334 -19 -29.001 -19c-16.667 0 -26.5 6.5 -29.5 19.5s-4.5 24.833 -4.5 35.5v14c-52 7.33301 -94.333 30.166 -127 68.499s-49 83.833 -49 136.5c0 42.667 16.333 86 49 130c35.333 48 73.666 72 114.999 72h12
c0 21.333 1 35.666 3 42.999c4.66699 16 15 24 31 24z" />
    <glyph glyph-name="sterling" unicode="&#xa3;" horiz-adv-x="609" 
d="M33 316c0 20.667 5.33398 38.501 16.001 53.501s25.667 25.5 45 31.5c-2 10.667 -3.5 20.667 -4.5 30s-1.5 18.333 -1.5 27c0 64.667 23.5 118 70.5 160s103.5 63 169.5 63c55.333 0 109 -17.667 161 -53c58 -39.333 87 -85.666 87 -138.999
c0 -28.667 -10.167 -53.167 -30.5 -73.5s-44.833 -30.5 -73.5 -30.5s-56.334 14 -83.001 42s-46 42 -58 42c-15.333 0 -23 -9.33301 -23 -28c0 -9.33301 0.666992 -16.833 2 -22.5s2 -9.83398 2 -12.501c26.667 0 48.5 -8.16699 65.5 -24.5s25.5 -38.166 25.5 -65.499
c0 -24 -7.66699 -44 -23 -60s-35.333 -25.333 -60 -28l-4 -20c9.33301 0 26 0.333008 50 1s36.333 1 37 1c49.333 0 86 -5.66699 110 -17c34.667 -16.667 52 -46.334 52 -89.001c0 -36 -13 -63 -39 -81c-22.667 -15.333 -52.667 -23 -90 -23h-251
c-36 0 -63.667 5.33301 -83 16c-25.333 14 -38 37.333 -38 70c0 21.333 6 51.666 18 90.999c5.33301 18 11 36 17 54c-20 6 -36 16.5 -48 31.5s-18 32.833 -18 53.5zM98.001 86.001c0 -22 9.66699 -36.999 29 -44.999c12.667 -5.33301 32 -8 58 -8h251
c28.667 0 50.667 4.33301 66 13c20 11.333 30 30.666 30 57.999c0 29.333 -15 50.333 -45 63c-22.667 9.33301 -55.667 14 -99 14c-18 0 -40.667 -1 -68 -3s-43 -3 -47 -3c2 7.33301 4.83301 20.166 8.5 38.499l8.5 43.5l1 3c22 -2 40.5 1.33301 55.5 10s22.5 24 22.5 46
c0 32.667 -15.667 49.334 -47 50.001s-47 25.334 -47 74.001c0 18 4.83301 32.833 14.5 44.5s23.5 17.5 41.5 17.5c20.667 0 39.667 -8.66699 57 -26c39.333 -38.667 67.333 -58 84 -58c19.333 0 35.833 6.83301 49.5 20.5s20.5 30.5 20.5 50.5c0 44 -25.667 82.333 -77 115
c-46 29.333 -92 44 -138 44c-56 0 -104.167 -17.833 -144.5 -53.5s-60.5 -81.167 -60.5 -136.5c0 -9.33301 2.33301 -27 7 -53c2.66699 -14.667 4 -25.334 4 -32.001c-44 0 -66 -19 -66 -57c0 -20 6 -34.333 18 -43s28.333 -13 49 -13l3 -2c0 -20 -6.5 -49.167 -19.5 -87.5
s-19.5 -66.5 -19.5 -84.5zM109.001 298.002l-8.99707 18.002c0 6.66699 3 13 9 19c6 2 13.833 3.33301 23.5 4s18.834 1 27.501 1h18c-2.66699 14.667 -6 29 -10 43c-8.66699 33.333 -13 57.666 -13 72.999c0 47.333 16.667 85.666 50 114.999s74.333 44 123 44
c36 0 73.667 -11.667 113 -35c45.333 -26.667 68 -57 68 -91c0 -10 -3.33301 -18.667 -10 -26s-15 -11 -25 -11c-10.667 0 -29.667 14 -57 42s-56 42 -86 42c-26 0 -47.5 -8.83301 -64.5 -26.5s-25.5 -39.5 -25.5 -65.5c0 -18 1.33301 -34 4 -48s7.66699 -32.667 15 -56
c10.667 0 22 -0.166992 34 -0.5s23 -1.83301 33 -4.5c6 -4.66699 9 -11 9 -19c0 -6 -3 -12 -9 -18c-10.667 -2.66699 -23.334 -4.16699 -38.001 -4.5s-24.667 -0.5 -30 -0.5c0 -24.667 -2.66699 -50 -8 -76c-2.66699 -11.333 -9.33398 -36.333 -20.001 -75h205
c19.333 0 34.666 -2.16699 45.999 -6.5s17 -14.833 17 -31.5c0 -12 -4.33301 -21.167 -13 -27.5s-25.334 -9.5 -50.001 -9.5h-251c-16 0 -30.333 1.33301 -43 4l-10 15l44 207h-18c-8.66699 0 -17 0.333008 -25 1s-16 2 -24 4z" />
    <glyph glyph-name="currency" unicode="&#xa4;" 
d="M224 319c0 -6 1.66699 -11.167 5 -15.5s7.33301 -6.5 12 -6.5c6.66699 0 12.167 2.16699 16.5 6.5s6.5 9.5 6.5 15.5s-2.16699 11 -6.5 15s-9.83301 6 -16.5 6c-4.66699 0 -8.66699 -2 -12 -6s-5 -9 -5 -15zM425 319c0 -16.667 -2.66699 -33.6699 -8 -51.0029
c14.667 -14.667 25.834 -28 33.501 -40s11.834 -23.667 12.501 -35c1.33301 -7.33301 1.16602 -15.666 -0.500977 -24.999s-5.16699 -17.333 -10.5 -24l2 2c-7.33301 -14 -17 -24.5 -29 -31.5s-24.667 -11.167 -38 -12.5c-26.667 0 -55.334 14 -86.001 42
c-9.33301 -3.33301 -19.166 -5.66602 -29.499 -6.99902s-20.5 -2 -30.5 -2c-8 0 -16.5 0.666992 -25.5 2s-17.5 3 -25.5 5c-12 -11.333 -23 -20.666 -33 -27.999s-21 -11.666 -33 -12.999l2 1c-12 -2 -22 -1.83301 -30 0.5s-17 6.16602 -27 11.499
c-22.667 17.333 -35.334 38 -38.001 62c0 10.667 3 23 9 37s16 29.333 30 46c-6 18.667 -9 38.667 -9 60c0 10 0.5 20 1.5 30s3.16699 20 6.5 30c-23.333 23.333 -36 46.666 -38 69.999c-1.33301 8 -1 16.667 1 26s5.66699 17.666 11 24.999
c7.33301 13.333 16.333 22.833 27 28.5s22.334 9.16699 35.001 10.5c23.333 2.66699 53 -11.666 89 -42.999c7.33301 1.33301 15.166 2.66602 23.499 3.99902s16.166 2 23.499 2c18.667 0 38 -2.66699 58 -8c24.667 27.333 48.334 43 71.001 47
c7.33301 0.666992 15.833 -0.333008 25.5 -3s18.167 -5.66699 25.5 -9c14.667 -9.33301 25 -19.166 31 -29.499s9.66699 -21.833 11 -34.5c0 -14 -3.66699 -28.5 -11 -43.5s-19 -30.833 -35 -47.5v-1c2 -8 3.83301 -16.667 5.5 -26s2.5 -18.666 2.5 -27.999zM171 318.997
c0 -20 6.83301 -37.333 20.5 -52s30.167 -22 49.5 -22c22 0 40.167 7.33301 54.5 22s21.5 32 21.5 52c0 21.333 -7.16699 39 -21.5 53s-32.5 21 -54.5 21c-19.333 0 -35.833 -7 -49.5 -21s-20.5 -31.667 -20.5 -53zM371 318.997c0 -24 -5.67285 -46.333 -17.0059 -67
c2.66699 -2 5.83398 -4.83301 9.50098 -8.5s7.83398 -6.83398 12.501 -9.50098c22.667 -21.333 34.334 -37 35.001 -47c1.33301 -6.66699 -0.666992 -12.667 -6 -18l1 1c-2 -5.33301 -5 -9 -9 -11s-8.66699 -3.33301 -14 -4c-8.66699 0 -25 10.333 -49 31
c-4 3.33301 -8 7 -12 11l-11 11c-19.333 -12.667 -42.666 -19 -69.999 -19c-11.333 0 -22.5 1.5 -33.5 4.5s-21.167 7.16699 -30.5 12.5c-2.66699 -2.66699 -5.33398 -5.5 -8.00098 -8.5s-5.33398 -6.16699 -8.00098 -9.5c-10 -10 -18.667 -18 -26 -24
s-13.666 -9.33301 -18.999 -10c-4 -2 -9.33301 -0.666992 -16 4c-8.66699 6 -13.667 13.667 -15 23c-1.33301 10 9.33398 27.667 32.001 53c4 4 6.83301 7 8.5 9s4.16699 4.66699 7.5 8c-6 10.667 -10.833 21.5 -14.5 32.5s-5.5 22.833 -5.5 35.5s2 25.334 6 38.001
s9.66699 24 17 34c-1.33301 2 -3.16602 3.83301 -5.49902 5.5s-4.16602 3.16699 -5.49902 4.5l-5.5 5.5l-2.5 2.5c-11.333 9.33301 -19.666 17.833 -24.999 25.5s-8.33301 14.167 -9 19.5c-0.666992 6 1.33301 12 6 18l-1 -1c2 5.33301 5 8.83301 9 10.5
s8.66699 2.83398 14 3.50098c9.33301 0.666992 25.333 -9.33301 48 -30c6 -5.33301 10.333 -9.33301 13 -12s5.33398 -5.66699 8.00098 -9c8.66699 4 18.5 7.5 29.5 10.5s21.5 4.5 31.5 4.5c26.667 0 50.667 -6.33301 72 -19c2.66699 4 5.66699 7.66699 9 11l11 11
c19.333 22 34.333 33.667 45 35c2.66699 0.666992 5.5 0.666992 8.5 0s5.5 -1.66699 7.5 -3h-1c5.33301 -3.33301 9.16602 -6.83301 11.499 -10.5s3.83301 -7.83398 4.5 -12.501c0.666992 -12 -9.33301 -29.333 -30 -52c-4.66699 -4 -9.33398 -8.33301 -14.001 -13l-10 -10
c6 -10 10.167 -20.5 12.5 -31.5s3.5 -22.833 3.5 -35.5zM396.994 318.997c0 22.667 -3.67188 42.9941 -11.0049 60.9941c-1.33301 -0.666992 -2.16602 -1 -2.49902 -1s0.833984 1 3.50098 3l9 9c26 28 39 51.667 39 71c-1.33301 9.33301 -4 17.5 -8 24.5
s-10.667 13.5 -20 19.5c-4 2 -9.16699 3.83301 -15.5 5.5s-12.166 2.16699 -17.499 1.5c-18 -3.33301 -38.333 -17.666 -61 -42.999c-1.33301 -1.33301 -2 -2.5 -2 -3.5s-0.333008 -1.83301 -1 -2.5l-1 -1c-1.33301 -0.666992 -2.33301 -1.33398 -3 -2.00098
c-19.333 8.66699 -41 13 -65 13c-18.667 0 -36.667 -3.33301 -54 -10l-1 1l-2 2c-2.66699 2 -4.33398 3.33301 -5.00098 4l-2 2c-29.333 27.333 -52.333 40 -69 38c-8.66699 -1.33301 -16.5 -3.83301 -23.5 -7.5s-13.167 -10.167 -18.5 -19.5
c-3.33301 -4.66699 -5.66602 -10 -6.99902 -16s-1.66602 -11.667 -0.999023 -17c2 -17.333 14.667 -36.666 38 -57.999c0.666992 -1.33301 1.16699 -2.66602 1.5 -3.99902s1.83301 -2.66602 4.5 -3.99902c-5.33301 -10 -8.83301 -20.667 -10.5 -32
s-2.5 -22.666 -2.5 -33.999s0.833008 -22.5 2.5 -33.5s4.83398 -21.5 9.50098 -31.5l-2 -3c-14.667 -16 -25.167 -30.167 -31.5 -42.5s-9.16602 -22.166 -8.49902 -29.499c2 -16.667 10.667 -30.667 26 -42c6.66699 -3.33301 12.5 -5.83301 17.5 -7.5
s11.167 -1.83398 18.5 -0.500977c8.66699 1.33301 17.667 5.66602 27 12.999s20.666 17.333 33.999 30l1 2c9.33301 -3.33301 18.833 -6 28.5 -8s19.5 -3 29.5 -3c22.667 0 44.334 4.33301 65.001 13c2.66699 -3.33301 4.16699 -4.66602 4.5 -3.99902
s2.5 -0.666016 6.5 -3.99902c28.667 -25.333 51.667 -38 69 -38c8.66699 0.666992 16.667 3.33398 24 8.00098s13.666 11.667 18.999 21c3.33301 4.66699 5.5 9.83398 6.5 15.501s1.16699 11.167 0.5 16.5c-0.666992 16 -15 36.333 -43 61
c-2 1.33301 -4.66699 3.66602 -8 6.99902c8 18 12 38 12 60zM195.989 318.991c0 14 4.5 25.5 13.5 34.5s19.5 13.5 31.5 13.5c14.667 0 26.834 -4.5 36.501 -13.5s14.5 -20.5 14.5 -34.5c0 -13.333 -4.83301 -24.833 -14.5 -34.5s-21.834 -14.5 -36.501 -14.5
c-12 0 -22.5 4.83301 -31.5 14.5s-13.5 21.167 -13.5 34.5zM385.989 379.991v1v-1zM102.989 385.991l-1 1h1v-1z" />
    <glyph glyph-name="yen" unicode="&#xa5;" horiz-adv-x="635" 
d="M33 563c0 29.333 10.999 54.666 32.999 75.999s48 32 78 32c41.333 0 83.333 -31 126 -93l51 -78l65 107c32 42.667 67 64 105 64c29.333 0 55.166 -10.5 77.499 -31.5s33.5 -46.5 33.5 -76.5c0 -30.667 -22 -76 -66 -136l-49 -64c31.333 0 57 -7.5 77 -22.5
s30 -37.833 30 -68.5c0 -37.333 -14.667 -62.666 -44 -75.999c-19.333 -8.66699 -50.666 -13 -93.999 -13h-29c0 -60 -4 -101.333 -12 -124c-15.333 -42.667 -48 -64 -98 -64c-49.333 0 -81.666 21 -96.999 63c-8 22 -12 63.667 -12 125h-27c-44 0 -75.333 4 -94 12
c-30.667 13.333 -46 39 -46 77c0 30 10.167 52.667 30.5 68s45.833 23 76.5 23l-67 90c-32 47.333 -48 84 -48 110zM73.999 272c0 -22.667 10.334 -38.6709 31.001 -48.0039c16 -7.33301 38.667 -11 68 -11c13.333 0 25.5 0.333008 36.5 1l31.5 2
c0 -7.33301 -0.333008 -20.166 -1 -38.499s-1 -27.833 -1 -28.5c0 -36 4.33301 -63.333 13 -82c12 -26 33.667 -39 65 -39s53.333 13.333 66 40c8.66699 18.667 13 46.667 13 84c0 8.66699 -0.333008 20.334 -1 35.001s-1 24.334 -1 29.001c8.66699 0 22.167 -0.5 40.5 -1.5
s28.166 -1.5 29.499 -1.5c29.333 0 51.333 3.33301 66 10c20.667 9.33301 31 25.666 31 48.999s-8.5 38.833 -25.5 46.5s-39.167 11.5 -66.5 11.5c-8 0 -15.833 -0.166992 -23.5 -0.5s-15.167 -0.5 -22.5 -0.5l101 139c29.333 45.333 44 77 44 95
c0 20.667 -7.66699 38.334 -23 53.001s-33.333 22 -54 22c-30.667 0 -65.667 -29 -105 -87l-65 -110l-94 141c-32 37.333 -59.667 56 -83 56c-20 0 -37.833 -7.5 -53.5 -22.5s-23.5 -32.5 -23.5 -52.5c0 -22.667 23 -66.667 69 -132l76 -102h-23
c-8 0 -16.333 0.333008 -25 1c-28 0 -48.333 -3 -61 -9c-19.333 -9.33301 -29 -25.666 -29 -48.999zM519 291.996c5.33301 -6.66699 8.00195 -13.334 8.00195 -20.001c0 -5.33301 -2.66699 -11.333 -8 -18c-11.333 -2.66699 -22 -4.33398 -32 -5.00098s-22.333 -1 -37 -1
c-10 0 -25 0.333008 -45 1s-34.667 1 -44 1c0 -3.33301 0.833008 -15.666 2.5 -36.999s2.5 -36.666 2.5 -45.999c0 -30.667 -3 -54.667 -9 -72c-8 -22 -21.333 -33 -40 -33s-31.334 9.5 -38.001 28.5s-10 43.833 -10 74.5c0 18 0.5 34 1.5 48s2.16699 26.333 3.5 37
c-14.667 0 -29.834 -0.333008 -45.501 -1l-46.5 -2c-24.667 0 -46.667 2.33301 -66 7l-9 18c0 2.66699 0.833008 5.66699 2.5 9s3.83398 6.66602 6.50098 9.99902c11.333 3.33301 22 5.33301 32 6s23.667 1 41 1c9.33301 0 23.666 -0.333008 42.999 -1s33.333 -1 42 -1
l-88 123c-57.333 82 -86 130 -86 144c0 12 4.33301 22 13 30s19 12 31 12c18.667 0 54 -36.667 106 -110c17.333 -24 41.666 -61 72.999 -111c20.667 38.667 42.667 76 66 112c46.667 72.667 80.667 109 102 109c11.333 0 21.5 -4.16699 30.5 -12.5
s13.5 -18.166 13.5 -29.499c0 -10.667 -19 -43.5 -57 -98.5l-117 -166.5h19h30.5c10.333 0 20.833 0.333008 31.5 1c17.333 0 31.333 -0.333008 42 -1s22.334 -2.66699 35.001 -6z" />
    <glyph glyph-name="brokenbar" unicode="&#xa6;" horiz-adv-x="349" 
d="M178 747c27.333 0 47.667 -9.66797 61 -29.001c11.333 -16.667 17 -39 17 -67v-130c0 -26.667 -6 -48.334 -18 -65.001c-13.333 -18.667 -33.333 -28 -60 -28s-46.167 8.83301 -58.5 26.5s-18.5 39.834 -18.5 66.501v133c0 26.667 5.66699 48.334 17 65.001
c13.333 18.667 33.333 28 60 28zM178.001 723.999c-19.333 0 -33.667 -7.33398 -43 -22.001c-8 -11.333 -12 -27.666 -12 -48.999v-130c0 -21.333 3.66699 -37.666 11 -48.999c9.33301 -14.667 24 -22 44 -22c20.667 0 35.334 7.33301 44.001 22
c6.66699 10.667 10 26.667 10 48v131c0 21.333 -3.33301 37.666 -10 48.999c-8.66699 14.667 -23.334 22 -44.001 22zM148 650.998c0 16 0.999023 26.998 2.99902 32.998c4.66699 10 13.667 15 27 15c14 0 23 -4.66699 27 -14c2.66699 -7.33301 4 -18.666 4 -33.999v-126
c0 -15.333 -1.33301 -26.666 -4 -33.999c-4.66699 -10.667 -13.667 -16 -27 -16s-21.666 4.66699 -24.999 14s-5 21.333 -5 36v126zM178.999 306.996c27.333 0 47.667 -9.66797 61 -29.001c11.333 -16.667 17 -39 17 -67v-130c0 -26.667 -6 -48.334 -18 -65.001
c-13.333 -18.667 -33.333 -28 -60 -28s-46.167 8.83301 -58.5 26.5s-18.5 39.834 -18.5 66.501v133c0 26.667 5.66699 48.334 17 65.001c13.333 18.667 33.333 28 60 28zM179 283.995c-19.333 0 -33.667 -7.33398 -43 -22.001c-8 -11.333 -12 -27.666 -12 -48.999v-130
c0 -21.333 3.66699 -37.666 11 -48.999c9.33301 -14.667 24 -22 44 -22c20.667 0 35.334 7.33301 44.001 22c6.66699 10.667 10 26.667 10 48v131c0 21.333 -3.33301 37.666 -10 48.999c-8.66699 14.667 -23.334 22 -44.001 22zM148.999 210.994
c0 16 0.999023 26.998 2.99902 32.998c4.66699 10 13.667 15 27 15c14 0 23 -4.66699 27 -14c2.66699 -7.33301 4 -18.666 4 -33.999v-126c0 -15.333 -1.33301 -26.666 -4 -33.999c-4.66699 -10.667 -13.667 -16 -27 -16s-21.666 4.66699 -24.999 14s-5 21.333 -5 36v126z
" />
    <glyph glyph-name="section" unicode="&#xa7;" horiz-adv-x="587" 
d="M230 357l1.99902 0.000976562c-8 5.33301 -13.333 11.666 -16 18.999c0.666992 12.667 7.66699 24 21 34c8.66699 5.33301 28.334 8.66602 59.001 9.99902l34.5 -17c10.333 -5.33301 21.833 -10.666 34.5 -15.999h-1c8 -5.33301 11.667 -14.333 11 -27
c0 -7.33301 -4 -16 -12 -26v1c-10.667 -12.667 -25.667 -20.667 -45 -24zM147.999 478.001h1.00195c-37.333 -27.333 -56 -61.333 -56 -102c0 -52.667 23 -90.334 69 -113.001l182 -95c6.66699 -2.66699 10 -6 10 -10c0 -5.33301 -3.66699 -10.666 -11 -15.999
c-10.667 -8 -28.334 -12.333 -53.001 -13c-33.333 0 -54 11.667 -62 35c-6.66699 17.333 -16.834 29 -30.501 35s-28.834 6.33301 -45.501 1c-6.66699 -1.33301 -13.167 -4.5 -19.5 -9.5s-11.5 -11.833 -15.5 -20.5c-2.66699 -7.33301 -4.16699 -14.333 -4.5 -21
s-0.166016 -12.667 0.500977 -18c6 -17.333 13.833 -32.5 23.5 -45.5s21.5 -24.833 35.5 -35.5c31.333 -24.667 70.666 -37 117.999 -37c60.667 0 108.667 17.667 144 53l-2 -1c29.333 27.333 44 58 44 92c0 38 -14.667 68.667 -44 92c4 2.66699 7.83301 5.5 11.5 8.5
s7.16699 6.16699 10.5 9.5c29.333 28 44 59 44 93c0 63.333 -30.667 108 -92 134h1l-140 67c-20.667 9.33301 -32.334 16.666 -35.001 21.999c1.33301 6 5 11 11 15c12 7.33301 29.333 11 52 11c15.333 0 29.166 -3.16699 41.499 -9.5s22.833 -17.166 31.5 -32.499
c9.33301 -14 21 -23 35 -27s30 -1.66699 48 7c13.333 8 22.333 19.667 27 35c2 8 2.83301 15.5 2.5 22.5s-2.5 14.167 -6.5 21.5v-1c-15.333 34 -36.666 58.667 -63.999 74h1c-28 17.333 -66.667 26 -116 26s-92.666 -13.333 -129.999 -40
c-17.333 -16 -30.666 -32.333 -39.999 -49s-14.333 -34.667 -15 -54c0 -40.667 16 -73 48 -97zM188.001 497.001c-34.667 18.667 -52.002 46.999 -52.002 84.999c0.666992 30 15 57.333 43 82c32.667 24 71.334 36 116.001 36c42.667 0 76.667 -7.33301 102 -22
c24 -14 42 -35 54 -63c4.66699 -8 5.33398 -17 2.00098 -27c-2 -8.66699 -6.66699 -15.667 -14 -21c-21.333 -8 -37.666 -3.33301 -48.999 14c-22 35.333 -53.667 53 -95 53c-26.667 0.666992 -48.334 -4 -65.001 -14c-15.333 -10 -23 -22.667 -23 -38
c0.666992 -14.667 17.334 -29 50.001 -43l139 -66c50.667 -23.333 76 -61 76 -113c0 -28 -11 -53 -33 -75c-18 -15.333 -37 -27 -57 -35l15 -8c36 -18.667 54 -47 54 -85c0 -26.667 -11.667 -50.667 -35 -72c-30 -30.667 -72 -46 -126 -46c-40.667 0 -75 10 -103 30
c-24 18 -40 40 -48 66c-1.33301 8.66699 -1 17 1 25c4 9.33301 10.667 15 20 17c22 8 37 1 45 -21c11.333 -34.667 39.666 -52 84.999 -52c32 0.666992 55 7.33398 69 20.001c14 9.33301 21 20.333 21 33c0.666992 14.667 -7.33301 25.667 -24 33l-183 94
c-36 19.333 -54 50 -54 92c0 34 14.667 61.667 44 83c16 11.333 35 19.333 57 24zM311.999 285c31.333 3.33301 54.667 14.002 70 32.002c12.667 15.333 19 29.666 19 42.999c0.666992 23.333 -8 39.666 -26 48.999l-74 35c-37.333 0 -63.333 -4.33301 -78 -13
c-21.333 -14.667 -32 -33 -32 -55c0.666992 -16.667 9.66699 -30 27 -40zM66 376.002c0 44.667 16.667 81.6689 50 111.002c-22.667 25.333 -34 57 -34 95c0.666992 23.333 6.83398 45.166 18.501 65.499s28.167 40.166 49.5 59.499c42 30 90.333 45 145 45
c52.667 0 96 -10 130 -30l-1 1c16.667 -10.667 31.167 -22.834 43.5 -36.501s22.833 -30.167 31.5 -49.5l-1 1c6 -9.33301 9.33301 -19.333 10 -30s-0.333008 -21.667 -3 -33c-8.66699 -23.333 -23.334 -41.666 -44.001 -54.999
c-5.33301 -1.33301 -10.333 -2.66602 -15 -3.99902s-9.66699 -2.33301 -15 -3c62.667 -32 94 -83 94 -153c0 -40.667 -17.333 -78.334 -52 -113.001c20.667 -24.667 31 -54.667 31 -90c0 -40.667 -17.333 -77.334 -52 -110.001v1c-39.333 -41.333 -93.333 -62 -162 -62
c-54 0 -99.333 14 -136 42c-30 22.667 -53 55.334 -69 98.001c-1.33301 8 -1.5 16.5 -0.5 25.5s3.5 18.167 7.5 27.5c5.33301 13.333 12.833 23.833 22.5 31.5s20.167 12.834 31.5 15.501h-2c3.33301 1.33301 6.5 2.16602 9.5 2.49902s5.83301 0.833008 8.5 1.5l-13 8
c-55.333 28.667 -83 74.667 -83 138zM323 339.004c2.66699 1.33301 6.16797 3.33203 10.501 5.99902s7.5 4.66699 9.5 6c2.66699 3.33301 4 6.66602 4 9.99902v3c-2 1.33301 -6.66699 3.83301 -14 7.5l-15 7.5c-5.33301 2.66699 -10 4.83398 -14 6.50098
s-8.66699 3.83398 -14 6.50098c-19.333 0 -32.333 -1.66699 -39 -5c-1.33301 -1.33301 -2.83301 -2.5 -4.5 -3.5s-2.83398 -2.16699 -3.50098 -3.5h1zM290.001 155.003c4 0 8.66699 0.666992 14 2l-57 30c1.33301 -2.66699 2.5 -5.16699 3.5 -7.5s2.16699 -4.5 3.5 -6.5
c4 -12 16 -18 36 -18zM286.001 582.003l57 -28c-12 18.667 -28.333 28 -49 28h-8zM330.001 143.003h-1h1z" />
    <glyph glyph-name="dieresis" unicode="&#xa8;" horiz-adv-x="302" 
d="M146 525c0 -18 -6.66699 -33.667 -20 -47s-29 -20 -47 -20s-33.5 6.5 -46.5 19.5s-19.5 28.833 -19.5 47.5c0 18 6.5 33.5 19.5 46.5s28.5 19.5 46.5 19.5c18.667 0 34.5 -6.5 47.5 -19.5s19.5 -28.5 19.5 -46.5zM33 525c0 -12.667 4.33301 -23.667 13 -33
s19.667 -14 33 -14s24.5 4.5 33.5 13.5s13.5 20.167 13.5 33.5c0 12.667 -4.5 23.5 -13.5 32.5s-20.167 13.5 -33.5 13.5c-12.667 0 -23.5 -4.5 -32.5 -13.5s-13.5 -19.833 -13.5 -32.5zM105 525c0 -7.33301 -2.5 -13.5 -7.5 -18.5s-11.167 -7.5 -18.5 -7.5
c-6.66699 0 -12.5 2.5 -17.5 7.5s-7.5 11.167 -7.5 18.5c0 6.66699 2.33301 12.5 7 17.5s10.667 7.5 18 7.5s13.5 -2.5 18.5 -7.5s7.5 -10.833 7.5 -17.5zM292 525c0 -18 -6.66699 -33.667 -20 -47s-29 -20 -47 -20s-33.5 6.5 -46.5 19.5s-19.5 28.833 -19.5 47.5
c0 18 6.5 33.5 19.5 46.5s28.5 19.5 46.5 19.5c18.667 0 34.5 -6.5 47.5 -19.5s19.5 -28.5 19.5 -46.5zM179 525c0 -12.667 4.33301 -23.667 13 -33s19.667 -14 33 -14s24.5 4.5 33.5 13.5s13.5 20.167 13.5 33.5c0 12.667 -4.5 23.5 -13.5 32.5s-20.167 13.5 -33.5 13.5
c-12.667 0 -23.5 -4.5 -32.5 -13.5s-13.5 -19.833 -13.5 -32.5zM251 525c0 -7.33301 -2.5 -13.5 -7.5 -18.5s-11.167 -7.5 -18.5 -7.5c-6.66699 0 -12.5 2.5 -17.5 7.5s-7.5 11.167 -7.5 18.5c0 6.66699 2.33301 12.5 7 17.5s10.667 7.5 18 7.5s13.5 -2.5 18.5 -7.5
s7.5 -10.833 7.5 -17.5z" />
    <glyph glyph-name="copyright" unicode="&#xa9;" horiz-adv-x="686" 
d="M581 340c0 65.333 -23 121.001 -69 167.001s-101.667 69 -167 69c-66.667 0 -123 -23 -169 -69c-45.333 -46.667 -68 -102.334 -68 -167.001c0 -66 23 -122 69 -168s102 -69 168 -69c65.333 0 121 23 167 69s69 102 69 168zM662 340.001
c0 -44 -7.83301 -84.5 -23.5 -121.5s-39.167 -71.5 -70.5 -103.5c-62 -62 -136.333 -93 -223 -93c-88 0 -163 31 -225 93c-62 62.667 -93 137.667 -93 225c0 86 31 160.667 93 224c62.667 62 137.667 93 225 93c86 0 160.667 -31 224 -93c62 -63.333 93 -138 93 -224z
M608 340.001c0 -73.333 -25.668 -135.666 -77.001 -186.999s-113.333 -77 -186 -77c-73.333 0 -135.666 25.667 -186.999 77s-77 113.666 -77 186.999c0 72.667 25.5 134.667 76.5 186s113.5 77 187.5 77c73.333 0 135.5 -25.667 186.5 -77s76.5 -113.333 76.5 -186z
M633.999 340.001c0 79.333 -28.333 147.333 -85 204s-124.667 85 -204 85c-80 0 -148.333 -28.333 -205 -85c-56.667 -56 -85 -124 -85 -204c0 -40 6.83301 -77 20.5 -111s35.167 -65.667 64.5 -95c56 -56 124.333 -84 205 -84c79.333 0 147 28 203 84
c57.333 57.333 86 126 86 206zM354.999 270.001c14.667 0 28.9971 5.33203 42.9971 15.999c30.667 24 50.334 36 59.001 36c15.333 0 28.5 -5.66699 39.5 -17s16.5 -24.666 16.5 -39.999c0 -30 -18.667 -56.333 -56 -79c-33.333 -20 -66.333 -30 -99 -30
c-51.333 0 -95.166 17.5 -131.499 52.5s-54.5 77.833 -54.5 128.5s18 93.834 54 129.501s79.333 53.5 130 53.5c32.667 0 66 -10.333 100 -31c38.667 -23.333 58 -50.333 58 -81c0 -15.333 -5.66699 -28.5 -17 -39.5s-24.666 -16.5 -39.999 -16.5s-31.5 9 -48.5 27
s-34.833 27 -53.5 27c-19.333 0 -35.5 -6.83301 -48.5 -20.5s-19.5 -29.834 -19.5 -48.501c0 -18 6.66699 -33.667 20 -47s29.333 -20 48 -20zM354.996 422c22.667 0 43.167 -8.66797 61.5 -26.001s31.833 -26 40.5 -26c10 0 19 3.83301 27 11.5s12 16.5 12 26.5
c0 26 -17.333 48.667 -52 68c-30.667 17.333 -60 26 -88 26c-45.333 0 -84.333 -16 -117 -48s-49 -71 -49 -117s16.333 -84.833 49 -116.5s72.334 -47.5 119.001 -47.5c28 0 56.667 8.33301 86 25c34.667 19.333 52 41.666 52 66.999c0 10.667 -3.83301 19.834 -11.5 27.501
s-16.834 11.5 -27.501 11.5c-8 0 -22 -8.66699 -42 -26s-40 -26 -60 -26c-23.333 0 -43.333 8.33301 -60 25s-25 36.334 -25 59.001c0 24 8 44.333 24 61s36.333 25 61 25zM354.996 234.999c23.333 0 45.3301 8.66699 65.9971 26s33.334 26 38.001 26
c5.33301 0 10 -2.33301 14 -7s6 -9.66699 6 -15c0 -19.333 -15.667 -37 -47 -53c-28 -14.667 -52.667 -22 -74 -22c-41.333 0 -77 14.333 -107 43s-45 63.334 -45 104.001s14.833 75.667 44.5 105s64.834 44 105.501 44c22.667 0 47.667 -7.33301 75 -22
c32.667 -16.667 49 -35.334 49 -56.001c0 -6 -2.33301 -11 -7 -15s-10 -6 -16 -6c-2 0 -13.333 8.83301 -34 26.5s-42.667 26.5 -66 26.5c-30 0 -54.833 -9.66699 -74.5 -29s-29.5 -44.333 -29.5 -75c0 -28 9.83301 -51.833 29.5 -71.5s43.834 -29.5 72.501 -29.5z" />
    <glyph glyph-name="ordfeminine" unicode="&#xaa;" horiz-adv-x="403" 
d="M253 431c-4 -12.667 -9 -22 -15 -28c-13.333 -12 -35.666 -18 -66.999 -18c-22.667 0 -38.334 4 -47.001 12h1c-5.33301 6.66699 -8 14 -8 22c0 14 8.66699 24.333 26 31c18 7.33301 54.667 14.333 110 21v-40zM318 537c0 38 -12 66.667 -36 86
c-11.333 9.33301 -24.666 16.166 -39.999 20.499s-33.333 6.83301 -54 7.5c-40 0 -70.667 -7.66699 -92 -23c-25.333 -19.333 -38.333 -45.333 -39 -78c0 -23.333 10.667 -35 32 -35c22 0 33 11.667 33 35c0 12.667 4.33301 21.334 13 26.001h-1
c12.667 7.33301 30.667 11 54 11c12.667 0 23.167 -1.16699 31.5 -3.5s15.166 -5.5 20.499 -9.5c8.66699 -7.33301 13 -19.666 13 -36.999c-41.333 -3.33301 -77 -9.33301 -107 -18h1c-32.667 -8 -57 -21.667 -73 -41c-14.667 -14.667 -22 -34.334 -22 -59.001
c0 -28.667 9.66699 -52.667 29 -72c18.667 -18 43.667 -27 75 -27c48 0 85 10 111 30c10.667 -17.333 28.667 -26 54 -26c24 0 36 10.333 36 31c0 21.333 -12 32 -36 32l-1 1c-1.33301 3.33301 -2 8.5 -2 15.5v27.5v106zM302 431c0 -23.333 1.33203 -38.667 3.99902 -46
c2 -8.66699 7 -13 15 -13c13.333 0 20 -5.66699 20 -17c0 -10.667 -6.66699 -16 -20 -16c-23.333 0 -38.333 8.66699 -45 26c-1.33301 4 -2.33301 8 -3 12c-4 -4.66699 -7.66699 -8.66699 -11 -12c-22 -20 -57.333 -30 -106 -30c-27.333 0 -49 8 -65 24
c-15.333 14.667 -23 34.667 -23 60c0 20 5.66699 36.667 17 50c14.667 17.333 36.334 29 65.001 35c33.333 8.66699 72.666 15 117.999 19v14c0 22 -6.33301 38 -19 48c-13.333 10.667 -33.666 16 -60.999 16c-26 0 -46.333 -4 -61 -12
c-13.333 -8.66699 -20 -21.667 -20 -39c0 -13.333 -6 -20 -18 -20c-11.333 0 -17 6.66699 -17 20c0 28.667 10.667 50.334 32 65.001c20 14 48 21 84 21c36.667 -0.666992 65 -8.33398 85 -23.001c19.333 -16.667 29 -42 29 -76v-106v0zM267.999 488.999
c-66 -8.66699 -109.668 -17 -131.001 -25c-23.333 -9.33301 -35 -24.333 -35 -45c0 -14 4.33301 -25 13 -33c12 -10.667 30.667 -16 56 -16c36.667 0 62.334 7.33301 77.001 22c10 9.33301 16.667 22.333 20 39v58zM333.998 402.999c26 -4 39.001 -19.998 39.001 -47.998
c0 -32 -17.333 -48 -52 -48c-24.667 0 -44 6.66699 -58 20c-27.333 -15.333 -63 -23 -107 -23c-36.667 0 -65.667 11 -87 33c-21.333 21.333 -32 48.666 -32 81.999c0 28.667 8 52 24 70c1.33301 2 3 3.83301 5 5.5s3.66699 3.16699 5 4.5c-20 6 -30 23 -30 51
c1.33301 40 16.666 70.333 45.999 91c24 18 57.667 27 101 27c44.667 -0.666992 79.667 -11.334 105 -32.001c27.333 -22 41 -55 41 -99v-106v-28zM235.999 452.001c-21.333 -3.33301 -39.332 -6.33301 -53.999 -9s-25.667 -5.66699 -33 -9
c-10 -2.66699 -15 -7.66699 -15 -15c0 -4.66699 0.666992 -8.33398 2 -11.001v2c3.33301 -3.33301 8 -5.66602 14 -6.99902s13 -2 21 -2c25.333 0 43.666 4 54.999 12l5.5 9c1.66699 2.66699 3.16699 6 4.5 10v20zM137 550.001l-0.000976562 -9
c0 -2.66699 -0.333008 -5 -1 -7c0.666992 0.666992 1.5 1 2.5 1s2.16699 0.333008 3.5 1c13.333 3.33301 27.833 6.5 43.5 9.5s31.834 5.16699 48.501 6.5c-0.666992 3.33301 -2.33398 6.33301 -5.00098 9c-7.33301 6 -21 9 -41 9c-21.333 0 -36.333 -2.66699 -45 -8
c-1.33301 -1.33301 -2.66602 -2.83301 -3.99902 -4.5s-2 -4.16699 -2 -7.5zM203.999 355.001h-1h1z" />
    <glyph glyph-name="guillemotleft" unicode="&#xab;" horiz-adv-x="511" 
d="M199 77c-32 0 -66.5 24.335 -103.5 73.002s-55.5 88 -55.5 118c0 30.667 17.667 69 53 115c38 50 73.333 75 106 75c19.333 0 37.166 -5.33301 53.499 -16s27.833 -25.334 34.5 -44.001c13.333 19.333 25.666 33.333 36.999 42c15.333 12 33 18 53 18
c24.667 0 46.5 -8.5 65.5 -25.5s28.5 -37.5 28.5 -61.5c0 -12.667 -3.33301 -26 -10 -40c-3.33301 -6.66699 -16.666 -27.667 -39.999 -63c10 -16.667 20.333 -33 31 -49c12.667 -22 19 -40.333 19 -55c0 -24.667 -9.66699 -45.334 -29 -62.001s-41 -25 -65 -25
c-14.667 0 -28 3.33301 -40 10c-15.333 8.66699 -32 25 -50 49c-6.66699 -18 -18.167 -32.333 -34.5 -43s-34.166 -16 -53.499 -16zM199 425.002c-22 0 -48.502 -21.668 -79.502 -65.001s-46.5 -74.333 -46.5 -93s14.667 -48.667 44 -90c32 -45.333 59.333 -68 82 -68
c14.667 0 28.334 5.33301 41.001 16s19 23.667 19 39c0 10 -8.5 28.333 -25.5 55l-30.5 48l31 48c16.667 27.333 25 46 25 56c0 14.667 -6.16699 27.334 -18.5 38.001s-26.166 16 -41.499 16zM437.998 371.001c0 14.667 -6.33301 27.333 -19 38s-26.667 16 -42 16
c-22.667 0 -49.167 -21.5 -79.5 -64.5s-45.5 -74.167 -45.5 -93.5c0 -18 14.667 -48 44 -90c32 -45.333 59 -68 81 -68c15.333 0 29.333 5.33301 42 16s19 23.667 19 39c0 10 -8 28 -24 54l-32 49c13.333 18.667 24 34.667 32 48c16 26 24 44.667 24 56zM402.998 164
c0 -6 -2.50195 -11.168 -7.50195 -15.501s-10.833 -6.5 -17.5 -6.5c-7.33301 0 -18.666 10 -33.999 30l-46 70c-3.33301 4.66699 -5.66602 8.33398 -6.99902 11.001c-3.33301 5.33301 -5 10 -5 14c0 3.33301 1.66699 7.33301 5 12l7 12l31 52c22 32.667 38.333 49 49 49
c6 0 11.667 -2 17 -6s8 -9.33301 8 -16c0 -7.33301 -9.16699 -25.333 -27.5 -54s-29.5 -45 -33.5 -49c11.333 -14.667 25.333 -36 42 -64c12.667 -20.667 19 -33.667 19 -39zM223.996 163.999c0 -6 -2.50098 -11.168 -7.50098 -15.501s-10.833 -6.5 -17.5 -6.5
c-10 0 -25.667 16 -47 48c-5.33301 7.33301 -16 24.666 -32 51.999c-3.33301 4.66699 -6.33301 9.33398 -9 14.001s-4 8.33398 -4 11.001c0 3.33301 1.66699 7.33301 5 12l8 12c13.333 26.667 27.833 50.167 43.5 70.5s27.834 30.5 36.501 30.5c6 0 11.5 -2.16699 16.5 -6.5
s7.5 -9.5 7.5 -15.5c0 -6.66699 -10 -25.667 -30 -57l-30 -46l30 -47c20 -31.333 30 -50 30 -56z" />
    <glyph glyph-name="logicalnot" unicode="&#xac;" horiz-adv-x="592" 
d="M459 110c-33.333 0 -56.335 13.334 -69.002 40.001c-8.66699 18.667 -13 46.667 -13 84c0 0.666992 0.166992 10 0.5 28s0.5 30.333 0.5 37h-239c-30 0 -53.667 6 -71 18c-20.667 13.333 -31 34.666 -31 63.999c0 28 9.33301 48.667 28 62s42.334 20 71.001 20h301
c35.333 0 61 -8.16699 77 -24.5s24 -42.833 24 -79.5v-153c0 -28 -6 -50.333 -18 -67c-13.333 -19.333 -33.666 -29 -60.999 -29zM403.998 324.001c-0.666992 -11.333 -1.66699 -24.167 -3 -38.5s-2 -29.166 -2 -44.499c0 -31.333 3.66699 -55.333 11 -72
c10 -22 26.333 -33 49 -33c20.667 0 35.334 7 44.001 21c7.33301 11.333 11 27.666 11 48.999v153c0 29.333 -5.83301 49.833 -17.5 61.5s-31.834 17.5 -60.501 17.5h-297c-22.667 0 -41.167 -4.16699 -55.5 -12.5s-21.5 -23.166 -21.5 -44.499
c0 -22.667 8 -38.334 24 -47.001c11.333 -6.66699 29 -10 53 -10h265zM428.998 348h-290.001c-20.667 0 -34.667 2.83301 -42 8.5s-11 13.834 -11 24.501c0 13.333 4.5 22.166 13.5 26.499s21.167 6.5 36.5 6.5h300c22 0 36.333 -3.66699 43 -11s10 -22 10 -44v-153
c0 -13.333 -2 -24.333 -6 -33s-12 -13 -24 -13c-13.333 0 -21.666 4.33301 -24.999 13s-5 20.667 -5 36v139z" />
    <glyph glyph-name="uni00AD" unicode="&#xad;" horiz-adv-x="424" 
d="M266 367c37.333 0 66.332 -7.00098 86.999 -21.001c25.333 -17.333 38 -43.666 38 -78.999c0 -34 -12 -59.667 -36 -77c-21.333 -15.333 -49.666 -23 -84.999 -23h-117c-34.667 0 -62.667 7.66699 -84 23c-24 17.333 -36 43 -36 77c0 35.333 11.833 60.833 35.5 76.5
s53.5 23.5 89.5 23.5h108zM265.999 200.999c26.667 0 47.333 4 62 12c19.333 10.667 29 28.667 29 54c0 26 -9.33301 44.333 -28 55c-14 8 -35 12 -63 12h-108c-36 0 -61 -6.66699 -75 -20c-10.667 -10 -16 -25.667 -16 -47c0 -25.333 9.33301 -43.333 28 -54
c14.667 -8 35.667 -12 63 -12h108zM265.998 299.999c20 0 33.001 -1.00195 39.001 -3.00195c12.667 -4.66699 19 -14.667 19 -30c0 -14 -4.83301 -23 -14.5 -27s-22.834 -6 -39.501 -6h-116c-17.333 0 -29.333 1.33301 -36 4c-12 4.66699 -18 14.334 -18 29.001
s5.16699 23.834 15.5 27.501s24.5 5.5 42.5 5.5h108z" />
    <glyph glyph-name="registered" unicode="&#xae;" horiz-adv-x="738" 
d="M606 340c0 65.333 -23 121.001 -69 167.001s-101.667 69 -167 69c-66.667 0 -123 -23 -169 -69c-45.333 -46.667 -68 -102.334 -68 -167.001c0 -66 23 -122 69 -168s102 -69 168 -69c65.333 0 121 23 167 69s69 102 69 168zM687 340.001
c0 -44 -7.83301 -84.5 -23.5 -121.5s-39.167 -71.5 -70.5 -103.5c-62 -62 -136.333 -93 -223 -93c-88 0 -163 31 -225 93c-62 62.667 -93 137.667 -93 225c0 86 31 160.667 93 224c62.667 62 137.667 93 225 93c86 0 160.667 -31 224 -93c62 -63.333 93 -138 93 -224z
M633 340.001c0 -73.333 -25.668 -135.666 -77.001 -186.999s-113.333 -77 -186 -77c-73.333 0 -135.666 25.667 -186.999 77s-77 113.666 -77 186.999c0 72.667 25.5 134.667 76.5 186s113.5 77 187.5 77c73.333 0 135.5 -25.667 186.5 -77s76.5 -113.333 76.5 -186z
M658.999 340.001c0 79.333 -28.333 147.333 -85 204s-124.667 85 -204 85c-80 0 -148.333 -28.333 -205 -85c-56.667 -56 -85 -124 -85 -204c0 -40 6.83301 -77 20.5 -111s35.167 -65.667 64.5 -95c56 -56 124.333 -84 205 -84c79.333 0 147 28 203 84
c57.333 57.333 86 126 86 206zM518.999 210.001c0 -18 -6 -32.998 -18 -44.998s-26.667 -18 -44 -18c-22 0 -44 15 -66 45l-27 41c0 -26.667 -3.66699 -46.334 -11 -59.001c-10 -18 -27.333 -27 -52 -27c-22.667 0 -39 7.5 -49 22.5s-15 34.167 -15 57.5v228
c0 30 6.33301 51 19 63s33.667 18 63 18h52c44.667 0 82 -12 112 -36c32 -26 48 -61.667 48 -107c0 -20.667 -4.33301 -40.334 -13 -59.001s-21 -34.667 -37 -48c8 -12 16.333 -23.333 25 -34c8.66699 -15.333 13 -29.333 13 -42zM512.999 393.003
c0 40 -14.3311 70.998 -42.998 92.998c-26 20.667 -59.333 31 -100 31h-51c-24.667 0 -41.334 -4.16699 -50.001 -12.5s-13 -24.833 -13 -49.5v-228c0 -18.667 2.66699 -32.667 8 -42c7.33301 -12 19.666 -18 36.999 -18c18 0 30.333 7.33301 37 22c4.66699 10 7 26 7 48
c0 6 -0.166992 12 -0.5 18s-0.5 12 -0.5 18h17l37 -60c22 -30.667 41.667 -46 59 -46c12 0 22.167 4.16699 30.5 12.5s12.5 18.5 12.5 30.5c0 10.667 -6.33301 25.334 -19 44.001c-15.333 20 -24.333 32.667 -27 38c18 9.33301 32.333 23.333 43 42s16 38.334 16 59.001z
M301.001 186.001c-8.66699 0 -15.165 2.83496 -19.498 8.50195s-6.5 16.5 -6.5 32.5v228c0 18 2.83301 29.667 8.5 35s17.5 8 35.5 8h50c35.333 0 64.333 -8.33301 87 -25c25.333 -18.667 38 -45.334 38 -80.001c0 -22 -6.16699 -41 -18.5 -57s-29.5 -28.667 -51.5 -38
l40 -55c11.333 -16.667 17 -27.667 17 -33c0 -6 -2.33301 -11.5 -7 -16.5s-10.334 -7.5 -17.001 -7.5c-10.667 0 -27.667 17 -51 51c-22 35.333 -33.667 53.666 -35 54.999h-46c0 -0.666992 0.5 -6.66699 1.5 -18s1.5 -21.333 1.5 -30c0 -16.667 -1.83301 -30.5 -5.5 -41.5
s-10.834 -16.5 -21.501 -16.5zM325.003 335.003h51.999c19.333 0 35.333 5.16699 48 15.5s19 24.833 19 43.5c0 20.667 -6.66699 36 -20 46s-30.666 15 -51.999 15h-47v-120zM344.002 435.003l27.999 0.000976562c16.667 0 29.834 -3 39.501 -9s14.5 -16.667 14.5 -32
c0 -14.667 -5.33301 -25.334 -16 -32.001c-8.66699 -5.33301 -21 -8 -37 -8h-29v81zM374.001 373.004c10.667 0 18.667 1.16797 24 3.50098s8 8.16602 8 17.499s-2.83301 15.333 -8.5 18s-14.167 4 -25.5 4h-8v-43h10z" />
    </font>
</defs>
</svg>
